M48
; DRILL file KiCad 10.0.4 date 2026-08-26T15:09:38
; FORMAT={-:-/ absolute / metric / decimal}
; #@! TF.CreationDate,2026-08-26T15:09:38-07:00
; #@! TF.GenerationSoftware,Kicad,Pcbnew,10.0.4
; #@! TF.FileFunction,Plated,1,4,PTH
FMAT,2
METRIC
; #@! TA.AperFunction,Plated,PTH,ComponentDrill
T1C0.762
; #@! TA.AperFunction,Plated,PTH,ComponentDrill
T2C1.000
; #@! TA.AperFunction,Plated,PTH,ComponentDrill
T3C1.020
%
G90
G05
T1
X156.523Y-67.834
X156.523Y-70.374
X156.523Y-72.914
X156.523Y-75.454
X156.523Y-77.994
X156.523Y-80.534
X156.523Y-83.074
X156.523Y-85.614
X156.777Y-89.778
X156.777Y-92.318
X156.777Y-94.858
X156.777Y-97.398
X156.777Y-99.938
T2
X120.0Y-62.0
X120.0Y-122.0
X120.0Y-128.0
X124.0Y-62.0
X166.693Y-62.0
X170.693Y-62.0
X170.693Y-123.0
X170.693Y-128.0
T3
X120.3Y-76.485
X120.3Y-79.025
X120.3Y-81.565
X120.3Y-84.105
X120.3Y-86.645
X120.3Y-89.185
X120.3Y-91.725
X120.3Y-94.265
X120.3Y-96.805
X120.3Y-99.345
X120.3Y-101.885
X120.3Y-104.425
X120.3Y-106.965
X120.3Y-109.505
X120.3Y-112.045
X145.7Y-76.485
X145.7Y-79.025
X145.7Y-81.565
X145.7Y-84.105
X145.7Y-86.645
X145.7Y-89.185
X145.7Y-91.725
X145.7Y-94.265
X145.7Y-96.805
X145.7Y-99.345
X145.7Y-101.885
X145.7Y-104.425
X145.7Y-106.965
X145.7Y-109.505
X145.7Y-112.045
M30
