G04 #@! TF.GenerationSoftware,KiCad,Pcbnew,10.0.4*
G04 #@! TF.CreationDate,2026-08-26T15:11:29-07:00*
G04 #@! TF.ProjectId,ESPDrone,45535044-726f-46e6-952e-6b696361645f,rev?*
G04 #@! TF.SameCoordinates,Original*
G04 #@! TF.FileFunction,Copper,L3,Inr*
G04 #@! TF.FilePolarity,Positive*
%FSLAX46Y46*%
G04 Gerber Fmt 4.6, Leading zero omitted, Abs format (unit mm)*
G04 Created by KiCad (PCBNEW 10.0.4) date 2026-08-26 15:11:29*
%MOMM*%
%LPD*%
G01*
G04 APERTURE LIST*
G04 #@! TA.AperFunction,ComponentPad*
%ADD10R,2.000000X2.000000*%
G04 #@! TD*
G04 #@! TA.AperFunction,ComponentPad*
%ADD11C,2.000000*%
G04 #@! TD*
G04 #@! TA.AperFunction,ComponentPad*
%ADD12C,1.524000*%
G04 #@! TD*
G04 APERTURE END LIST*
D10*
X120300000Y-76485000D03*
D11*
X120300000Y-79025000D03*
X120300000Y-81565000D03*
X120300000Y-84105000D03*
X120300000Y-86645000D03*
X120300000Y-89185000D03*
X120300000Y-91725000D03*
X120300000Y-94265000D03*
X120300000Y-96805000D03*
X120300000Y-99345000D03*
X120300000Y-101885000D03*
X120300000Y-104425000D03*
X120300000Y-106965000D03*
X120300000Y-109505000D03*
X120300000Y-112045000D03*
X145700000Y-112045000D03*
X145700000Y-109505000D03*
X145700000Y-106965000D03*
X145700000Y-104425000D03*
X145700000Y-101885000D03*
X145700000Y-99345000D03*
X145700000Y-96805000D03*
X145700000Y-94265000D03*
X145700000Y-91725000D03*
X145700000Y-89185000D03*
X145700000Y-86645000D03*
X145700000Y-84105000D03*
X145700000Y-81565000D03*
X145700000Y-79025000D03*
X145700000Y-76485000D03*
D10*
X120000000Y-128000000D03*
X170693000Y-128000000D03*
D12*
X156777000Y-89778000D03*
X156777000Y-92318000D03*
X156777000Y-94858000D03*
X156777000Y-97398000D03*
X156777000Y-99938000D03*
D10*
X170693000Y-62000000D03*
D12*
X156523000Y-67834000D03*
X156523000Y-70374000D03*
X156523000Y-72914000D03*
X156523000Y-75454000D03*
X156523000Y-77994000D03*
X156523000Y-80534000D03*
X156523000Y-83074000D03*
X156523000Y-85614000D03*
D10*
X124000000Y-62000000D03*
X120000000Y-62000000D03*
X166693000Y-62000000D03*
X170693000Y-123000000D03*
X120000000Y-122000000D03*
M02*
