G04 #@! TF.GenerationSoftware,KiCad,Pcbnew,10.0.4*
G04 #@! TF.CreationDate,2026-08-26T15:11:29-07:00*
G04 #@! TF.ProjectId,ESPDrone,45535044-726f-46e6-952e-6b696361645f,rev?*
G04 #@! TF.SameCoordinates,Original*
G04 #@! TF.FileFunction,Legend,Top*
G04 #@! TF.FilePolarity,Positive*
%FSLAX46Y46*%
G04 Gerber Fmt 4.6, Leading zero omitted, Abs format (unit mm)*
G04 Created by KiCad (PCBNEW 10.0.4) date 2026-08-26 15:11:29*
%MOMM*%
%LPD*%
G01*
G04 APERTURE LIST*
%ADD10C,0.150000*%
%ADD11C,0.127000*%
%ADD12C,0.200000*%
%ADD13C,0.120000*%
G04 APERTURE END LIST*
D10*
X118961904Y-124504438D02*
X118866666Y-124456819D01*
X118866666Y-124456819D02*
X118723809Y-124456819D01*
X118723809Y-124456819D02*
X118580952Y-124504438D01*
X118580952Y-124504438D02*
X118485714Y-124599676D01*
X118485714Y-124599676D02*
X118438095Y-124694914D01*
X118438095Y-124694914D02*
X118390476Y-124885390D01*
X118390476Y-124885390D02*
X118390476Y-125028247D01*
X118390476Y-125028247D02*
X118438095Y-125218723D01*
X118438095Y-125218723D02*
X118485714Y-125313961D01*
X118485714Y-125313961D02*
X118580952Y-125409200D01*
X118580952Y-125409200D02*
X118723809Y-125456819D01*
X118723809Y-125456819D02*
X118819047Y-125456819D01*
X118819047Y-125456819D02*
X118961904Y-125409200D01*
X118961904Y-125409200D02*
X119009523Y-125361580D01*
X119009523Y-125361580D02*
X119009523Y-125028247D01*
X119009523Y-125028247D02*
X118819047Y-125028247D01*
X119438095Y-125456819D02*
X119438095Y-124456819D01*
X119438095Y-124456819D02*
X120009523Y-125456819D01*
X120009523Y-125456819D02*
X120009523Y-124456819D01*
X120485714Y-125456819D02*
X120485714Y-124456819D01*
X120485714Y-124456819D02*
X120723809Y-124456819D01*
X120723809Y-124456819D02*
X120866666Y-124504438D01*
X120866666Y-124504438D02*
X120961904Y-124599676D01*
X120961904Y-124599676D02*
X121009523Y-124694914D01*
X121009523Y-124694914D02*
X121057142Y-124885390D01*
X121057142Y-124885390D02*
X121057142Y-125028247D01*
X121057142Y-125028247D02*
X121009523Y-125218723D01*
X121009523Y-125218723D02*
X120961904Y-125313961D01*
X120961904Y-125313961D02*
X120866666Y-125409200D01*
X120866666Y-125409200D02*
X120723809Y-125456819D01*
X120723809Y-125456819D02*
X120485714Y-125456819D01*
X121390476Y-124456819D02*
X122009523Y-124456819D01*
X122009523Y-124456819D02*
X121676190Y-124837771D01*
X121676190Y-124837771D02*
X121819047Y-124837771D01*
X121819047Y-124837771D02*
X121914285Y-124885390D01*
X121914285Y-124885390D02*
X121961904Y-124933009D01*
X121961904Y-124933009D02*
X122009523Y-125028247D01*
X122009523Y-125028247D02*
X122009523Y-125266342D01*
X122009523Y-125266342D02*
X121961904Y-125361580D01*
X121961904Y-125361580D02*
X121914285Y-125409200D01*
X121914285Y-125409200D02*
X121819047Y-125456819D01*
X121819047Y-125456819D02*
X121533333Y-125456819D01*
X121533333Y-125456819D02*
X121438095Y-125409200D01*
X121438095Y-125409200D02*
X121390476Y-125361580D01*
X169561904Y-125004438D02*
X169466666Y-124956819D01*
X169466666Y-124956819D02*
X169323809Y-124956819D01*
X169323809Y-124956819D02*
X169180952Y-125004438D01*
X169180952Y-125004438D02*
X169085714Y-125099676D01*
X169085714Y-125099676D02*
X169038095Y-125194914D01*
X169038095Y-125194914D02*
X168990476Y-125385390D01*
X168990476Y-125385390D02*
X168990476Y-125528247D01*
X168990476Y-125528247D02*
X169038095Y-125718723D01*
X169038095Y-125718723D02*
X169085714Y-125813961D01*
X169085714Y-125813961D02*
X169180952Y-125909200D01*
X169180952Y-125909200D02*
X169323809Y-125956819D01*
X169323809Y-125956819D02*
X169419047Y-125956819D01*
X169419047Y-125956819D02*
X169561904Y-125909200D01*
X169561904Y-125909200D02*
X169609523Y-125861580D01*
X169609523Y-125861580D02*
X169609523Y-125528247D01*
X169609523Y-125528247D02*
X169419047Y-125528247D01*
X170038095Y-125956819D02*
X170038095Y-124956819D01*
X170038095Y-124956819D02*
X170609523Y-125956819D01*
X170609523Y-125956819D02*
X170609523Y-124956819D01*
X171085714Y-125956819D02*
X171085714Y-124956819D01*
X171085714Y-124956819D02*
X171323809Y-124956819D01*
X171323809Y-124956819D02*
X171466666Y-125004438D01*
X171466666Y-125004438D02*
X171561904Y-125099676D01*
X171561904Y-125099676D02*
X171609523Y-125194914D01*
X171609523Y-125194914D02*
X171657142Y-125385390D01*
X171657142Y-125385390D02*
X171657142Y-125528247D01*
X171657142Y-125528247D02*
X171609523Y-125718723D01*
X171609523Y-125718723D02*
X171561904Y-125813961D01*
X171561904Y-125813961D02*
X171466666Y-125909200D01*
X171466666Y-125909200D02*
X171323809Y-125956819D01*
X171323809Y-125956819D02*
X171085714Y-125956819D01*
X172609523Y-125956819D02*
X172038095Y-125956819D01*
X172323809Y-125956819D02*
X172323809Y-124956819D01*
X172323809Y-124956819D02*
X172228571Y-125099676D01*
X172228571Y-125099676D02*
X172133333Y-125194914D01*
X172133333Y-125194914D02*
X172038095Y-125242533D01*
X158999667Y-89232819D02*
X159333000Y-90232819D01*
X159333000Y-90232819D02*
X159666333Y-89232819D01*
X160571095Y-90137580D02*
X160523476Y-90185200D01*
X160523476Y-90185200D02*
X160380619Y-90232819D01*
X160380619Y-90232819D02*
X160285381Y-90232819D01*
X160285381Y-90232819D02*
X160142524Y-90185200D01*
X160142524Y-90185200D02*
X160047286Y-90089961D01*
X160047286Y-90089961D02*
X159999667Y-89994723D01*
X159999667Y-89994723D02*
X159952048Y-89804247D01*
X159952048Y-89804247D02*
X159952048Y-89661390D01*
X159952048Y-89661390D02*
X159999667Y-89470914D01*
X159999667Y-89470914D02*
X160047286Y-89375676D01*
X160047286Y-89375676D02*
X160142524Y-89280438D01*
X160142524Y-89280438D02*
X160285381Y-89232819D01*
X160285381Y-89232819D02*
X160380619Y-89232819D01*
X160380619Y-89232819D02*
X160523476Y-89280438D01*
X160523476Y-89280438D02*
X160571095Y-89328057D01*
X161571095Y-90137580D02*
X161523476Y-90185200D01*
X161523476Y-90185200D02*
X161380619Y-90232819D01*
X161380619Y-90232819D02*
X161285381Y-90232819D01*
X161285381Y-90232819D02*
X161142524Y-90185200D01*
X161142524Y-90185200D02*
X161047286Y-90089961D01*
X161047286Y-90089961D02*
X160999667Y-89994723D01*
X160999667Y-89994723D02*
X160952048Y-89804247D01*
X160952048Y-89804247D02*
X160952048Y-89661390D01*
X160952048Y-89661390D02*
X160999667Y-89470914D01*
X160999667Y-89470914D02*
X161047286Y-89375676D01*
X161047286Y-89375676D02*
X161142524Y-89280438D01*
X161142524Y-89280438D02*
X161285381Y-89232819D01*
X161285381Y-89232819D02*
X161380619Y-89232819D01*
X161380619Y-89232819D02*
X161523476Y-89280438D01*
X161523476Y-89280438D02*
X161571095Y-89328057D01*
X159571095Y-91820438D02*
X159475857Y-91772819D01*
X159475857Y-91772819D02*
X159333000Y-91772819D01*
X159333000Y-91772819D02*
X159190143Y-91820438D01*
X159190143Y-91820438D02*
X159094905Y-91915676D01*
X159094905Y-91915676D02*
X159047286Y-92010914D01*
X159047286Y-92010914D02*
X158999667Y-92201390D01*
X158999667Y-92201390D02*
X158999667Y-92344247D01*
X158999667Y-92344247D02*
X159047286Y-92534723D01*
X159047286Y-92534723D02*
X159094905Y-92629961D01*
X159094905Y-92629961D02*
X159190143Y-92725200D01*
X159190143Y-92725200D02*
X159333000Y-92772819D01*
X159333000Y-92772819D02*
X159428238Y-92772819D01*
X159428238Y-92772819D02*
X159571095Y-92725200D01*
X159571095Y-92725200D02*
X159618714Y-92677580D01*
X159618714Y-92677580D02*
X159618714Y-92344247D01*
X159618714Y-92344247D02*
X159428238Y-92344247D01*
X160047286Y-92772819D02*
X160047286Y-91772819D01*
X160047286Y-91772819D02*
X160618714Y-92772819D01*
X160618714Y-92772819D02*
X160618714Y-91772819D01*
X161094905Y-92772819D02*
X161094905Y-91772819D01*
X161094905Y-91772819D02*
X161333000Y-91772819D01*
X161333000Y-91772819D02*
X161475857Y-91820438D01*
X161475857Y-91820438D02*
X161571095Y-91915676D01*
X161571095Y-91915676D02*
X161618714Y-92010914D01*
X161618714Y-92010914D02*
X161666333Y-92201390D01*
X161666333Y-92201390D02*
X161666333Y-92344247D01*
X161666333Y-92344247D02*
X161618714Y-92534723D01*
X161618714Y-92534723D02*
X161571095Y-92629961D01*
X161571095Y-92629961D02*
X161475857Y-92725200D01*
X161475857Y-92725200D02*
X161333000Y-92772819D01*
X161333000Y-92772819D02*
X161094905Y-92772819D01*
X159142524Y-95265200D02*
X159285381Y-95312819D01*
X159285381Y-95312819D02*
X159523476Y-95312819D01*
X159523476Y-95312819D02*
X159618714Y-95265200D01*
X159618714Y-95265200D02*
X159666333Y-95217580D01*
X159666333Y-95217580D02*
X159713952Y-95122342D01*
X159713952Y-95122342D02*
X159713952Y-95027104D01*
X159713952Y-95027104D02*
X159666333Y-94931866D01*
X159666333Y-94931866D02*
X159618714Y-94884247D01*
X159618714Y-94884247D02*
X159523476Y-94836628D01*
X159523476Y-94836628D02*
X159333000Y-94789009D01*
X159333000Y-94789009D02*
X159237762Y-94741390D01*
X159237762Y-94741390D02*
X159190143Y-94693771D01*
X159190143Y-94693771D02*
X159142524Y-94598533D01*
X159142524Y-94598533D02*
X159142524Y-94503295D01*
X159142524Y-94503295D02*
X159190143Y-94408057D01*
X159190143Y-94408057D02*
X159237762Y-94360438D01*
X159237762Y-94360438D02*
X159333000Y-94312819D01*
X159333000Y-94312819D02*
X159571095Y-94312819D01*
X159571095Y-94312819D02*
X159713952Y-94360438D01*
X160713952Y-95217580D02*
X160666333Y-95265200D01*
X160666333Y-95265200D02*
X160523476Y-95312819D01*
X160523476Y-95312819D02*
X160428238Y-95312819D01*
X160428238Y-95312819D02*
X160285381Y-95265200D01*
X160285381Y-95265200D02*
X160190143Y-95169961D01*
X160190143Y-95169961D02*
X160142524Y-95074723D01*
X160142524Y-95074723D02*
X160094905Y-94884247D01*
X160094905Y-94884247D02*
X160094905Y-94741390D01*
X160094905Y-94741390D02*
X160142524Y-94550914D01*
X160142524Y-94550914D02*
X160190143Y-94455676D01*
X160190143Y-94455676D02*
X160285381Y-94360438D01*
X160285381Y-94360438D02*
X160428238Y-94312819D01*
X160428238Y-94312819D02*
X160523476Y-94312819D01*
X160523476Y-94312819D02*
X160666333Y-94360438D01*
X160666333Y-94360438D02*
X160713952Y-94408057D01*
X161618714Y-95312819D02*
X161142524Y-95312819D01*
X161142524Y-95312819D02*
X161142524Y-94312819D01*
X159118714Y-97805200D02*
X159261571Y-97852819D01*
X159261571Y-97852819D02*
X159499666Y-97852819D01*
X159499666Y-97852819D02*
X159594904Y-97805200D01*
X159594904Y-97805200D02*
X159642523Y-97757580D01*
X159642523Y-97757580D02*
X159690142Y-97662342D01*
X159690142Y-97662342D02*
X159690142Y-97567104D01*
X159690142Y-97567104D02*
X159642523Y-97471866D01*
X159642523Y-97471866D02*
X159594904Y-97424247D01*
X159594904Y-97424247D02*
X159499666Y-97376628D01*
X159499666Y-97376628D02*
X159309190Y-97329009D01*
X159309190Y-97329009D02*
X159213952Y-97281390D01*
X159213952Y-97281390D02*
X159166333Y-97233771D01*
X159166333Y-97233771D02*
X159118714Y-97138533D01*
X159118714Y-97138533D02*
X159118714Y-97043295D01*
X159118714Y-97043295D02*
X159166333Y-96948057D01*
X159166333Y-96948057D02*
X159213952Y-96900438D01*
X159213952Y-96900438D02*
X159309190Y-96852819D01*
X159309190Y-96852819D02*
X159547285Y-96852819D01*
X159547285Y-96852819D02*
X159690142Y-96900438D01*
X160118714Y-97852819D02*
X160118714Y-96852819D01*
X160118714Y-96852819D02*
X160356809Y-96852819D01*
X160356809Y-96852819D02*
X160499666Y-96900438D01*
X160499666Y-96900438D02*
X160594904Y-96995676D01*
X160594904Y-96995676D02*
X160642523Y-97090914D01*
X160642523Y-97090914D02*
X160690142Y-97281390D01*
X160690142Y-97281390D02*
X160690142Y-97424247D01*
X160690142Y-97424247D02*
X160642523Y-97614723D01*
X160642523Y-97614723D02*
X160594904Y-97709961D01*
X160594904Y-97709961D02*
X160499666Y-97805200D01*
X160499666Y-97805200D02*
X160356809Y-97852819D01*
X160356809Y-97852819D02*
X160118714Y-97852819D01*
X161071095Y-97567104D02*
X161547285Y-97567104D01*
X160975857Y-97852819D02*
X161309190Y-96852819D01*
X161309190Y-96852819D02*
X161642523Y-97852819D01*
X159285381Y-99392819D02*
X159904428Y-99392819D01*
X159904428Y-99392819D02*
X159571095Y-99773771D01*
X159571095Y-99773771D02*
X159713952Y-99773771D01*
X159713952Y-99773771D02*
X159809190Y-99821390D01*
X159809190Y-99821390D02*
X159856809Y-99869009D01*
X159856809Y-99869009D02*
X159904428Y-99964247D01*
X159904428Y-99964247D02*
X159904428Y-100202342D01*
X159904428Y-100202342D02*
X159856809Y-100297580D01*
X159856809Y-100297580D02*
X159809190Y-100345200D01*
X159809190Y-100345200D02*
X159713952Y-100392819D01*
X159713952Y-100392819D02*
X159428238Y-100392819D01*
X159428238Y-100392819D02*
X159333000Y-100345200D01*
X159333000Y-100345200D02*
X159285381Y-100297580D01*
X160333000Y-100297580D02*
X160380619Y-100345200D01*
X160380619Y-100345200D02*
X160333000Y-100392819D01*
X160333000Y-100392819D02*
X160285381Y-100345200D01*
X160285381Y-100345200D02*
X160333000Y-100297580D01*
X160333000Y-100297580D02*
X160333000Y-100392819D01*
X160713952Y-99392819D02*
X161332999Y-99392819D01*
X161332999Y-99392819D02*
X160999666Y-99773771D01*
X160999666Y-99773771D02*
X161142523Y-99773771D01*
X161142523Y-99773771D02*
X161237761Y-99821390D01*
X161237761Y-99821390D02*
X161285380Y-99869009D01*
X161285380Y-99869009D02*
X161332999Y-99964247D01*
X161332999Y-99964247D02*
X161332999Y-100202342D01*
X161332999Y-100202342D02*
X161285380Y-100297580D01*
X161285380Y-100297580D02*
X161237761Y-100345200D01*
X161237761Y-100345200D02*
X161142523Y-100392819D01*
X161142523Y-100392819D02*
X160856809Y-100392819D01*
X160856809Y-100392819D02*
X160761571Y-100345200D01*
X160761571Y-100345200D02*
X160713952Y-100297580D01*
X170790476Y-60156819D02*
X170790476Y-59156819D01*
X170790476Y-59156819D02*
X171123809Y-59871104D01*
X171123809Y-59871104D02*
X171457142Y-59156819D01*
X171457142Y-59156819D02*
X171457142Y-60156819D01*
X171885714Y-59252057D02*
X171933333Y-59204438D01*
X171933333Y-59204438D02*
X172028571Y-59156819D01*
X172028571Y-59156819D02*
X172266666Y-59156819D01*
X172266666Y-59156819D02*
X172361904Y-59204438D01*
X172361904Y-59204438D02*
X172409523Y-59252057D01*
X172409523Y-59252057D02*
X172457142Y-59347295D01*
X172457142Y-59347295D02*
X172457142Y-59442533D01*
X172457142Y-59442533D02*
X172409523Y-59585390D01*
X172409523Y-59585390D02*
X171838095Y-60156819D01*
X171838095Y-60156819D02*
X172457142Y-60156819D01*
X157031095Y-64748819D02*
X157031095Y-65558342D01*
X157031095Y-65558342D02*
X157078714Y-65653580D01*
X157078714Y-65653580D02*
X157126333Y-65701200D01*
X157126333Y-65701200D02*
X157221571Y-65748819D01*
X157221571Y-65748819D02*
X157412047Y-65748819D01*
X157412047Y-65748819D02*
X157507285Y-65701200D01*
X157507285Y-65701200D02*
X157554904Y-65653580D01*
X157554904Y-65653580D02*
X157602523Y-65558342D01*
X157602523Y-65558342D02*
X157602523Y-64748819D01*
X158031095Y-64844057D02*
X158078714Y-64796438D01*
X158078714Y-64796438D02*
X158173952Y-64748819D01*
X158173952Y-64748819D02*
X158412047Y-64748819D01*
X158412047Y-64748819D02*
X158507285Y-64796438D01*
X158507285Y-64796438D02*
X158554904Y-64844057D01*
X158554904Y-64844057D02*
X158602523Y-64939295D01*
X158602523Y-64939295D02*
X158602523Y-65034533D01*
X158602523Y-65034533D02*
X158554904Y-65177390D01*
X158554904Y-65177390D02*
X157983476Y-65748819D01*
X157983476Y-65748819D02*
X158602523Y-65748819D01*
X158999667Y-67288819D02*
X159333000Y-68288819D01*
X159333000Y-68288819D02*
X159666333Y-67288819D01*
X160571095Y-68193580D02*
X160523476Y-68241200D01*
X160523476Y-68241200D02*
X160380619Y-68288819D01*
X160380619Y-68288819D02*
X160285381Y-68288819D01*
X160285381Y-68288819D02*
X160142524Y-68241200D01*
X160142524Y-68241200D02*
X160047286Y-68145961D01*
X160047286Y-68145961D02*
X159999667Y-68050723D01*
X159999667Y-68050723D02*
X159952048Y-67860247D01*
X159952048Y-67860247D02*
X159952048Y-67717390D01*
X159952048Y-67717390D02*
X159999667Y-67526914D01*
X159999667Y-67526914D02*
X160047286Y-67431676D01*
X160047286Y-67431676D02*
X160142524Y-67336438D01*
X160142524Y-67336438D02*
X160285381Y-67288819D01*
X160285381Y-67288819D02*
X160380619Y-67288819D01*
X160380619Y-67288819D02*
X160523476Y-67336438D01*
X160523476Y-67336438D02*
X160571095Y-67384057D01*
X161571095Y-68193580D02*
X161523476Y-68241200D01*
X161523476Y-68241200D02*
X161380619Y-68288819D01*
X161380619Y-68288819D02*
X161285381Y-68288819D01*
X161285381Y-68288819D02*
X161142524Y-68241200D01*
X161142524Y-68241200D02*
X161047286Y-68145961D01*
X161047286Y-68145961D02*
X160999667Y-68050723D01*
X160999667Y-68050723D02*
X160952048Y-67860247D01*
X160952048Y-67860247D02*
X160952048Y-67717390D01*
X160952048Y-67717390D02*
X160999667Y-67526914D01*
X160999667Y-67526914D02*
X161047286Y-67431676D01*
X161047286Y-67431676D02*
X161142524Y-67336438D01*
X161142524Y-67336438D02*
X161285381Y-67288819D01*
X161285381Y-67288819D02*
X161380619Y-67288819D01*
X161380619Y-67288819D02*
X161523476Y-67336438D01*
X161523476Y-67336438D02*
X161571095Y-67384057D01*
X159571095Y-69876438D02*
X159475857Y-69828819D01*
X159475857Y-69828819D02*
X159333000Y-69828819D01*
X159333000Y-69828819D02*
X159190143Y-69876438D01*
X159190143Y-69876438D02*
X159094905Y-69971676D01*
X159094905Y-69971676D02*
X159047286Y-70066914D01*
X159047286Y-70066914D02*
X158999667Y-70257390D01*
X158999667Y-70257390D02*
X158999667Y-70400247D01*
X158999667Y-70400247D02*
X159047286Y-70590723D01*
X159047286Y-70590723D02*
X159094905Y-70685961D01*
X159094905Y-70685961D02*
X159190143Y-70781200D01*
X159190143Y-70781200D02*
X159333000Y-70828819D01*
X159333000Y-70828819D02*
X159428238Y-70828819D01*
X159428238Y-70828819D02*
X159571095Y-70781200D01*
X159571095Y-70781200D02*
X159618714Y-70733580D01*
X159618714Y-70733580D02*
X159618714Y-70400247D01*
X159618714Y-70400247D02*
X159428238Y-70400247D01*
X160047286Y-70828819D02*
X160047286Y-69828819D01*
X160047286Y-69828819D02*
X160618714Y-70828819D01*
X160618714Y-70828819D02*
X160618714Y-69828819D01*
X161094905Y-70828819D02*
X161094905Y-69828819D01*
X161094905Y-69828819D02*
X161333000Y-69828819D01*
X161333000Y-69828819D02*
X161475857Y-69876438D01*
X161475857Y-69876438D02*
X161571095Y-69971676D01*
X161571095Y-69971676D02*
X161618714Y-70066914D01*
X161618714Y-70066914D02*
X161666333Y-70257390D01*
X161666333Y-70257390D02*
X161666333Y-70400247D01*
X161666333Y-70400247D02*
X161618714Y-70590723D01*
X161618714Y-70590723D02*
X161571095Y-70685961D01*
X161571095Y-70685961D02*
X161475857Y-70781200D01*
X161475857Y-70781200D02*
X161333000Y-70828819D01*
X161333000Y-70828819D02*
X161094905Y-70828819D01*
X159142524Y-73321200D02*
X159285381Y-73368819D01*
X159285381Y-73368819D02*
X159523476Y-73368819D01*
X159523476Y-73368819D02*
X159618714Y-73321200D01*
X159618714Y-73321200D02*
X159666333Y-73273580D01*
X159666333Y-73273580D02*
X159713952Y-73178342D01*
X159713952Y-73178342D02*
X159713952Y-73083104D01*
X159713952Y-73083104D02*
X159666333Y-72987866D01*
X159666333Y-72987866D02*
X159618714Y-72940247D01*
X159618714Y-72940247D02*
X159523476Y-72892628D01*
X159523476Y-72892628D02*
X159333000Y-72845009D01*
X159333000Y-72845009D02*
X159237762Y-72797390D01*
X159237762Y-72797390D02*
X159190143Y-72749771D01*
X159190143Y-72749771D02*
X159142524Y-72654533D01*
X159142524Y-72654533D02*
X159142524Y-72559295D01*
X159142524Y-72559295D02*
X159190143Y-72464057D01*
X159190143Y-72464057D02*
X159237762Y-72416438D01*
X159237762Y-72416438D02*
X159333000Y-72368819D01*
X159333000Y-72368819D02*
X159571095Y-72368819D01*
X159571095Y-72368819D02*
X159713952Y-72416438D01*
X160713952Y-73273580D02*
X160666333Y-73321200D01*
X160666333Y-73321200D02*
X160523476Y-73368819D01*
X160523476Y-73368819D02*
X160428238Y-73368819D01*
X160428238Y-73368819D02*
X160285381Y-73321200D01*
X160285381Y-73321200D02*
X160190143Y-73225961D01*
X160190143Y-73225961D02*
X160142524Y-73130723D01*
X160142524Y-73130723D02*
X160094905Y-72940247D01*
X160094905Y-72940247D02*
X160094905Y-72797390D01*
X160094905Y-72797390D02*
X160142524Y-72606914D01*
X160142524Y-72606914D02*
X160190143Y-72511676D01*
X160190143Y-72511676D02*
X160285381Y-72416438D01*
X160285381Y-72416438D02*
X160428238Y-72368819D01*
X160428238Y-72368819D02*
X160523476Y-72368819D01*
X160523476Y-72368819D02*
X160666333Y-72416438D01*
X160666333Y-72416438D02*
X160713952Y-72464057D01*
X161618714Y-73368819D02*
X161142524Y-73368819D01*
X161142524Y-73368819D02*
X161142524Y-72368819D01*
X159118714Y-75861200D02*
X159261571Y-75908819D01*
X159261571Y-75908819D02*
X159499666Y-75908819D01*
X159499666Y-75908819D02*
X159594904Y-75861200D01*
X159594904Y-75861200D02*
X159642523Y-75813580D01*
X159642523Y-75813580D02*
X159690142Y-75718342D01*
X159690142Y-75718342D02*
X159690142Y-75623104D01*
X159690142Y-75623104D02*
X159642523Y-75527866D01*
X159642523Y-75527866D02*
X159594904Y-75480247D01*
X159594904Y-75480247D02*
X159499666Y-75432628D01*
X159499666Y-75432628D02*
X159309190Y-75385009D01*
X159309190Y-75385009D02*
X159213952Y-75337390D01*
X159213952Y-75337390D02*
X159166333Y-75289771D01*
X159166333Y-75289771D02*
X159118714Y-75194533D01*
X159118714Y-75194533D02*
X159118714Y-75099295D01*
X159118714Y-75099295D02*
X159166333Y-75004057D01*
X159166333Y-75004057D02*
X159213952Y-74956438D01*
X159213952Y-74956438D02*
X159309190Y-74908819D01*
X159309190Y-74908819D02*
X159547285Y-74908819D01*
X159547285Y-74908819D02*
X159690142Y-74956438D01*
X160118714Y-75908819D02*
X160118714Y-74908819D01*
X160118714Y-74908819D02*
X160356809Y-74908819D01*
X160356809Y-74908819D02*
X160499666Y-74956438D01*
X160499666Y-74956438D02*
X160594904Y-75051676D01*
X160594904Y-75051676D02*
X160642523Y-75146914D01*
X160642523Y-75146914D02*
X160690142Y-75337390D01*
X160690142Y-75337390D02*
X160690142Y-75480247D01*
X160690142Y-75480247D02*
X160642523Y-75670723D01*
X160642523Y-75670723D02*
X160594904Y-75765961D01*
X160594904Y-75765961D02*
X160499666Y-75861200D01*
X160499666Y-75861200D02*
X160356809Y-75908819D01*
X160356809Y-75908819D02*
X160118714Y-75908819D01*
X161071095Y-75623104D02*
X161547285Y-75623104D01*
X160975857Y-75908819D02*
X161309190Y-74908819D01*
X161309190Y-74908819D02*
X161642523Y-75908819D01*
X159071095Y-77448819D02*
X159737761Y-78448819D01*
X159737761Y-77448819D02*
X159071095Y-78448819D01*
X160118714Y-78448819D02*
X160118714Y-77448819D01*
X160118714Y-77448819D02*
X160356809Y-77448819D01*
X160356809Y-77448819D02*
X160499666Y-77496438D01*
X160499666Y-77496438D02*
X160594904Y-77591676D01*
X160594904Y-77591676D02*
X160642523Y-77686914D01*
X160642523Y-77686914D02*
X160690142Y-77877390D01*
X160690142Y-77877390D02*
X160690142Y-78020247D01*
X160690142Y-78020247D02*
X160642523Y-78210723D01*
X160642523Y-78210723D02*
X160594904Y-78305961D01*
X160594904Y-78305961D02*
X160499666Y-78401200D01*
X160499666Y-78401200D02*
X160356809Y-78448819D01*
X160356809Y-78448819D02*
X160118714Y-78448819D01*
X161071095Y-78163104D02*
X161547285Y-78163104D01*
X160975857Y-78448819D02*
X161309190Y-77448819D01*
X161309190Y-77448819D02*
X161642523Y-78448819D01*
X159094905Y-79988819D02*
X159761571Y-80988819D01*
X159761571Y-79988819D02*
X159094905Y-80988819D01*
X160713952Y-80893580D02*
X160666333Y-80941200D01*
X160666333Y-80941200D02*
X160523476Y-80988819D01*
X160523476Y-80988819D02*
X160428238Y-80988819D01*
X160428238Y-80988819D02*
X160285381Y-80941200D01*
X160285381Y-80941200D02*
X160190143Y-80845961D01*
X160190143Y-80845961D02*
X160142524Y-80750723D01*
X160142524Y-80750723D02*
X160094905Y-80560247D01*
X160094905Y-80560247D02*
X160094905Y-80417390D01*
X160094905Y-80417390D02*
X160142524Y-80226914D01*
X160142524Y-80226914D02*
X160190143Y-80131676D01*
X160190143Y-80131676D02*
X160285381Y-80036438D01*
X160285381Y-80036438D02*
X160428238Y-79988819D01*
X160428238Y-79988819D02*
X160523476Y-79988819D01*
X160523476Y-79988819D02*
X160666333Y-80036438D01*
X160666333Y-80036438D02*
X160713952Y-80084057D01*
X161618714Y-80988819D02*
X161142524Y-80988819D01*
X161142524Y-80988819D02*
X161142524Y-79988819D01*
X159094905Y-83243104D02*
X159571095Y-83243104D01*
X158999667Y-83528819D02*
X159333000Y-82528819D01*
X159333000Y-82528819D02*
X159666333Y-83528819D01*
X159999667Y-83528819D02*
X159999667Y-82528819D01*
X159999667Y-82528819D02*
X160237762Y-82528819D01*
X160237762Y-82528819D02*
X160380619Y-82576438D01*
X160380619Y-82576438D02*
X160475857Y-82671676D01*
X160475857Y-82671676D02*
X160523476Y-82766914D01*
X160523476Y-82766914D02*
X160571095Y-82957390D01*
X160571095Y-82957390D02*
X160571095Y-83100247D01*
X160571095Y-83100247D02*
X160523476Y-83290723D01*
X160523476Y-83290723D02*
X160475857Y-83385961D01*
X160475857Y-83385961D02*
X160380619Y-83481200D01*
X160380619Y-83481200D02*
X160237762Y-83528819D01*
X160237762Y-83528819D02*
X159999667Y-83528819D01*
X160999667Y-83528819D02*
X160999667Y-82528819D01*
X160999667Y-82528819D02*
X161237762Y-82528819D01*
X161237762Y-82528819D02*
X161380619Y-82576438D01*
X161380619Y-82576438D02*
X161475857Y-82671676D01*
X161475857Y-82671676D02*
X161523476Y-82766914D01*
X161523476Y-82766914D02*
X161571095Y-82957390D01*
X161571095Y-82957390D02*
X161571095Y-83100247D01*
X161571095Y-83100247D02*
X161523476Y-83290723D01*
X161523476Y-83290723D02*
X161475857Y-83385961D01*
X161475857Y-83385961D02*
X161380619Y-83481200D01*
X161380619Y-83481200D02*
X161237762Y-83528819D01*
X161237762Y-83528819D02*
X160999667Y-83528819D01*
X159428238Y-86068819D02*
X159428238Y-85068819D01*
X159904428Y-86068819D02*
X159904428Y-85068819D01*
X159904428Y-85068819D02*
X160475856Y-86068819D01*
X160475856Y-86068819D02*
X160475856Y-85068819D01*
X160809190Y-85068819D02*
X161380618Y-85068819D01*
X161094904Y-86068819D02*
X161094904Y-85068819D01*
X122761904Y-59104438D02*
X122666666Y-59056819D01*
X122666666Y-59056819D02*
X122523809Y-59056819D01*
X122523809Y-59056819D02*
X122380952Y-59104438D01*
X122380952Y-59104438D02*
X122285714Y-59199676D01*
X122285714Y-59199676D02*
X122238095Y-59294914D01*
X122238095Y-59294914D02*
X122190476Y-59485390D01*
X122190476Y-59485390D02*
X122190476Y-59628247D01*
X122190476Y-59628247D02*
X122238095Y-59818723D01*
X122238095Y-59818723D02*
X122285714Y-59913961D01*
X122285714Y-59913961D02*
X122380952Y-60009200D01*
X122380952Y-60009200D02*
X122523809Y-60056819D01*
X122523809Y-60056819D02*
X122619047Y-60056819D01*
X122619047Y-60056819D02*
X122761904Y-60009200D01*
X122761904Y-60009200D02*
X122809523Y-59961580D01*
X122809523Y-59961580D02*
X122809523Y-59628247D01*
X122809523Y-59628247D02*
X122619047Y-59628247D01*
X123238095Y-60056819D02*
X123238095Y-59056819D01*
X123238095Y-59056819D02*
X123809523Y-60056819D01*
X123809523Y-60056819D02*
X123809523Y-59056819D01*
X124285714Y-60056819D02*
X124285714Y-59056819D01*
X124285714Y-59056819D02*
X124523809Y-59056819D01*
X124523809Y-59056819D02*
X124666666Y-59104438D01*
X124666666Y-59104438D02*
X124761904Y-59199676D01*
X124761904Y-59199676D02*
X124809523Y-59294914D01*
X124809523Y-59294914D02*
X124857142Y-59485390D01*
X124857142Y-59485390D02*
X124857142Y-59628247D01*
X124857142Y-59628247D02*
X124809523Y-59818723D01*
X124809523Y-59818723D02*
X124761904Y-59913961D01*
X124761904Y-59913961D02*
X124666666Y-60009200D01*
X124666666Y-60009200D02*
X124523809Y-60056819D01*
X124523809Y-60056819D02*
X124285714Y-60056819D01*
X125238095Y-59152057D02*
X125285714Y-59104438D01*
X125285714Y-59104438D02*
X125380952Y-59056819D01*
X125380952Y-59056819D02*
X125619047Y-59056819D01*
X125619047Y-59056819D02*
X125714285Y-59104438D01*
X125714285Y-59104438D02*
X125761904Y-59152057D01*
X125761904Y-59152057D02*
X125809523Y-59247295D01*
X125809523Y-59247295D02*
X125809523Y-59342533D01*
X125809523Y-59342533D02*
X125761904Y-59485390D01*
X125761904Y-59485390D02*
X125190476Y-60056819D01*
X125190476Y-60056819D02*
X125809523Y-60056819D01*
X118990476Y-60056819D02*
X118990476Y-59056819D01*
X118990476Y-59056819D02*
X119323809Y-59771104D01*
X119323809Y-59771104D02*
X119657142Y-59056819D01*
X119657142Y-59056819D02*
X119657142Y-60056819D01*
X120038095Y-59056819D02*
X120657142Y-59056819D01*
X120657142Y-59056819D02*
X120323809Y-59437771D01*
X120323809Y-59437771D02*
X120466666Y-59437771D01*
X120466666Y-59437771D02*
X120561904Y-59485390D01*
X120561904Y-59485390D02*
X120609523Y-59533009D01*
X120609523Y-59533009D02*
X120657142Y-59628247D01*
X120657142Y-59628247D02*
X120657142Y-59866342D01*
X120657142Y-59866342D02*
X120609523Y-59961580D01*
X120609523Y-59961580D02*
X120561904Y-60009200D01*
X120561904Y-60009200D02*
X120466666Y-60056819D01*
X120466666Y-60056819D02*
X120180952Y-60056819D01*
X120180952Y-60056819D02*
X120085714Y-60009200D01*
X120085714Y-60009200D02*
X120038095Y-59961580D01*
X165461904Y-59204438D02*
X165366666Y-59156819D01*
X165366666Y-59156819D02*
X165223809Y-59156819D01*
X165223809Y-59156819D02*
X165080952Y-59204438D01*
X165080952Y-59204438D02*
X164985714Y-59299676D01*
X164985714Y-59299676D02*
X164938095Y-59394914D01*
X164938095Y-59394914D02*
X164890476Y-59585390D01*
X164890476Y-59585390D02*
X164890476Y-59728247D01*
X164890476Y-59728247D02*
X164938095Y-59918723D01*
X164938095Y-59918723D02*
X164985714Y-60013961D01*
X164985714Y-60013961D02*
X165080952Y-60109200D01*
X165080952Y-60109200D02*
X165223809Y-60156819D01*
X165223809Y-60156819D02*
X165319047Y-60156819D01*
X165319047Y-60156819D02*
X165461904Y-60109200D01*
X165461904Y-60109200D02*
X165509523Y-60061580D01*
X165509523Y-60061580D02*
X165509523Y-59728247D01*
X165509523Y-59728247D02*
X165319047Y-59728247D01*
X165938095Y-60156819D02*
X165938095Y-59156819D01*
X165938095Y-59156819D02*
X166509523Y-60156819D01*
X166509523Y-60156819D02*
X166509523Y-59156819D01*
X166985714Y-60156819D02*
X166985714Y-59156819D01*
X166985714Y-59156819D02*
X167223809Y-59156819D01*
X167223809Y-59156819D02*
X167366666Y-59204438D01*
X167366666Y-59204438D02*
X167461904Y-59299676D01*
X167461904Y-59299676D02*
X167509523Y-59394914D01*
X167509523Y-59394914D02*
X167557142Y-59585390D01*
X167557142Y-59585390D02*
X167557142Y-59728247D01*
X167557142Y-59728247D02*
X167509523Y-59918723D01*
X167509523Y-59918723D02*
X167461904Y-60013961D01*
X167461904Y-60013961D02*
X167366666Y-60109200D01*
X167366666Y-60109200D02*
X167223809Y-60156819D01*
X167223809Y-60156819D02*
X166985714Y-60156819D01*
X168414285Y-59490152D02*
X168414285Y-60156819D01*
X168176190Y-59109200D02*
X167938095Y-59823485D01*
X167938095Y-59823485D02*
X168557142Y-59823485D01*
X169990476Y-121056819D02*
X169990476Y-120056819D01*
X169990476Y-120056819D02*
X170323809Y-120771104D01*
X170323809Y-120771104D02*
X170657142Y-120056819D01*
X170657142Y-120056819D02*
X170657142Y-121056819D01*
X171657142Y-121056819D02*
X171085714Y-121056819D01*
X171371428Y-121056819D02*
X171371428Y-120056819D01*
X171371428Y-120056819D02*
X171276190Y-120199676D01*
X171276190Y-120199676D02*
X171180952Y-120294914D01*
X171180952Y-120294914D02*
X171085714Y-120342533D01*
X120490476Y-119956819D02*
X120490476Y-118956819D01*
X120490476Y-118956819D02*
X120823809Y-119671104D01*
X120823809Y-119671104D02*
X121157142Y-118956819D01*
X121157142Y-118956819D02*
X121157142Y-119956819D01*
X122061904Y-119290152D02*
X122061904Y-119956819D01*
X121823809Y-118909200D02*
X121585714Y-119623485D01*
X121585714Y-119623485D02*
X122204761Y-119623485D01*
D11*
X118720000Y-66525000D02*
X129789000Y-66525000D01*
X118720000Y-66525000D02*
X147230000Y-66525000D01*
X118720000Y-117475000D02*
X118720000Y-66525000D01*
X118720000Y-117475000D02*
X118720000Y-66525000D01*
X118720000Y-117475000D02*
X124090000Y-117475000D01*
X124090000Y-117475000D02*
X141780000Y-117475000D01*
X129789000Y-66525000D02*
X136500000Y-66525000D01*
X136500000Y-66525000D02*
X147230000Y-66525000D01*
X141780000Y-117475000D02*
X147230000Y-117475000D01*
X147230000Y-66525000D02*
X147230000Y-117475000D01*
X147230000Y-66525000D02*
X147230000Y-117475000D01*
X147230000Y-117475000D02*
X118720000Y-117475000D01*
D12*
X118250000Y-76485000D02*
G75*
G02*
X118050000Y-76485000I-100000J0D01*
G01*
X118050000Y-76485000D02*
G75*
G02*
X118250000Y-76485000I100000J0D01*
G01*
D13*
X118800000Y-126800000D02*
X121200000Y-126800000D01*
X118800000Y-129200000D02*
X118800000Y-126800000D01*
X121200000Y-126800000D02*
X121200000Y-129200000D01*
X121200000Y-129200000D02*
X118800000Y-129200000D01*
X169493000Y-126800000D02*
X171893000Y-126800000D01*
X169493000Y-129200000D02*
X169493000Y-126800000D01*
X171893000Y-126800000D02*
X171893000Y-129200000D01*
X171893000Y-129200000D02*
X169493000Y-129200000D01*
X155253000Y-88000000D02*
X170747000Y-88000000D01*
X155253000Y-101462000D02*
X155253000Y-88000000D01*
X170747000Y-88000000D02*
X170747000Y-101462000D01*
X170747000Y-101462000D02*
X155253000Y-101462000D01*
X169493000Y-60800000D02*
X171893000Y-60800000D01*
X169493000Y-63200000D02*
X169493000Y-60800000D01*
X171893000Y-60800000D02*
X171893000Y-63200000D01*
X171893000Y-63200000D02*
X169493000Y-63200000D01*
X155253000Y-66310000D02*
X171763000Y-66310000D01*
X155253000Y-86884000D02*
X155253000Y-66310000D01*
X171763000Y-66310000D02*
X171763000Y-86884000D01*
X171763000Y-86884000D02*
X155253000Y-86884000D01*
X170590832Y-68596000D02*
G75*
G02*
X167855168Y-68596000I-1367832J0D01*
G01*
X167855168Y-68596000D02*
G75*
G02*
X170590832Y-68596000I1367832J0D01*
G01*
X170590832Y-84598000D02*
G75*
G02*
X167855168Y-84598000I-1367832J0D01*
G01*
X167855168Y-84598000D02*
G75*
G02*
X170590832Y-84598000I1367832J0D01*
G01*
X122800000Y-60800000D02*
X125200000Y-60800000D01*
X122800000Y-63200000D02*
X122800000Y-60800000D01*
X125200000Y-60800000D02*
X125200000Y-63200000D01*
X125200000Y-63200000D02*
X122800000Y-63200000D01*
X118800000Y-60800000D02*
X121200000Y-60800000D01*
X118800000Y-63200000D02*
X118800000Y-60800000D01*
X121200000Y-60800000D02*
X121200000Y-63200000D01*
X121200000Y-63200000D02*
X118800000Y-63200000D01*
X165493000Y-60800000D02*
X167893000Y-60800000D01*
X165493000Y-63200000D02*
X165493000Y-60800000D01*
X167893000Y-60800000D02*
X167893000Y-63200000D01*
X167893000Y-63200000D02*
X165493000Y-63200000D01*
X169493000Y-121800000D02*
X171893000Y-121800000D01*
X169493000Y-124200000D02*
X169493000Y-121800000D01*
X171893000Y-121800000D02*
X171893000Y-124200000D01*
X171893000Y-124200000D02*
X169493000Y-124200000D01*
X118800000Y-120800000D02*
X121200000Y-120800000D01*
X118800000Y-123200000D02*
X118800000Y-120800000D01*
X121200000Y-120800000D02*
X121200000Y-123200000D01*
X121200000Y-123200000D02*
X118800000Y-123200000D01*
%LPC*%
G36*
X120341408Y-132283626D02*
G01*
X120562519Y-132342872D01*
X120774005Y-132430473D01*
X120972248Y-132544928D01*
X121153855Y-132684280D01*
X121315720Y-132846145D01*
X121455072Y-133027752D01*
X121569527Y-133225995D01*
X121657128Y-133437481D01*
X121716374Y-133658592D01*
X121746253Y-133885545D01*
X121746253Y-134114455D01*
X121716374Y-134341408D01*
X121657128Y-134562519D01*
X121569527Y-134774005D01*
X121455072Y-134972248D01*
X121315720Y-135153855D01*
X121153855Y-135315720D01*
X120972248Y-135455072D01*
X120774005Y-135569527D01*
X120562519Y-135657128D01*
X120341408Y-135716374D01*
X120114455Y-135746253D01*
X119885545Y-135746253D01*
X119658592Y-135716374D01*
X119437481Y-135657128D01*
X119225995Y-135569527D01*
X119027752Y-135455072D01*
X118846145Y-135315720D01*
X118684280Y-135153855D01*
X118544928Y-134972248D01*
X118430473Y-134774005D01*
X118342872Y-134562519D01*
X118283626Y-134341408D01*
X118253747Y-134114455D01*
X118253747Y-133885545D01*
X118283626Y-133658592D01*
X118342872Y-133437481D01*
X118430473Y-133225995D01*
X118544928Y-133027752D01*
X118684280Y-132846145D01*
X118846145Y-132684280D01*
X119027752Y-132544928D01*
X119225995Y-132430473D01*
X119437481Y-132342872D01*
X119658592Y-132283626D01*
X119885545Y-132253747D01*
X120114455Y-132253747D01*
X120341408Y-132283626D01*
G37*
G36*
X170341408Y-132283626D02*
G01*
X170562519Y-132342872D01*
X170774005Y-132430473D01*
X170972248Y-132544928D01*
X171153855Y-132684280D01*
X171315720Y-132846145D01*
X171455072Y-133027752D01*
X171569527Y-133225995D01*
X171657128Y-133437481D01*
X171716374Y-133658592D01*
X171746253Y-133885545D01*
X171746253Y-134114455D01*
X171716374Y-134341408D01*
X171657128Y-134562519D01*
X171569527Y-134774005D01*
X171455072Y-134972248D01*
X171315720Y-135153855D01*
X171153855Y-135315720D01*
X170972248Y-135455072D01*
X170774005Y-135569527D01*
X170562519Y-135657128D01*
X170341408Y-135716374D01*
X170114455Y-135746253D01*
X169885545Y-135746253D01*
X169658592Y-135716374D01*
X169437481Y-135657128D01*
X169225995Y-135569527D01*
X169027752Y-135455072D01*
X168846145Y-135315720D01*
X168684280Y-135153855D01*
X168544928Y-134972248D01*
X168430473Y-134774005D01*
X168342872Y-134562519D01*
X168283626Y-134341408D01*
X168253747Y-134114455D01*
X168253747Y-133885545D01*
X168283626Y-133658592D01*
X168342872Y-133437481D01*
X168430473Y-133225995D01*
X168544928Y-133027752D01*
X168684280Y-132846145D01*
X168846145Y-132684280D01*
X169027752Y-132544928D01*
X169225995Y-132430473D01*
X169437481Y-132342872D01*
X169658592Y-132283626D01*
X169885545Y-132253747D01*
X170114455Y-132253747D01*
X170341408Y-132283626D01*
G37*
G36*
X121000000Y-129000000D02*
G01*
X119000000Y-129000000D01*
X119000000Y-127000000D01*
X121000000Y-127000000D01*
X121000000Y-129000000D01*
G37*
G36*
X171693000Y-129000000D02*
G01*
X169693000Y-129000000D01*
X169693000Y-127000000D01*
X171693000Y-127000000D01*
X171693000Y-129000000D01*
G37*
G36*
X171693000Y-124000000D02*
G01*
X169693000Y-124000000D01*
X169693000Y-122000000D01*
X171693000Y-122000000D01*
X171693000Y-124000000D01*
G37*
G36*
X121000000Y-123000000D02*
G01*
X119000000Y-123000000D01*
X119000000Y-121000000D01*
X121000000Y-121000000D01*
X121000000Y-123000000D01*
G37*
G36*
X121070168Y-114016445D02*
G01*
X121294025Y-114089181D01*
X121503748Y-114196040D01*
X121694172Y-114334391D01*
X121860609Y-114500828D01*
X121998960Y-114691252D01*
X122105819Y-114900975D01*
X122178555Y-115124832D01*
X122215376Y-115357311D01*
X122215376Y-115592689D01*
X122178555Y-115825168D01*
X122105819Y-116049025D01*
X121998960Y-116258748D01*
X121860609Y-116449172D01*
X121694172Y-116615609D01*
X121503748Y-116753960D01*
X121294025Y-116860819D01*
X121070168Y-116933555D01*
X120837689Y-116970376D01*
X120602311Y-116970376D01*
X120369832Y-116933555D01*
X120145975Y-116860819D01*
X119936252Y-116753960D01*
X119745828Y-116615609D01*
X119579391Y-116449172D01*
X119441040Y-116258748D01*
X119334181Y-116049025D01*
X119261445Y-115825168D01*
X119224624Y-115592689D01*
X119224624Y-115357311D01*
X119261445Y-115124832D01*
X119334181Y-114900975D01*
X119441040Y-114691252D01*
X119579391Y-114500828D01*
X119745828Y-114334391D01*
X119936252Y-114196040D01*
X120145975Y-114089181D01*
X120369832Y-114016445D01*
X120602311Y-113979624D01*
X120837689Y-113979624D01*
X121070168Y-114016445D01*
G37*
G36*
X145580168Y-114016445D02*
G01*
X145804025Y-114089181D01*
X146013748Y-114196040D01*
X146204172Y-114334391D01*
X146370609Y-114500828D01*
X146508960Y-114691252D01*
X146615819Y-114900975D01*
X146688555Y-115124832D01*
X146725376Y-115357311D01*
X146725376Y-115592689D01*
X146688555Y-115825168D01*
X146615819Y-116049025D01*
X146508960Y-116258748D01*
X146370609Y-116449172D01*
X146204172Y-116615609D01*
X146013748Y-116753960D01*
X145804025Y-116860819D01*
X145580168Y-116933555D01*
X145347689Y-116970376D01*
X145112311Y-116970376D01*
X144879832Y-116933555D01*
X144655975Y-116860819D01*
X144446252Y-116753960D01*
X144255828Y-116615609D01*
X144089391Y-116449172D01*
X143951040Y-116258748D01*
X143844181Y-116049025D01*
X143771445Y-115825168D01*
X143734624Y-115592689D01*
X143734624Y-115357311D01*
X143771445Y-115124832D01*
X143844181Y-114900975D01*
X143951040Y-114691252D01*
X144089391Y-114500828D01*
X144255828Y-114334391D01*
X144446252Y-114196040D01*
X144655975Y-114089181D01*
X144879832Y-114016445D01*
X145112311Y-113979624D01*
X145347689Y-113979624D01*
X145580168Y-114016445D01*
G37*
G36*
X120557257Y-110973448D02*
G01*
X120721717Y-111026885D01*
X120875793Y-111105391D01*
X121015692Y-111207033D01*
X121137967Y-111329308D01*
X121239609Y-111469207D01*
X121318115Y-111623283D01*
X121371552Y-111787743D01*
X121398603Y-111958538D01*
X121398603Y-112131462D01*
X121371552Y-112302257D01*
X121318115Y-112466717D01*
X121239609Y-112620793D01*
X121137967Y-112760692D01*
X121015692Y-112882967D01*
X120875793Y-112984609D01*
X120721717Y-113063115D01*
X120557257Y-113116552D01*
X120386462Y-113143603D01*
X120213538Y-113143603D01*
X120042743Y-113116552D01*
X119878283Y-113063115D01*
X119724207Y-112984609D01*
X119584308Y-112882967D01*
X119462033Y-112760692D01*
X119360391Y-112620793D01*
X119281885Y-112466717D01*
X119228448Y-112302257D01*
X119201397Y-112131462D01*
X119201397Y-111958538D01*
X119228448Y-111787743D01*
X119281885Y-111623283D01*
X119360391Y-111469207D01*
X119462033Y-111329308D01*
X119584308Y-111207033D01*
X119724207Y-111105391D01*
X119878283Y-111026885D01*
X120042743Y-110973448D01*
X120213538Y-110946397D01*
X120386462Y-110946397D01*
X120557257Y-110973448D01*
G37*
G36*
X145957257Y-110973448D02*
G01*
X146121717Y-111026885D01*
X146275793Y-111105391D01*
X146415692Y-111207033D01*
X146537967Y-111329308D01*
X146639609Y-111469207D01*
X146718115Y-111623283D01*
X146771552Y-111787743D01*
X146798603Y-111958538D01*
X146798603Y-112131462D01*
X146771552Y-112302257D01*
X146718115Y-112466717D01*
X146639609Y-112620793D01*
X146537967Y-112760692D01*
X146415692Y-112882967D01*
X146275793Y-112984609D01*
X146121717Y-113063115D01*
X145957257Y-113116552D01*
X145786462Y-113143603D01*
X145613538Y-113143603D01*
X145442743Y-113116552D01*
X145278283Y-113063115D01*
X145124207Y-112984609D01*
X144984308Y-112882967D01*
X144862033Y-112760692D01*
X144760391Y-112620793D01*
X144681885Y-112466717D01*
X144628448Y-112302257D01*
X144601397Y-112131462D01*
X144601397Y-111958538D01*
X144628448Y-111787743D01*
X144681885Y-111623283D01*
X144760391Y-111469207D01*
X144862033Y-111329308D01*
X144984308Y-111207033D01*
X145124207Y-111105391D01*
X145278283Y-111026885D01*
X145442743Y-110973448D01*
X145613538Y-110946397D01*
X145786462Y-110946397D01*
X145957257Y-110973448D01*
G37*
G36*
X120557257Y-108433448D02*
G01*
X120721717Y-108486885D01*
X120875793Y-108565391D01*
X121015692Y-108667033D01*
X121137967Y-108789308D01*
X121239609Y-108929207D01*
X121318115Y-109083283D01*
X121371552Y-109247743D01*
X121398603Y-109418538D01*
X121398603Y-109591462D01*
X121371552Y-109762257D01*
X121318115Y-109926717D01*
X121239609Y-110080793D01*
X121137967Y-110220692D01*
X121015692Y-110342967D01*
X120875793Y-110444609D01*
X120721717Y-110523115D01*
X120557257Y-110576552D01*
X120386462Y-110603603D01*
X120213538Y-110603603D01*
X120042743Y-110576552D01*
X119878283Y-110523115D01*
X119724207Y-110444609D01*
X119584308Y-110342967D01*
X119462033Y-110220692D01*
X119360391Y-110080793D01*
X119281885Y-109926717D01*
X119228448Y-109762257D01*
X119201397Y-109591462D01*
X119201397Y-109418538D01*
X119228448Y-109247743D01*
X119281885Y-109083283D01*
X119360391Y-108929207D01*
X119462033Y-108789308D01*
X119584308Y-108667033D01*
X119724207Y-108565391D01*
X119878283Y-108486885D01*
X120042743Y-108433448D01*
X120213538Y-108406397D01*
X120386462Y-108406397D01*
X120557257Y-108433448D01*
G37*
G36*
X145957257Y-108433448D02*
G01*
X146121717Y-108486885D01*
X146275793Y-108565391D01*
X146415692Y-108667033D01*
X146537967Y-108789308D01*
X146639609Y-108929207D01*
X146718115Y-109083283D01*
X146771552Y-109247743D01*
X146798603Y-109418538D01*
X146798603Y-109591462D01*
X146771552Y-109762257D01*
X146718115Y-109926717D01*
X146639609Y-110080793D01*
X146537967Y-110220692D01*
X146415692Y-110342967D01*
X146275793Y-110444609D01*
X146121717Y-110523115D01*
X145957257Y-110576552D01*
X145786462Y-110603603D01*
X145613538Y-110603603D01*
X145442743Y-110576552D01*
X145278283Y-110523115D01*
X145124207Y-110444609D01*
X144984308Y-110342967D01*
X144862033Y-110220692D01*
X144760391Y-110080793D01*
X144681885Y-109926717D01*
X144628448Y-109762257D01*
X144601397Y-109591462D01*
X144601397Y-109418538D01*
X144628448Y-109247743D01*
X144681885Y-109083283D01*
X144760391Y-108929207D01*
X144862033Y-108789308D01*
X144984308Y-108667033D01*
X145124207Y-108565391D01*
X145278283Y-108486885D01*
X145442743Y-108433448D01*
X145613538Y-108406397D01*
X145786462Y-108406397D01*
X145957257Y-108433448D01*
G37*
G36*
X120557257Y-105893448D02*
G01*
X120721717Y-105946885D01*
X120875793Y-106025391D01*
X121015692Y-106127033D01*
X121137967Y-106249308D01*
X121239609Y-106389207D01*
X121318115Y-106543283D01*
X121371552Y-106707743D01*
X121398603Y-106878538D01*
X121398603Y-107051462D01*
X121371552Y-107222257D01*
X121318115Y-107386717D01*
X121239609Y-107540793D01*
X121137967Y-107680692D01*
X121015692Y-107802967D01*
X120875793Y-107904609D01*
X120721717Y-107983115D01*
X120557257Y-108036552D01*
X120386462Y-108063603D01*
X120213538Y-108063603D01*
X120042743Y-108036552D01*
X119878283Y-107983115D01*
X119724207Y-107904609D01*
X119584308Y-107802967D01*
X119462033Y-107680692D01*
X119360391Y-107540793D01*
X119281885Y-107386717D01*
X119228448Y-107222257D01*
X119201397Y-107051462D01*
X119201397Y-106878538D01*
X119228448Y-106707743D01*
X119281885Y-106543283D01*
X119360391Y-106389207D01*
X119462033Y-106249308D01*
X119584308Y-106127033D01*
X119724207Y-106025391D01*
X119878283Y-105946885D01*
X120042743Y-105893448D01*
X120213538Y-105866397D01*
X120386462Y-105866397D01*
X120557257Y-105893448D01*
G37*
G36*
X145957257Y-105893448D02*
G01*
X146121717Y-105946885D01*
X146275793Y-106025391D01*
X146415692Y-106127033D01*
X146537967Y-106249308D01*
X146639609Y-106389207D01*
X146718115Y-106543283D01*
X146771552Y-106707743D01*
X146798603Y-106878538D01*
X146798603Y-107051462D01*
X146771552Y-107222257D01*
X146718115Y-107386717D01*
X146639609Y-107540793D01*
X146537967Y-107680692D01*
X146415692Y-107802967D01*
X146275793Y-107904609D01*
X146121717Y-107983115D01*
X145957257Y-108036552D01*
X145786462Y-108063603D01*
X145613538Y-108063603D01*
X145442743Y-108036552D01*
X145278283Y-107983115D01*
X145124207Y-107904609D01*
X144984308Y-107802967D01*
X144862033Y-107680692D01*
X144760391Y-107540793D01*
X144681885Y-107386717D01*
X144628448Y-107222257D01*
X144601397Y-107051462D01*
X144601397Y-106878538D01*
X144628448Y-106707743D01*
X144681885Y-106543283D01*
X144760391Y-106389207D01*
X144862033Y-106249308D01*
X144984308Y-106127033D01*
X145124207Y-106025391D01*
X145278283Y-105946885D01*
X145442743Y-105893448D01*
X145613538Y-105866397D01*
X145786462Y-105866397D01*
X145957257Y-105893448D01*
G37*
G36*
X120557257Y-103353448D02*
G01*
X120721717Y-103406885D01*
X120875793Y-103485391D01*
X121015692Y-103587033D01*
X121137967Y-103709308D01*
X121239609Y-103849207D01*
X121318115Y-104003283D01*
X121371552Y-104167743D01*
X121398603Y-104338538D01*
X121398603Y-104511462D01*
X121371552Y-104682257D01*
X121318115Y-104846717D01*
X121239609Y-105000793D01*
X121137967Y-105140692D01*
X121015692Y-105262967D01*
X120875793Y-105364609D01*
X120721717Y-105443115D01*
X120557257Y-105496552D01*
X120386462Y-105523603D01*
X120213538Y-105523603D01*
X120042743Y-105496552D01*
X119878283Y-105443115D01*
X119724207Y-105364609D01*
X119584308Y-105262967D01*
X119462033Y-105140692D01*
X119360391Y-105000793D01*
X119281885Y-104846717D01*
X119228448Y-104682257D01*
X119201397Y-104511462D01*
X119201397Y-104338538D01*
X119228448Y-104167743D01*
X119281885Y-104003283D01*
X119360391Y-103849207D01*
X119462033Y-103709308D01*
X119584308Y-103587033D01*
X119724207Y-103485391D01*
X119878283Y-103406885D01*
X120042743Y-103353448D01*
X120213538Y-103326397D01*
X120386462Y-103326397D01*
X120557257Y-103353448D01*
G37*
G36*
X145957257Y-103353448D02*
G01*
X146121717Y-103406885D01*
X146275793Y-103485391D01*
X146415692Y-103587033D01*
X146537967Y-103709308D01*
X146639609Y-103849207D01*
X146718115Y-104003283D01*
X146771552Y-104167743D01*
X146798603Y-104338538D01*
X146798603Y-104511462D01*
X146771552Y-104682257D01*
X146718115Y-104846717D01*
X146639609Y-105000793D01*
X146537967Y-105140692D01*
X146415692Y-105262967D01*
X146275793Y-105364609D01*
X146121717Y-105443115D01*
X145957257Y-105496552D01*
X145786462Y-105523603D01*
X145613538Y-105523603D01*
X145442743Y-105496552D01*
X145278283Y-105443115D01*
X145124207Y-105364609D01*
X144984308Y-105262967D01*
X144862033Y-105140692D01*
X144760391Y-105000793D01*
X144681885Y-104846717D01*
X144628448Y-104682257D01*
X144601397Y-104511462D01*
X144601397Y-104338538D01*
X144628448Y-104167743D01*
X144681885Y-104003283D01*
X144760391Y-103849207D01*
X144862033Y-103709308D01*
X144984308Y-103587033D01*
X145124207Y-103485391D01*
X145278283Y-103406885D01*
X145442743Y-103353448D01*
X145613538Y-103326397D01*
X145786462Y-103326397D01*
X145957257Y-103353448D01*
G37*
G36*
X120557257Y-100813448D02*
G01*
X120721717Y-100866885D01*
X120875793Y-100945391D01*
X121015692Y-101047033D01*
X121137967Y-101169308D01*
X121239609Y-101309207D01*
X121318115Y-101463283D01*
X121371552Y-101627743D01*
X121398603Y-101798538D01*
X121398603Y-101971462D01*
X121371552Y-102142257D01*
X121318115Y-102306717D01*
X121239609Y-102460793D01*
X121137967Y-102600692D01*
X121015692Y-102722967D01*
X120875793Y-102824609D01*
X120721717Y-102903115D01*
X120557257Y-102956552D01*
X120386462Y-102983603D01*
X120213538Y-102983603D01*
X120042743Y-102956552D01*
X119878283Y-102903115D01*
X119724207Y-102824609D01*
X119584308Y-102722967D01*
X119462033Y-102600692D01*
X119360391Y-102460793D01*
X119281885Y-102306717D01*
X119228448Y-102142257D01*
X119201397Y-101971462D01*
X119201397Y-101798538D01*
X119228448Y-101627743D01*
X119281885Y-101463283D01*
X119360391Y-101309207D01*
X119462033Y-101169308D01*
X119584308Y-101047033D01*
X119724207Y-100945391D01*
X119878283Y-100866885D01*
X120042743Y-100813448D01*
X120213538Y-100786397D01*
X120386462Y-100786397D01*
X120557257Y-100813448D01*
G37*
G36*
X145957257Y-100813448D02*
G01*
X146121717Y-100866885D01*
X146275793Y-100945391D01*
X146415692Y-101047033D01*
X146537967Y-101169308D01*
X146639609Y-101309207D01*
X146718115Y-101463283D01*
X146771552Y-101627743D01*
X146798603Y-101798538D01*
X146798603Y-101971462D01*
X146771552Y-102142257D01*
X146718115Y-102306717D01*
X146639609Y-102460793D01*
X146537967Y-102600692D01*
X146415692Y-102722967D01*
X146275793Y-102824609D01*
X146121717Y-102903115D01*
X145957257Y-102956552D01*
X145786462Y-102983603D01*
X145613538Y-102983603D01*
X145442743Y-102956552D01*
X145278283Y-102903115D01*
X145124207Y-102824609D01*
X144984308Y-102722967D01*
X144862033Y-102600692D01*
X144760391Y-102460793D01*
X144681885Y-102306717D01*
X144628448Y-102142257D01*
X144601397Y-101971462D01*
X144601397Y-101798538D01*
X144628448Y-101627743D01*
X144681885Y-101463283D01*
X144760391Y-101309207D01*
X144862033Y-101169308D01*
X144984308Y-101047033D01*
X145124207Y-100945391D01*
X145278283Y-100866885D01*
X145442743Y-100813448D01*
X145613538Y-100786397D01*
X145786462Y-100786397D01*
X145957257Y-100813448D01*
G37*
G36*
X156998197Y-99208811D02*
G01*
X157136204Y-99265976D01*
X157260408Y-99348966D01*
X157366034Y-99454592D01*
X157449024Y-99578796D01*
X157506189Y-99716803D01*
X157535331Y-99863311D01*
X157535331Y-100012689D01*
X157506189Y-100159197D01*
X157449024Y-100297204D01*
X157366034Y-100421408D01*
X157260408Y-100527034D01*
X157136204Y-100610024D01*
X156998197Y-100667189D01*
X156851689Y-100696331D01*
X156702311Y-100696331D01*
X156555803Y-100667189D01*
X156417796Y-100610024D01*
X156293592Y-100527034D01*
X156187966Y-100421408D01*
X156104976Y-100297204D01*
X156047811Y-100159197D01*
X156018669Y-100012689D01*
X156018669Y-99863311D01*
X156047811Y-99716803D01*
X156104976Y-99578796D01*
X156187966Y-99454592D01*
X156293592Y-99348966D01*
X156417796Y-99265976D01*
X156555803Y-99208811D01*
X156702311Y-99179669D01*
X156851689Y-99179669D01*
X156998197Y-99208811D01*
G37*
G36*
X120557257Y-98273448D02*
G01*
X120721717Y-98326885D01*
X120875793Y-98405391D01*
X121015692Y-98507033D01*
X121137967Y-98629308D01*
X121239609Y-98769207D01*
X121318115Y-98923283D01*
X121371552Y-99087743D01*
X121398603Y-99258538D01*
X121398603Y-99431462D01*
X121371552Y-99602257D01*
X121318115Y-99766717D01*
X121239609Y-99920793D01*
X121137967Y-100060692D01*
X121015692Y-100182967D01*
X120875793Y-100284609D01*
X120721717Y-100363115D01*
X120557257Y-100416552D01*
X120386462Y-100443603D01*
X120213538Y-100443603D01*
X120042743Y-100416552D01*
X119878283Y-100363115D01*
X119724207Y-100284609D01*
X119584308Y-100182967D01*
X119462033Y-100060692D01*
X119360391Y-99920793D01*
X119281885Y-99766717D01*
X119228448Y-99602257D01*
X119201397Y-99431462D01*
X119201397Y-99258538D01*
X119228448Y-99087743D01*
X119281885Y-98923283D01*
X119360391Y-98769207D01*
X119462033Y-98629308D01*
X119584308Y-98507033D01*
X119724207Y-98405391D01*
X119878283Y-98326885D01*
X120042743Y-98273448D01*
X120213538Y-98246397D01*
X120386462Y-98246397D01*
X120557257Y-98273448D01*
G37*
G36*
X145957257Y-98273448D02*
G01*
X146121717Y-98326885D01*
X146275793Y-98405391D01*
X146415692Y-98507033D01*
X146537967Y-98629308D01*
X146639609Y-98769207D01*
X146718115Y-98923283D01*
X146771552Y-99087743D01*
X146798603Y-99258538D01*
X146798603Y-99431462D01*
X146771552Y-99602257D01*
X146718115Y-99766717D01*
X146639609Y-99920793D01*
X146537967Y-100060692D01*
X146415692Y-100182967D01*
X146275793Y-100284609D01*
X146121717Y-100363115D01*
X145957257Y-100416552D01*
X145786462Y-100443603D01*
X145613538Y-100443603D01*
X145442743Y-100416552D01*
X145278283Y-100363115D01*
X145124207Y-100284609D01*
X144984308Y-100182967D01*
X144862033Y-100060692D01*
X144760391Y-99920793D01*
X144681885Y-99766717D01*
X144628448Y-99602257D01*
X144601397Y-99431462D01*
X144601397Y-99258538D01*
X144628448Y-99087743D01*
X144681885Y-98923283D01*
X144760391Y-98769207D01*
X144862033Y-98629308D01*
X144984308Y-98507033D01*
X145124207Y-98405391D01*
X145278283Y-98326885D01*
X145442743Y-98273448D01*
X145613538Y-98246397D01*
X145786462Y-98246397D01*
X145957257Y-98273448D01*
G37*
G36*
X156998197Y-96668811D02*
G01*
X157136204Y-96725976D01*
X157260408Y-96808966D01*
X157366034Y-96914592D01*
X157449024Y-97038796D01*
X157506189Y-97176803D01*
X157535331Y-97323311D01*
X157535331Y-97472689D01*
X157506189Y-97619197D01*
X157449024Y-97757204D01*
X157366034Y-97881408D01*
X157260408Y-97987034D01*
X157136204Y-98070024D01*
X156998197Y-98127189D01*
X156851689Y-98156331D01*
X156702311Y-98156331D01*
X156555803Y-98127189D01*
X156417796Y-98070024D01*
X156293592Y-97987034D01*
X156187966Y-97881408D01*
X156104976Y-97757204D01*
X156047811Y-97619197D01*
X156018669Y-97472689D01*
X156018669Y-97323311D01*
X156047811Y-97176803D01*
X156104976Y-97038796D01*
X156187966Y-96914592D01*
X156293592Y-96808966D01*
X156417796Y-96725976D01*
X156555803Y-96668811D01*
X156702311Y-96639669D01*
X156851689Y-96639669D01*
X156998197Y-96668811D01*
G37*
G36*
X120557257Y-95733448D02*
G01*
X120721717Y-95786885D01*
X120875793Y-95865391D01*
X121015692Y-95967033D01*
X121137967Y-96089308D01*
X121239609Y-96229207D01*
X121318115Y-96383283D01*
X121371552Y-96547743D01*
X121398603Y-96718538D01*
X121398603Y-96891462D01*
X121371552Y-97062257D01*
X121318115Y-97226717D01*
X121239609Y-97380793D01*
X121137967Y-97520692D01*
X121015692Y-97642967D01*
X120875793Y-97744609D01*
X120721717Y-97823115D01*
X120557257Y-97876552D01*
X120386462Y-97903603D01*
X120213538Y-97903603D01*
X120042743Y-97876552D01*
X119878283Y-97823115D01*
X119724207Y-97744609D01*
X119584308Y-97642967D01*
X119462033Y-97520692D01*
X119360391Y-97380793D01*
X119281885Y-97226717D01*
X119228448Y-97062257D01*
X119201397Y-96891462D01*
X119201397Y-96718538D01*
X119228448Y-96547743D01*
X119281885Y-96383283D01*
X119360391Y-96229207D01*
X119462033Y-96089308D01*
X119584308Y-95967033D01*
X119724207Y-95865391D01*
X119878283Y-95786885D01*
X120042743Y-95733448D01*
X120213538Y-95706397D01*
X120386462Y-95706397D01*
X120557257Y-95733448D01*
G37*
G36*
X145957257Y-95733448D02*
G01*
X146121717Y-95786885D01*
X146275793Y-95865391D01*
X146415692Y-95967033D01*
X146537967Y-96089308D01*
X146639609Y-96229207D01*
X146718115Y-96383283D01*
X146771552Y-96547743D01*
X146798603Y-96718538D01*
X146798603Y-96891462D01*
X146771552Y-97062257D01*
X146718115Y-97226717D01*
X146639609Y-97380793D01*
X146537967Y-97520692D01*
X146415692Y-97642967D01*
X146275793Y-97744609D01*
X146121717Y-97823115D01*
X145957257Y-97876552D01*
X145786462Y-97903603D01*
X145613538Y-97903603D01*
X145442743Y-97876552D01*
X145278283Y-97823115D01*
X145124207Y-97744609D01*
X144984308Y-97642967D01*
X144862033Y-97520692D01*
X144760391Y-97380793D01*
X144681885Y-97226717D01*
X144628448Y-97062257D01*
X144601397Y-96891462D01*
X144601397Y-96718538D01*
X144628448Y-96547743D01*
X144681885Y-96383283D01*
X144760391Y-96229207D01*
X144862033Y-96089308D01*
X144984308Y-95967033D01*
X145124207Y-95865391D01*
X145278283Y-95786885D01*
X145442743Y-95733448D01*
X145613538Y-95706397D01*
X145786462Y-95706397D01*
X145957257Y-95733448D01*
G37*
G36*
X156998197Y-94128811D02*
G01*
X157136204Y-94185976D01*
X157260408Y-94268966D01*
X157366034Y-94374592D01*
X157449024Y-94498796D01*
X157506189Y-94636803D01*
X157535331Y-94783311D01*
X157535331Y-94932689D01*
X157506189Y-95079197D01*
X157449024Y-95217204D01*
X157366034Y-95341408D01*
X157260408Y-95447034D01*
X157136204Y-95530024D01*
X156998197Y-95587189D01*
X156851689Y-95616331D01*
X156702311Y-95616331D01*
X156555803Y-95587189D01*
X156417796Y-95530024D01*
X156293592Y-95447034D01*
X156187966Y-95341408D01*
X156104976Y-95217204D01*
X156047811Y-95079197D01*
X156018669Y-94932689D01*
X156018669Y-94783311D01*
X156047811Y-94636803D01*
X156104976Y-94498796D01*
X156187966Y-94374592D01*
X156293592Y-94268966D01*
X156417796Y-94185976D01*
X156555803Y-94128811D01*
X156702311Y-94099669D01*
X156851689Y-94099669D01*
X156998197Y-94128811D01*
G37*
G36*
X120557257Y-93193448D02*
G01*
X120721717Y-93246885D01*
X120875793Y-93325391D01*
X121015692Y-93427033D01*
X121137967Y-93549308D01*
X121239609Y-93689207D01*
X121318115Y-93843283D01*
X121371552Y-94007743D01*
X121398603Y-94178538D01*
X121398603Y-94351462D01*
X121371552Y-94522257D01*
X121318115Y-94686717D01*
X121239609Y-94840793D01*
X121137967Y-94980692D01*
X121015692Y-95102967D01*
X120875793Y-95204609D01*
X120721717Y-95283115D01*
X120557257Y-95336552D01*
X120386462Y-95363603D01*
X120213538Y-95363603D01*
X120042743Y-95336552D01*
X119878283Y-95283115D01*
X119724207Y-95204609D01*
X119584308Y-95102967D01*
X119462033Y-94980692D01*
X119360391Y-94840793D01*
X119281885Y-94686717D01*
X119228448Y-94522257D01*
X119201397Y-94351462D01*
X119201397Y-94178538D01*
X119228448Y-94007743D01*
X119281885Y-93843283D01*
X119360391Y-93689207D01*
X119462033Y-93549308D01*
X119584308Y-93427033D01*
X119724207Y-93325391D01*
X119878283Y-93246885D01*
X120042743Y-93193448D01*
X120213538Y-93166397D01*
X120386462Y-93166397D01*
X120557257Y-93193448D01*
G37*
G36*
X145957257Y-93193448D02*
G01*
X146121717Y-93246885D01*
X146275793Y-93325391D01*
X146415692Y-93427033D01*
X146537967Y-93549308D01*
X146639609Y-93689207D01*
X146718115Y-93843283D01*
X146771552Y-94007743D01*
X146798603Y-94178538D01*
X146798603Y-94351462D01*
X146771552Y-94522257D01*
X146718115Y-94686717D01*
X146639609Y-94840793D01*
X146537967Y-94980692D01*
X146415692Y-95102967D01*
X146275793Y-95204609D01*
X146121717Y-95283115D01*
X145957257Y-95336552D01*
X145786462Y-95363603D01*
X145613538Y-95363603D01*
X145442743Y-95336552D01*
X145278283Y-95283115D01*
X145124207Y-95204609D01*
X144984308Y-95102967D01*
X144862033Y-94980692D01*
X144760391Y-94840793D01*
X144681885Y-94686717D01*
X144628448Y-94522257D01*
X144601397Y-94351462D01*
X144601397Y-94178538D01*
X144628448Y-94007743D01*
X144681885Y-93843283D01*
X144760391Y-93689207D01*
X144862033Y-93549308D01*
X144984308Y-93427033D01*
X145124207Y-93325391D01*
X145278283Y-93246885D01*
X145442743Y-93193448D01*
X145613538Y-93166397D01*
X145786462Y-93166397D01*
X145957257Y-93193448D01*
G37*
G36*
X156998197Y-91588811D02*
G01*
X157136204Y-91645976D01*
X157260408Y-91728966D01*
X157366034Y-91834592D01*
X157449024Y-91958796D01*
X157506189Y-92096803D01*
X157535331Y-92243311D01*
X157535331Y-92392689D01*
X157506189Y-92539197D01*
X157449024Y-92677204D01*
X157366034Y-92801408D01*
X157260408Y-92907034D01*
X157136204Y-92990024D01*
X156998197Y-93047189D01*
X156851689Y-93076331D01*
X156702311Y-93076331D01*
X156555803Y-93047189D01*
X156417796Y-92990024D01*
X156293592Y-92907034D01*
X156187966Y-92801408D01*
X156104976Y-92677204D01*
X156047811Y-92539197D01*
X156018669Y-92392689D01*
X156018669Y-92243311D01*
X156047811Y-92096803D01*
X156104976Y-91958796D01*
X156187966Y-91834592D01*
X156293592Y-91728966D01*
X156417796Y-91645976D01*
X156555803Y-91588811D01*
X156702311Y-91559669D01*
X156851689Y-91559669D01*
X156998197Y-91588811D01*
G37*
G36*
X120557257Y-90653448D02*
G01*
X120721717Y-90706885D01*
X120875793Y-90785391D01*
X121015692Y-90887033D01*
X121137967Y-91009308D01*
X121239609Y-91149207D01*
X121318115Y-91303283D01*
X121371552Y-91467743D01*
X121398603Y-91638538D01*
X121398603Y-91811462D01*
X121371552Y-91982257D01*
X121318115Y-92146717D01*
X121239609Y-92300793D01*
X121137967Y-92440692D01*
X121015692Y-92562967D01*
X120875793Y-92664609D01*
X120721717Y-92743115D01*
X120557257Y-92796552D01*
X120386462Y-92823603D01*
X120213538Y-92823603D01*
X120042743Y-92796552D01*
X119878283Y-92743115D01*
X119724207Y-92664609D01*
X119584308Y-92562967D01*
X119462033Y-92440692D01*
X119360391Y-92300793D01*
X119281885Y-92146717D01*
X119228448Y-91982257D01*
X119201397Y-91811462D01*
X119201397Y-91638538D01*
X119228448Y-91467743D01*
X119281885Y-91303283D01*
X119360391Y-91149207D01*
X119462033Y-91009308D01*
X119584308Y-90887033D01*
X119724207Y-90785391D01*
X119878283Y-90706885D01*
X120042743Y-90653448D01*
X120213538Y-90626397D01*
X120386462Y-90626397D01*
X120557257Y-90653448D01*
G37*
G36*
X145957257Y-90653448D02*
G01*
X146121717Y-90706885D01*
X146275793Y-90785391D01*
X146415692Y-90887033D01*
X146537967Y-91009308D01*
X146639609Y-91149207D01*
X146718115Y-91303283D01*
X146771552Y-91467743D01*
X146798603Y-91638538D01*
X146798603Y-91811462D01*
X146771552Y-91982257D01*
X146718115Y-92146717D01*
X146639609Y-92300793D01*
X146537967Y-92440692D01*
X146415692Y-92562967D01*
X146275793Y-92664609D01*
X146121717Y-92743115D01*
X145957257Y-92796552D01*
X145786462Y-92823603D01*
X145613538Y-92823603D01*
X145442743Y-92796552D01*
X145278283Y-92743115D01*
X145124207Y-92664609D01*
X144984308Y-92562967D01*
X144862033Y-92440692D01*
X144760391Y-92300793D01*
X144681885Y-92146717D01*
X144628448Y-91982257D01*
X144601397Y-91811462D01*
X144601397Y-91638538D01*
X144628448Y-91467743D01*
X144681885Y-91303283D01*
X144760391Y-91149207D01*
X144862033Y-91009308D01*
X144984308Y-90887033D01*
X145124207Y-90785391D01*
X145278283Y-90706885D01*
X145442743Y-90653448D01*
X145613538Y-90626397D01*
X145786462Y-90626397D01*
X145957257Y-90653448D01*
G37*
G36*
X156998197Y-89048811D02*
G01*
X157136204Y-89105976D01*
X157260408Y-89188966D01*
X157366034Y-89294592D01*
X157449024Y-89418796D01*
X157506189Y-89556803D01*
X157535331Y-89703311D01*
X157535331Y-89852689D01*
X157506189Y-89999197D01*
X157449024Y-90137204D01*
X157366034Y-90261408D01*
X157260408Y-90367034D01*
X157136204Y-90450024D01*
X156998197Y-90507189D01*
X156851689Y-90536331D01*
X156702311Y-90536331D01*
X156555803Y-90507189D01*
X156417796Y-90450024D01*
X156293592Y-90367034D01*
X156187966Y-90261408D01*
X156104976Y-90137204D01*
X156047811Y-89999197D01*
X156018669Y-89852689D01*
X156018669Y-89703311D01*
X156047811Y-89556803D01*
X156104976Y-89418796D01*
X156187966Y-89294592D01*
X156293592Y-89188966D01*
X156417796Y-89105976D01*
X156555803Y-89048811D01*
X156702311Y-89019669D01*
X156851689Y-89019669D01*
X156998197Y-89048811D01*
G37*
G36*
X120557257Y-88113448D02*
G01*
X120721717Y-88166885D01*
X120875793Y-88245391D01*
X121015692Y-88347033D01*
X121137967Y-88469308D01*
X121239609Y-88609207D01*
X121318115Y-88763283D01*
X121371552Y-88927743D01*
X121398603Y-89098538D01*
X121398603Y-89271462D01*
X121371552Y-89442257D01*
X121318115Y-89606717D01*
X121239609Y-89760793D01*
X121137967Y-89900692D01*
X121015692Y-90022967D01*
X120875793Y-90124609D01*
X120721717Y-90203115D01*
X120557257Y-90256552D01*
X120386462Y-90283603D01*
X120213538Y-90283603D01*
X120042743Y-90256552D01*
X119878283Y-90203115D01*
X119724207Y-90124609D01*
X119584308Y-90022967D01*
X119462033Y-89900692D01*
X119360391Y-89760793D01*
X119281885Y-89606717D01*
X119228448Y-89442257D01*
X119201397Y-89271462D01*
X119201397Y-89098538D01*
X119228448Y-88927743D01*
X119281885Y-88763283D01*
X119360391Y-88609207D01*
X119462033Y-88469308D01*
X119584308Y-88347033D01*
X119724207Y-88245391D01*
X119878283Y-88166885D01*
X120042743Y-88113448D01*
X120213538Y-88086397D01*
X120386462Y-88086397D01*
X120557257Y-88113448D01*
G37*
G36*
X145957257Y-88113448D02*
G01*
X146121717Y-88166885D01*
X146275793Y-88245391D01*
X146415692Y-88347033D01*
X146537967Y-88469308D01*
X146639609Y-88609207D01*
X146718115Y-88763283D01*
X146771552Y-88927743D01*
X146798603Y-89098538D01*
X146798603Y-89271462D01*
X146771552Y-89442257D01*
X146718115Y-89606717D01*
X146639609Y-89760793D01*
X146537967Y-89900692D01*
X146415692Y-90022967D01*
X146275793Y-90124609D01*
X146121717Y-90203115D01*
X145957257Y-90256552D01*
X145786462Y-90283603D01*
X145613538Y-90283603D01*
X145442743Y-90256552D01*
X145278283Y-90203115D01*
X145124207Y-90124609D01*
X144984308Y-90022967D01*
X144862033Y-89900692D01*
X144760391Y-89760793D01*
X144681885Y-89606717D01*
X144628448Y-89442257D01*
X144601397Y-89271462D01*
X144601397Y-89098538D01*
X144628448Y-88927743D01*
X144681885Y-88763283D01*
X144760391Y-88609207D01*
X144862033Y-88469308D01*
X144984308Y-88347033D01*
X145124207Y-88245391D01*
X145278283Y-88166885D01*
X145442743Y-88113448D01*
X145613538Y-88086397D01*
X145786462Y-88086397D01*
X145957257Y-88113448D01*
G37*
G36*
X120557257Y-85573448D02*
G01*
X120721717Y-85626885D01*
X120875793Y-85705391D01*
X121015692Y-85807033D01*
X121137967Y-85929308D01*
X121239609Y-86069207D01*
X121318115Y-86223283D01*
X121371552Y-86387743D01*
X121398603Y-86558538D01*
X121398603Y-86731462D01*
X121371552Y-86902257D01*
X121318115Y-87066717D01*
X121239609Y-87220793D01*
X121137967Y-87360692D01*
X121015692Y-87482967D01*
X120875793Y-87584609D01*
X120721717Y-87663115D01*
X120557257Y-87716552D01*
X120386462Y-87743603D01*
X120213538Y-87743603D01*
X120042743Y-87716552D01*
X119878283Y-87663115D01*
X119724207Y-87584609D01*
X119584308Y-87482967D01*
X119462033Y-87360692D01*
X119360391Y-87220793D01*
X119281885Y-87066717D01*
X119228448Y-86902257D01*
X119201397Y-86731462D01*
X119201397Y-86558538D01*
X119228448Y-86387743D01*
X119281885Y-86223283D01*
X119360391Y-86069207D01*
X119462033Y-85929308D01*
X119584308Y-85807033D01*
X119724207Y-85705391D01*
X119878283Y-85626885D01*
X120042743Y-85573448D01*
X120213538Y-85546397D01*
X120386462Y-85546397D01*
X120557257Y-85573448D01*
G37*
G36*
X145957257Y-85573448D02*
G01*
X146121717Y-85626885D01*
X146275793Y-85705391D01*
X146415692Y-85807033D01*
X146537967Y-85929308D01*
X146639609Y-86069207D01*
X146718115Y-86223283D01*
X146771552Y-86387743D01*
X146798603Y-86558538D01*
X146798603Y-86731462D01*
X146771552Y-86902257D01*
X146718115Y-87066717D01*
X146639609Y-87220793D01*
X146537967Y-87360692D01*
X146415692Y-87482967D01*
X146275793Y-87584609D01*
X146121717Y-87663115D01*
X145957257Y-87716552D01*
X145786462Y-87743603D01*
X145613538Y-87743603D01*
X145442743Y-87716552D01*
X145278283Y-87663115D01*
X145124207Y-87584609D01*
X144984308Y-87482967D01*
X144862033Y-87360692D01*
X144760391Y-87220793D01*
X144681885Y-87066717D01*
X144628448Y-86902257D01*
X144601397Y-86731462D01*
X144601397Y-86558538D01*
X144628448Y-86387743D01*
X144681885Y-86223283D01*
X144760391Y-86069207D01*
X144862033Y-85929308D01*
X144984308Y-85807033D01*
X145124207Y-85705391D01*
X145278283Y-85626885D01*
X145442743Y-85573448D01*
X145613538Y-85546397D01*
X145786462Y-85546397D01*
X145957257Y-85573448D01*
G37*
G36*
X156744197Y-84884811D02*
G01*
X156882204Y-84941976D01*
X157006408Y-85024966D01*
X157112034Y-85130592D01*
X157195024Y-85254796D01*
X157252189Y-85392803D01*
X157281331Y-85539311D01*
X157281331Y-85688689D01*
X157252189Y-85835197D01*
X157195024Y-85973204D01*
X157112034Y-86097408D01*
X157006408Y-86203034D01*
X156882204Y-86286024D01*
X156744197Y-86343189D01*
X156597689Y-86372331D01*
X156448311Y-86372331D01*
X156301803Y-86343189D01*
X156163796Y-86286024D01*
X156039592Y-86203034D01*
X155933966Y-86097408D01*
X155850976Y-85973204D01*
X155793811Y-85835197D01*
X155764669Y-85688689D01*
X155764669Y-85539311D01*
X155793811Y-85392803D01*
X155850976Y-85254796D01*
X155933966Y-85130592D01*
X156039592Y-85024966D01*
X156163796Y-84941976D01*
X156301803Y-84884811D01*
X156448311Y-84855669D01*
X156597689Y-84855669D01*
X156744197Y-84884811D01*
G37*
G36*
X120557257Y-83033448D02*
G01*
X120721717Y-83086885D01*
X120875793Y-83165391D01*
X121015692Y-83267033D01*
X121137967Y-83389308D01*
X121239609Y-83529207D01*
X121318115Y-83683283D01*
X121371552Y-83847743D01*
X121398603Y-84018538D01*
X121398603Y-84191462D01*
X121371552Y-84362257D01*
X121318115Y-84526717D01*
X121239609Y-84680793D01*
X121137967Y-84820692D01*
X121015692Y-84942967D01*
X120875793Y-85044609D01*
X120721717Y-85123115D01*
X120557257Y-85176552D01*
X120386462Y-85203603D01*
X120213538Y-85203603D01*
X120042743Y-85176552D01*
X119878283Y-85123115D01*
X119724207Y-85044609D01*
X119584308Y-84942967D01*
X119462033Y-84820692D01*
X119360391Y-84680793D01*
X119281885Y-84526717D01*
X119228448Y-84362257D01*
X119201397Y-84191462D01*
X119201397Y-84018538D01*
X119228448Y-83847743D01*
X119281885Y-83683283D01*
X119360391Y-83529207D01*
X119462033Y-83389308D01*
X119584308Y-83267033D01*
X119724207Y-83165391D01*
X119878283Y-83086885D01*
X120042743Y-83033448D01*
X120213538Y-83006397D01*
X120386462Y-83006397D01*
X120557257Y-83033448D01*
G37*
G36*
X145957257Y-83033448D02*
G01*
X146121717Y-83086885D01*
X146275793Y-83165391D01*
X146415692Y-83267033D01*
X146537967Y-83389308D01*
X146639609Y-83529207D01*
X146718115Y-83683283D01*
X146771552Y-83847743D01*
X146798603Y-84018538D01*
X146798603Y-84191462D01*
X146771552Y-84362257D01*
X146718115Y-84526717D01*
X146639609Y-84680793D01*
X146537967Y-84820692D01*
X146415692Y-84942967D01*
X146275793Y-85044609D01*
X146121717Y-85123115D01*
X145957257Y-85176552D01*
X145786462Y-85203603D01*
X145613538Y-85203603D01*
X145442743Y-85176552D01*
X145278283Y-85123115D01*
X145124207Y-85044609D01*
X144984308Y-84942967D01*
X144862033Y-84820692D01*
X144760391Y-84680793D01*
X144681885Y-84526717D01*
X144628448Y-84362257D01*
X144601397Y-84191462D01*
X144601397Y-84018538D01*
X144628448Y-83847743D01*
X144681885Y-83683283D01*
X144760391Y-83529207D01*
X144862033Y-83389308D01*
X144984308Y-83267033D01*
X145124207Y-83165391D01*
X145278283Y-83086885D01*
X145442743Y-83033448D01*
X145613538Y-83006397D01*
X145786462Y-83006397D01*
X145957257Y-83033448D01*
G37*
G36*
X156744197Y-82344811D02*
G01*
X156882204Y-82401976D01*
X157006408Y-82484966D01*
X157112034Y-82590592D01*
X157195024Y-82714796D01*
X157252189Y-82852803D01*
X157281331Y-82999311D01*
X157281331Y-83148689D01*
X157252189Y-83295197D01*
X157195024Y-83433204D01*
X157112034Y-83557408D01*
X157006408Y-83663034D01*
X156882204Y-83746024D01*
X156744197Y-83803189D01*
X156597689Y-83832331D01*
X156448311Y-83832331D01*
X156301803Y-83803189D01*
X156163796Y-83746024D01*
X156039592Y-83663034D01*
X155933966Y-83557408D01*
X155850976Y-83433204D01*
X155793811Y-83295197D01*
X155764669Y-83148689D01*
X155764669Y-82999311D01*
X155793811Y-82852803D01*
X155850976Y-82714796D01*
X155933966Y-82590592D01*
X156039592Y-82484966D01*
X156163796Y-82401976D01*
X156301803Y-82344811D01*
X156448311Y-82315669D01*
X156597689Y-82315669D01*
X156744197Y-82344811D01*
G37*
G36*
X120557257Y-80493448D02*
G01*
X120721717Y-80546885D01*
X120875793Y-80625391D01*
X121015692Y-80727033D01*
X121137967Y-80849308D01*
X121239609Y-80989207D01*
X121318115Y-81143283D01*
X121371552Y-81307743D01*
X121398603Y-81478538D01*
X121398603Y-81651462D01*
X121371552Y-81822257D01*
X121318115Y-81986717D01*
X121239609Y-82140793D01*
X121137967Y-82280692D01*
X121015692Y-82402967D01*
X120875793Y-82504609D01*
X120721717Y-82583115D01*
X120557257Y-82636552D01*
X120386462Y-82663603D01*
X120213538Y-82663603D01*
X120042743Y-82636552D01*
X119878283Y-82583115D01*
X119724207Y-82504609D01*
X119584308Y-82402967D01*
X119462033Y-82280692D01*
X119360391Y-82140793D01*
X119281885Y-81986717D01*
X119228448Y-81822257D01*
X119201397Y-81651462D01*
X119201397Y-81478538D01*
X119228448Y-81307743D01*
X119281885Y-81143283D01*
X119360391Y-80989207D01*
X119462033Y-80849308D01*
X119584308Y-80727033D01*
X119724207Y-80625391D01*
X119878283Y-80546885D01*
X120042743Y-80493448D01*
X120213538Y-80466397D01*
X120386462Y-80466397D01*
X120557257Y-80493448D01*
G37*
G36*
X145957257Y-80493448D02*
G01*
X146121717Y-80546885D01*
X146275793Y-80625391D01*
X146415692Y-80727033D01*
X146537967Y-80849308D01*
X146639609Y-80989207D01*
X146718115Y-81143283D01*
X146771552Y-81307743D01*
X146798603Y-81478538D01*
X146798603Y-81651462D01*
X146771552Y-81822257D01*
X146718115Y-81986717D01*
X146639609Y-82140793D01*
X146537967Y-82280692D01*
X146415692Y-82402967D01*
X146275793Y-82504609D01*
X146121717Y-82583115D01*
X145957257Y-82636552D01*
X145786462Y-82663603D01*
X145613538Y-82663603D01*
X145442743Y-82636552D01*
X145278283Y-82583115D01*
X145124207Y-82504609D01*
X144984308Y-82402967D01*
X144862033Y-82280692D01*
X144760391Y-82140793D01*
X144681885Y-81986717D01*
X144628448Y-81822257D01*
X144601397Y-81651462D01*
X144601397Y-81478538D01*
X144628448Y-81307743D01*
X144681885Y-81143283D01*
X144760391Y-80989207D01*
X144862033Y-80849308D01*
X144984308Y-80727033D01*
X145124207Y-80625391D01*
X145278283Y-80546885D01*
X145442743Y-80493448D01*
X145613538Y-80466397D01*
X145786462Y-80466397D01*
X145957257Y-80493448D01*
G37*
G36*
X156744197Y-79804811D02*
G01*
X156882204Y-79861976D01*
X157006408Y-79944966D01*
X157112034Y-80050592D01*
X157195024Y-80174796D01*
X157252189Y-80312803D01*
X157281331Y-80459311D01*
X157281331Y-80608689D01*
X157252189Y-80755197D01*
X157195024Y-80893204D01*
X157112034Y-81017408D01*
X157006408Y-81123034D01*
X156882204Y-81206024D01*
X156744197Y-81263189D01*
X156597689Y-81292331D01*
X156448311Y-81292331D01*
X156301803Y-81263189D01*
X156163796Y-81206024D01*
X156039592Y-81123034D01*
X155933966Y-81017408D01*
X155850976Y-80893204D01*
X155793811Y-80755197D01*
X155764669Y-80608689D01*
X155764669Y-80459311D01*
X155793811Y-80312803D01*
X155850976Y-80174796D01*
X155933966Y-80050592D01*
X156039592Y-79944966D01*
X156163796Y-79861976D01*
X156301803Y-79804811D01*
X156448311Y-79775669D01*
X156597689Y-79775669D01*
X156744197Y-79804811D01*
G37*
G36*
X120557257Y-77953448D02*
G01*
X120721717Y-78006885D01*
X120875793Y-78085391D01*
X121015692Y-78187033D01*
X121137967Y-78309308D01*
X121239609Y-78449207D01*
X121318115Y-78603283D01*
X121371552Y-78767743D01*
X121398603Y-78938538D01*
X121398603Y-79111462D01*
X121371552Y-79282257D01*
X121318115Y-79446717D01*
X121239609Y-79600793D01*
X121137967Y-79740692D01*
X121015692Y-79862967D01*
X120875793Y-79964609D01*
X120721717Y-80043115D01*
X120557257Y-80096552D01*
X120386462Y-80123603D01*
X120213538Y-80123603D01*
X120042743Y-80096552D01*
X119878283Y-80043115D01*
X119724207Y-79964609D01*
X119584308Y-79862967D01*
X119462033Y-79740692D01*
X119360391Y-79600793D01*
X119281885Y-79446717D01*
X119228448Y-79282257D01*
X119201397Y-79111462D01*
X119201397Y-78938538D01*
X119228448Y-78767743D01*
X119281885Y-78603283D01*
X119360391Y-78449207D01*
X119462033Y-78309308D01*
X119584308Y-78187033D01*
X119724207Y-78085391D01*
X119878283Y-78006885D01*
X120042743Y-77953448D01*
X120213538Y-77926397D01*
X120386462Y-77926397D01*
X120557257Y-77953448D01*
G37*
G36*
X145957257Y-77953448D02*
G01*
X146121717Y-78006885D01*
X146275793Y-78085391D01*
X146415692Y-78187033D01*
X146537967Y-78309308D01*
X146639609Y-78449207D01*
X146718115Y-78603283D01*
X146771552Y-78767743D01*
X146798603Y-78938538D01*
X146798603Y-79111462D01*
X146771552Y-79282257D01*
X146718115Y-79446717D01*
X146639609Y-79600793D01*
X146537967Y-79740692D01*
X146415692Y-79862967D01*
X146275793Y-79964609D01*
X146121717Y-80043115D01*
X145957257Y-80096552D01*
X145786462Y-80123603D01*
X145613538Y-80123603D01*
X145442743Y-80096552D01*
X145278283Y-80043115D01*
X145124207Y-79964609D01*
X144984308Y-79862967D01*
X144862033Y-79740692D01*
X144760391Y-79600793D01*
X144681885Y-79446717D01*
X144628448Y-79282257D01*
X144601397Y-79111462D01*
X144601397Y-78938538D01*
X144628448Y-78767743D01*
X144681885Y-78603283D01*
X144760391Y-78449207D01*
X144862033Y-78309308D01*
X144984308Y-78187033D01*
X145124207Y-78085391D01*
X145278283Y-78006885D01*
X145442743Y-77953448D01*
X145613538Y-77926397D01*
X145786462Y-77926397D01*
X145957257Y-77953448D01*
G37*
G36*
X156744197Y-77264811D02*
G01*
X156882204Y-77321976D01*
X157006408Y-77404966D01*
X157112034Y-77510592D01*
X157195024Y-77634796D01*
X157252189Y-77772803D01*
X157281331Y-77919311D01*
X157281331Y-78068689D01*
X157252189Y-78215197D01*
X157195024Y-78353204D01*
X157112034Y-78477408D01*
X157006408Y-78583034D01*
X156882204Y-78666024D01*
X156744197Y-78723189D01*
X156597689Y-78752331D01*
X156448311Y-78752331D01*
X156301803Y-78723189D01*
X156163796Y-78666024D01*
X156039592Y-78583034D01*
X155933966Y-78477408D01*
X155850976Y-78353204D01*
X155793811Y-78215197D01*
X155764669Y-78068689D01*
X155764669Y-77919311D01*
X155793811Y-77772803D01*
X155850976Y-77634796D01*
X155933966Y-77510592D01*
X156039592Y-77404966D01*
X156163796Y-77321976D01*
X156301803Y-77264811D01*
X156448311Y-77235669D01*
X156597689Y-77235669D01*
X156744197Y-77264811D01*
G37*
G36*
X121339034Y-75390764D02*
G01*
X121372125Y-75412875D01*
X121394236Y-75445966D01*
X121402000Y-75485000D01*
X121402000Y-77485000D01*
X121394236Y-77524034D01*
X121372125Y-77557125D01*
X121339034Y-77579236D01*
X121300000Y-77587000D01*
X119300000Y-77587000D01*
X119260966Y-77579236D01*
X119227875Y-77557125D01*
X119205764Y-77524034D01*
X119198000Y-77485000D01*
X119198000Y-75485000D01*
X119205764Y-75445966D01*
X119227875Y-75412875D01*
X119260966Y-75390764D01*
X119300000Y-75383000D01*
X121300000Y-75383000D01*
X121339034Y-75390764D01*
G37*
G36*
X145957257Y-75413448D02*
G01*
X146121717Y-75466885D01*
X146275793Y-75545391D01*
X146415692Y-75647033D01*
X146537967Y-75769308D01*
X146639609Y-75909207D01*
X146718115Y-76063283D01*
X146771552Y-76227743D01*
X146798603Y-76398538D01*
X146798603Y-76571462D01*
X146771552Y-76742257D01*
X146718115Y-76906717D01*
X146639609Y-77060793D01*
X146537967Y-77200692D01*
X146415692Y-77322967D01*
X146275793Y-77424609D01*
X146121717Y-77503115D01*
X145957257Y-77556552D01*
X145786462Y-77583603D01*
X145613538Y-77583603D01*
X145442743Y-77556552D01*
X145278283Y-77503115D01*
X145124207Y-77424609D01*
X144984308Y-77322967D01*
X144862033Y-77200692D01*
X144760391Y-77060793D01*
X144681885Y-76906717D01*
X144628448Y-76742257D01*
X144601397Y-76571462D01*
X144601397Y-76398538D01*
X144628448Y-76227743D01*
X144681885Y-76063283D01*
X144760391Y-75909207D01*
X144862033Y-75769308D01*
X144984308Y-75647033D01*
X145124207Y-75545391D01*
X145278283Y-75466885D01*
X145442743Y-75413448D01*
X145613538Y-75386397D01*
X145786462Y-75386397D01*
X145957257Y-75413448D01*
G37*
G36*
X156744197Y-74724811D02*
G01*
X156882204Y-74781976D01*
X157006408Y-74864966D01*
X157112034Y-74970592D01*
X157195024Y-75094796D01*
X157252189Y-75232803D01*
X157281331Y-75379311D01*
X157281331Y-75528689D01*
X157252189Y-75675197D01*
X157195024Y-75813204D01*
X157112034Y-75937408D01*
X157006408Y-76043034D01*
X156882204Y-76126024D01*
X156744197Y-76183189D01*
X156597689Y-76212331D01*
X156448311Y-76212331D01*
X156301803Y-76183189D01*
X156163796Y-76126024D01*
X156039592Y-76043034D01*
X155933966Y-75937408D01*
X155850976Y-75813204D01*
X155793811Y-75675197D01*
X155764669Y-75528689D01*
X155764669Y-75379311D01*
X155793811Y-75232803D01*
X155850976Y-75094796D01*
X155933966Y-74970592D01*
X156039592Y-74864966D01*
X156163796Y-74781976D01*
X156301803Y-74724811D01*
X156448311Y-74695669D01*
X156597689Y-74695669D01*
X156744197Y-74724811D01*
G37*
G36*
X156744197Y-72184811D02*
G01*
X156882204Y-72241976D01*
X157006408Y-72324966D01*
X157112034Y-72430592D01*
X157195024Y-72554796D01*
X157252189Y-72692803D01*
X157281331Y-72839311D01*
X157281331Y-72988689D01*
X157252189Y-73135197D01*
X157195024Y-73273204D01*
X157112034Y-73397408D01*
X157006408Y-73503034D01*
X156882204Y-73586024D01*
X156744197Y-73643189D01*
X156597689Y-73672331D01*
X156448311Y-73672331D01*
X156301803Y-73643189D01*
X156163796Y-73586024D01*
X156039592Y-73503034D01*
X155933966Y-73397408D01*
X155850976Y-73273204D01*
X155793811Y-73135197D01*
X155764669Y-72988689D01*
X155764669Y-72839311D01*
X155793811Y-72692803D01*
X155850976Y-72554796D01*
X155933966Y-72430592D01*
X156039592Y-72324966D01*
X156163796Y-72241976D01*
X156301803Y-72184811D01*
X156448311Y-72155669D01*
X156597689Y-72155669D01*
X156744197Y-72184811D01*
G37*
G36*
X156744197Y-69644811D02*
G01*
X156882204Y-69701976D01*
X157006408Y-69784966D01*
X157112034Y-69890592D01*
X157195024Y-70014796D01*
X157252189Y-70152803D01*
X157281331Y-70299311D01*
X157281331Y-70448689D01*
X157252189Y-70595197D01*
X157195024Y-70733204D01*
X157112034Y-70857408D01*
X157006408Y-70963034D01*
X156882204Y-71046024D01*
X156744197Y-71103189D01*
X156597689Y-71132331D01*
X156448311Y-71132331D01*
X156301803Y-71103189D01*
X156163796Y-71046024D01*
X156039592Y-70963034D01*
X155933966Y-70857408D01*
X155850976Y-70733204D01*
X155793811Y-70595197D01*
X155764669Y-70448689D01*
X155764669Y-70299311D01*
X155793811Y-70152803D01*
X155850976Y-70014796D01*
X155933966Y-69890592D01*
X156039592Y-69784966D01*
X156163796Y-69701976D01*
X156301803Y-69644811D01*
X156448311Y-69615669D01*
X156597689Y-69615669D01*
X156744197Y-69644811D01*
G37*
G36*
X121070168Y-67066445D02*
G01*
X121294025Y-67139181D01*
X121503748Y-67246040D01*
X121694172Y-67384391D01*
X121860609Y-67550828D01*
X121998960Y-67741252D01*
X122105819Y-67950975D01*
X122178555Y-68174832D01*
X122215376Y-68407311D01*
X122215376Y-68642689D01*
X122178555Y-68875168D01*
X122105819Y-69099025D01*
X121998960Y-69308748D01*
X121860609Y-69499172D01*
X121694172Y-69665609D01*
X121503748Y-69803960D01*
X121294025Y-69910819D01*
X121070168Y-69983555D01*
X120837689Y-70020376D01*
X120602311Y-70020376D01*
X120369832Y-69983555D01*
X120145975Y-69910819D01*
X119936252Y-69803960D01*
X119745828Y-69665609D01*
X119579391Y-69499172D01*
X119441040Y-69308748D01*
X119334181Y-69099025D01*
X119261445Y-68875168D01*
X119224624Y-68642689D01*
X119224624Y-68407311D01*
X119261445Y-68174832D01*
X119334181Y-67950975D01*
X119441040Y-67741252D01*
X119579391Y-67550828D01*
X119745828Y-67384391D01*
X119936252Y-67246040D01*
X120145975Y-67139181D01*
X120369832Y-67066445D01*
X120602311Y-67029624D01*
X120837689Y-67029624D01*
X121070168Y-67066445D01*
G37*
G36*
X145580168Y-67066445D02*
G01*
X145804025Y-67139181D01*
X146013748Y-67246040D01*
X146204172Y-67384391D01*
X146370609Y-67550828D01*
X146508960Y-67741252D01*
X146615819Y-67950975D01*
X146688555Y-68174832D01*
X146725376Y-68407311D01*
X146725376Y-68642689D01*
X146688555Y-68875168D01*
X146615819Y-69099025D01*
X146508960Y-69308748D01*
X146370609Y-69499172D01*
X146204172Y-69665609D01*
X146013748Y-69803960D01*
X145804025Y-69910819D01*
X145580168Y-69983555D01*
X145347689Y-70020376D01*
X145112311Y-70020376D01*
X144879832Y-69983555D01*
X144655975Y-69910819D01*
X144446252Y-69803960D01*
X144255828Y-69665609D01*
X144089391Y-69499172D01*
X143951040Y-69308748D01*
X143844181Y-69099025D01*
X143771445Y-68875168D01*
X143734624Y-68642689D01*
X143734624Y-68407311D01*
X143771445Y-68174832D01*
X143844181Y-67950975D01*
X143951040Y-67741252D01*
X144089391Y-67550828D01*
X144255828Y-67384391D01*
X144446252Y-67246040D01*
X144655975Y-67139181D01*
X144879832Y-67066445D01*
X145112311Y-67029624D01*
X145347689Y-67029624D01*
X145580168Y-67066445D01*
G37*
G36*
X156744197Y-67104811D02*
G01*
X156882204Y-67161976D01*
X157006408Y-67244966D01*
X157112034Y-67350592D01*
X157195024Y-67474796D01*
X157252189Y-67612803D01*
X157281331Y-67759311D01*
X157281331Y-67908689D01*
X157252189Y-68055197D01*
X157195024Y-68193204D01*
X157112034Y-68317408D01*
X157006408Y-68423034D01*
X156882204Y-68506024D01*
X156744197Y-68563189D01*
X156597689Y-68592331D01*
X156448311Y-68592331D01*
X156301803Y-68563189D01*
X156163796Y-68506024D01*
X156039592Y-68423034D01*
X155933966Y-68317408D01*
X155850976Y-68193204D01*
X155793811Y-68055197D01*
X155764669Y-67908689D01*
X155764669Y-67759311D01*
X155793811Y-67612803D01*
X155850976Y-67474796D01*
X155933966Y-67350592D01*
X156039592Y-67244966D01*
X156163796Y-67161976D01*
X156301803Y-67104811D01*
X156448311Y-67075669D01*
X156597689Y-67075669D01*
X156744197Y-67104811D01*
G37*
G36*
X121000000Y-63000000D02*
G01*
X119000000Y-63000000D01*
X119000000Y-61000000D01*
X121000000Y-61000000D01*
X121000000Y-63000000D01*
G37*
G36*
X125000000Y-63000000D02*
G01*
X123000000Y-63000000D01*
X123000000Y-61000000D01*
X125000000Y-61000000D01*
X125000000Y-63000000D01*
G37*
G36*
X167693000Y-63000000D02*
G01*
X165693000Y-63000000D01*
X165693000Y-61000000D01*
X167693000Y-61000000D01*
X167693000Y-63000000D01*
G37*
G36*
X171693000Y-63000000D02*
G01*
X169693000Y-63000000D01*
X169693000Y-61000000D01*
X171693000Y-61000000D01*
X171693000Y-63000000D01*
G37*
G36*
X120341408Y-53283626D02*
G01*
X120562519Y-53342872D01*
X120774005Y-53430473D01*
X120972248Y-53544928D01*
X121153855Y-53684280D01*
X121315720Y-53846145D01*
X121455072Y-54027752D01*
X121569527Y-54225995D01*
X121657128Y-54437481D01*
X121716374Y-54658592D01*
X121746253Y-54885545D01*
X121746253Y-55114455D01*
X121716374Y-55341408D01*
X121657128Y-55562519D01*
X121569527Y-55774005D01*
X121455072Y-55972248D01*
X121315720Y-56153855D01*
X121153855Y-56315720D01*
X120972248Y-56455072D01*
X120774005Y-56569527D01*
X120562519Y-56657128D01*
X120341408Y-56716374D01*
X120114455Y-56746253D01*
X119885545Y-56746253D01*
X119658592Y-56716374D01*
X119437481Y-56657128D01*
X119225995Y-56569527D01*
X119027752Y-56455072D01*
X118846145Y-56315720D01*
X118684280Y-56153855D01*
X118544928Y-55972248D01*
X118430473Y-55774005D01*
X118342872Y-55562519D01*
X118283626Y-55341408D01*
X118253747Y-55114455D01*
X118253747Y-54885545D01*
X118283626Y-54658592D01*
X118342872Y-54437481D01*
X118430473Y-54225995D01*
X118544928Y-54027752D01*
X118684280Y-53846145D01*
X118846145Y-53684280D01*
X119027752Y-53544928D01*
X119225995Y-53430473D01*
X119437481Y-53342872D01*
X119658592Y-53283626D01*
X119885545Y-53253747D01*
X120114455Y-53253747D01*
X120341408Y-53283626D01*
G37*
G36*
X170341408Y-53283626D02*
G01*
X170562519Y-53342872D01*
X170774005Y-53430473D01*
X170972248Y-53544928D01*
X171153855Y-53684280D01*
X171315720Y-53846145D01*
X171455072Y-54027752D01*
X171569527Y-54225995D01*
X171657128Y-54437481D01*
X171716374Y-54658592D01*
X171746253Y-54885545D01*
X171746253Y-55114455D01*
X171716374Y-55341408D01*
X171657128Y-55562519D01*
X171569527Y-55774005D01*
X171455072Y-55972248D01*
X171315720Y-56153855D01*
X171153855Y-56315720D01*
X170972248Y-56455072D01*
X170774005Y-56569527D01*
X170562519Y-56657128D01*
X170341408Y-56716374D01*
X170114455Y-56746253D01*
X169885545Y-56746253D01*
X169658592Y-56716374D01*
X169437481Y-56657128D01*
X169225995Y-56569527D01*
X169027752Y-56455072D01*
X168846145Y-56315720D01*
X168684280Y-56153855D01*
X168544928Y-55972248D01*
X168430473Y-55774005D01*
X168342872Y-55562519D01*
X168283626Y-55341408D01*
X168253747Y-55114455D01*
X168253747Y-54885545D01*
X168283626Y-54658592D01*
X168342872Y-54437481D01*
X168430473Y-54225995D01*
X168544928Y-54027752D01*
X168684280Y-53846145D01*
X168846145Y-53684280D01*
X169027752Y-53544928D01*
X169225995Y-53430473D01*
X169437481Y-53342872D01*
X169658592Y-53283626D01*
X169885545Y-53253747D01*
X170114455Y-53253747D01*
X170341408Y-53283626D01*
G37*
%LPD*%
M02*
