G04 #@! TF.GenerationSoftware,KiCad,Pcbnew,10.0.4*
G04 #@! TF.CreationDate,2026-08-26T15:11:29-07:00*
G04 #@! TF.ProjectId,ESPDrone,45535044-726f-46e6-952e-6b696361645f,rev?*
G04 #@! TF.SameCoordinates,Original*
G04 #@! TF.FileFunction,Copper,L4,Bot*
G04 #@! TF.FilePolarity,Positive*
%FSLAX46Y46*%
G04 Gerber Fmt 4.6, Leading zero omitted, Abs format (unit mm)*
G04 Created by KiCad (PCBNEW 10.0.4) date 2026-08-26 15:11:29*
%MOMM*%
%LPD*%
G01*
G04 APERTURE LIST*
G04 #@! TA.AperFunction,ComponentPad*
%ADD10R,2.000000X2.000000*%
G04 #@! TD*
G04 #@! TA.AperFunction,ComponentPad*
%ADD11C,2.000000*%
G04 #@! TD*
G04 #@! TA.AperFunction,ComponentPad*
%ADD12C,1.524000*%
G04 #@! TD*
G04 #@! TA.AperFunction,Conductor*
%ADD13C,0.200000*%
G04 #@! TD*
G04 APERTURE END LIST*
D10*
X120300000Y-76485000D03*
D11*
X120300000Y-79025000D03*
X120300000Y-81565000D03*
X120300000Y-84105000D03*
X120300000Y-86645000D03*
X120300000Y-89185000D03*
X120300000Y-91725000D03*
X120300000Y-94265000D03*
X120300000Y-96805000D03*
X120300000Y-99345000D03*
X120300000Y-101885000D03*
X120300000Y-104425000D03*
X120300000Y-106965000D03*
X120300000Y-109505000D03*
X120300000Y-112045000D03*
X145700000Y-112045000D03*
X145700000Y-109505000D03*
X145700000Y-106965000D03*
X145700000Y-104425000D03*
X145700000Y-101885000D03*
X145700000Y-99345000D03*
X145700000Y-96805000D03*
X145700000Y-94265000D03*
X145700000Y-91725000D03*
X145700000Y-89185000D03*
X145700000Y-86645000D03*
X145700000Y-84105000D03*
X145700000Y-81565000D03*
X145700000Y-79025000D03*
X145700000Y-76485000D03*
D10*
X120000000Y-128000000D03*
X170693000Y-128000000D03*
D12*
X156777000Y-89778000D03*
X156777000Y-92318000D03*
X156777000Y-94858000D03*
X156777000Y-97398000D03*
X156777000Y-99938000D03*
D10*
X170693000Y-62000000D03*
D12*
X156523000Y-67834000D03*
X156523000Y-70374000D03*
X156523000Y-72914000D03*
X156523000Y-75454000D03*
X156523000Y-77994000D03*
X156523000Y-80534000D03*
X156523000Y-83074000D03*
X156523000Y-85614000D03*
D10*
X124000000Y-62000000D03*
X120000000Y-62000000D03*
X166693000Y-62000000D03*
X170693000Y-123000000D03*
X120000000Y-122000000D03*
D13*
X151300000Y-80677000D02*
X156523000Y-75454000D01*
X121613000Y-100572000D02*
X120300000Y-101885000D01*
X156777000Y-97398000D02*
X151398000Y-97398000D01*
X151398000Y-97398000D02*
X151300000Y-97300000D01*
X151300000Y-97300000D02*
X151300000Y-80677000D01*
X151398000Y-97398000D02*
X148224000Y-100572000D01*
X148224000Y-100572000D02*
X121613000Y-100572000D01*
X119073000Y-100572000D02*
X120300000Y-99345000D01*
X170693000Y-123000000D02*
X150805000Y-103112000D01*
X119073000Y-102393241D02*
X119073000Y-100572000D01*
X150805000Y-103112000D02*
X119791759Y-103112000D01*
X119791759Y-103112000D02*
X119073000Y-102393241D01*
X158393000Y-74300000D02*
X142805000Y-74300000D01*
X142805000Y-74300000D02*
X120300000Y-96805000D01*
X170693000Y-62000000D02*
X158393000Y-74300000D01*
X120000000Y-62000000D02*
X116000000Y-66000000D01*
X117545000Y-86645000D02*
X120300000Y-86645000D01*
X116000000Y-66000000D02*
X116000000Y-85100000D01*
X116000000Y-85100000D02*
X117545000Y-86645000D01*
G04 #@! TA.AperFunction,Conductor*
G36*
X174442539Y-50520185D02*
G01*
X174488294Y-50572989D01*
X174499500Y-50624500D01*
X174499500Y-139375500D01*
X174479815Y-139442539D01*
X174427011Y-139488294D01*
X174375500Y-139499500D01*
X115624500Y-139499500D01*
X115557461Y-139479815D01*
X115511706Y-139427011D01*
X115500500Y-139375500D01*
X115500500Y-133868872D01*
X117999500Y-133868872D01*
X117999500Y-134131127D01*
X118026123Y-134333339D01*
X118033730Y-134391116D01*
X118101602Y-134644418D01*
X118101605Y-134644428D01*
X118201953Y-134886690D01*
X118201958Y-134886700D01*
X118333075Y-135113803D01*
X118492718Y-135321851D01*
X118492726Y-135321860D01*
X118678140Y-135507274D01*
X118678148Y-135507281D01*
X118886196Y-135666924D01*
X119113299Y-135798041D01*
X119113309Y-135798046D01*
X119355571Y-135898394D01*
X119355581Y-135898398D01*
X119608884Y-135966270D01*
X119868880Y-136000500D01*
X119868887Y-136000500D01*
X120131113Y-136000500D01*
X120131120Y-136000500D01*
X120391116Y-135966270D01*
X120644419Y-135898398D01*
X120886697Y-135798043D01*
X121113803Y-135666924D01*
X121321851Y-135507282D01*
X121321855Y-135507277D01*
X121321860Y-135507274D01*
X121507274Y-135321860D01*
X121507277Y-135321855D01*
X121507282Y-135321851D01*
X121666924Y-135113803D01*
X121798043Y-134886697D01*
X121898398Y-134644419D01*
X121966270Y-134391116D01*
X122000500Y-134131120D01*
X122000500Y-133868880D01*
X122000499Y-133868872D01*
X167999500Y-133868872D01*
X167999500Y-134131127D01*
X168026123Y-134333339D01*
X168033730Y-134391116D01*
X168101602Y-134644418D01*
X168101605Y-134644428D01*
X168201953Y-134886690D01*
X168201958Y-134886700D01*
X168333075Y-135113803D01*
X168492718Y-135321851D01*
X168492726Y-135321860D01*
X168678140Y-135507274D01*
X168678148Y-135507281D01*
X168886196Y-135666924D01*
X169113299Y-135798041D01*
X169113309Y-135798046D01*
X169355571Y-135898394D01*
X169355581Y-135898398D01*
X169608884Y-135966270D01*
X169868880Y-136000500D01*
X169868887Y-136000500D01*
X170131113Y-136000500D01*
X170131120Y-136000500D01*
X170391116Y-135966270D01*
X170644419Y-135898398D01*
X170886697Y-135798043D01*
X171113803Y-135666924D01*
X171321851Y-135507282D01*
X171321855Y-135507277D01*
X171321860Y-135507274D01*
X171507274Y-135321860D01*
X171507277Y-135321855D01*
X171507282Y-135321851D01*
X171666924Y-135113803D01*
X171798043Y-134886697D01*
X171898398Y-134644419D01*
X171966270Y-134391116D01*
X172000500Y-134131120D01*
X172000500Y-133868880D01*
X171966270Y-133608884D01*
X171898398Y-133355581D01*
X171898394Y-133355571D01*
X171798046Y-133113309D01*
X171798041Y-133113299D01*
X171666924Y-132886196D01*
X171507281Y-132678148D01*
X171507274Y-132678140D01*
X171321860Y-132492726D01*
X171321851Y-132492718D01*
X171113803Y-132333075D01*
X170886700Y-132201958D01*
X170886690Y-132201953D01*
X170644428Y-132101605D01*
X170644421Y-132101603D01*
X170644419Y-132101602D01*
X170391116Y-132033730D01*
X170333339Y-132026123D01*
X170131127Y-131999500D01*
X170131120Y-131999500D01*
X169868880Y-131999500D01*
X169868872Y-131999500D01*
X169637772Y-132029926D01*
X169608884Y-132033730D01*
X169355581Y-132101602D01*
X169355571Y-132101605D01*
X169113309Y-132201953D01*
X169113299Y-132201958D01*
X168886196Y-132333075D01*
X168678148Y-132492718D01*
X168492718Y-132678148D01*
X168333075Y-132886196D01*
X168201958Y-133113299D01*
X168201953Y-133113309D01*
X168101605Y-133355571D01*
X168101602Y-133355581D01*
X168033730Y-133608885D01*
X167999500Y-133868872D01*
X122000499Y-133868872D01*
X121966270Y-133608884D01*
X121898398Y-133355581D01*
X121898394Y-133355571D01*
X121798046Y-133113309D01*
X121798041Y-133113299D01*
X121666924Y-132886196D01*
X121507281Y-132678148D01*
X121507274Y-132678140D01*
X121321860Y-132492726D01*
X121321851Y-132492718D01*
X121113803Y-132333075D01*
X120886700Y-132201958D01*
X120886690Y-132201953D01*
X120644428Y-132101605D01*
X120644421Y-132101603D01*
X120644419Y-132101602D01*
X120391116Y-132033730D01*
X120333339Y-132026123D01*
X120131127Y-131999500D01*
X120131120Y-131999500D01*
X119868880Y-131999500D01*
X119868872Y-131999500D01*
X119637772Y-132029926D01*
X119608884Y-132033730D01*
X119355581Y-132101602D01*
X119355571Y-132101605D01*
X119113309Y-132201953D01*
X119113299Y-132201958D01*
X118886196Y-132333075D01*
X118678148Y-132492718D01*
X118492718Y-132678148D01*
X118333075Y-132886196D01*
X118201958Y-133113299D01*
X118201953Y-133113309D01*
X118101605Y-133355571D01*
X118101602Y-133355581D01*
X118033730Y-133608885D01*
X117999500Y-133868872D01*
X115500500Y-133868872D01*
X115500500Y-126952155D01*
X118500000Y-126952155D01*
X118500000Y-127750000D01*
X119566988Y-127750000D01*
X119534075Y-127807007D01*
X119500000Y-127934174D01*
X119500000Y-128065826D01*
X119534075Y-128192993D01*
X119566988Y-128250000D01*
X118500000Y-128250000D01*
X118500000Y-129047844D01*
X118506401Y-129107372D01*
X118506403Y-129107379D01*
X118556645Y-129242086D01*
X118556649Y-129242093D01*
X118642809Y-129357187D01*
X118642812Y-129357190D01*
X118757906Y-129443350D01*
X118757913Y-129443354D01*
X118892620Y-129493596D01*
X118892627Y-129493598D01*
X118952155Y-129499999D01*
X118952172Y-129500000D01*
X119750000Y-129500000D01*
X119750000Y-128433012D01*
X119807007Y-128465925D01*
X119934174Y-128500000D01*
X120065826Y-128500000D01*
X120192993Y-128465925D01*
X120250000Y-128433012D01*
X120250000Y-129500000D01*
X121047828Y-129500000D01*
X121047844Y-129499999D01*
X121107372Y-129493598D01*
X121107379Y-129493596D01*
X121242086Y-129443354D01*
X121242093Y-129443350D01*
X121357187Y-129357190D01*
X121357190Y-129357187D01*
X121443350Y-129242093D01*
X121443354Y-129242086D01*
X121493596Y-129107379D01*
X121493598Y-129107372D01*
X121499999Y-129047844D01*
X121500000Y-129047827D01*
X121500000Y-128250000D01*
X120433012Y-128250000D01*
X120465925Y-128192993D01*
X120500000Y-128065826D01*
X120500000Y-127934174D01*
X120465925Y-127807007D01*
X120433012Y-127750000D01*
X121500000Y-127750000D01*
X121500000Y-126952172D01*
X121499999Y-126952155D01*
X169193000Y-126952155D01*
X169193000Y-127750000D01*
X170259988Y-127750000D01*
X170227075Y-127807007D01*
X170193000Y-127934174D01*
X170193000Y-128065826D01*
X170227075Y-128192993D01*
X170259988Y-128250000D01*
X169193000Y-128250000D01*
X169193000Y-129047844D01*
X169199401Y-129107372D01*
X169199403Y-129107379D01*
X169249645Y-129242086D01*
X169249649Y-129242093D01*
X169335809Y-129357187D01*
X169335812Y-129357190D01*
X169450906Y-129443350D01*
X169450913Y-129443354D01*
X169585620Y-129493596D01*
X169585627Y-129493598D01*
X169645155Y-129499999D01*
X169645172Y-129500000D01*
X170443000Y-129500000D01*
X170443000Y-128433012D01*
X170500007Y-128465925D01*
X170627174Y-128500000D01*
X170758826Y-128500000D01*
X170885993Y-128465925D01*
X170943000Y-128433012D01*
X170943000Y-129500000D01*
X171740828Y-129500000D01*
X171740844Y-129499999D01*
X171800372Y-129493598D01*
X171800379Y-129493596D01*
X171935086Y-129443354D01*
X171935093Y-129443350D01*
X172050187Y-129357190D01*
X172050190Y-129357187D01*
X172136350Y-129242093D01*
X172136354Y-129242086D01*
X172186596Y-129107379D01*
X172186598Y-129107372D01*
X172192999Y-129047844D01*
X172193000Y-129047827D01*
X172193000Y-128250000D01*
X171126012Y-128250000D01*
X171158925Y-128192993D01*
X171193000Y-128065826D01*
X171193000Y-127934174D01*
X171158925Y-127807007D01*
X171126012Y-127750000D01*
X172193000Y-127750000D01*
X172193000Y-126952172D01*
X172192999Y-126952155D01*
X172186598Y-126892627D01*
X172186596Y-126892620D01*
X172136354Y-126757913D01*
X172136350Y-126757906D01*
X172050190Y-126642812D01*
X172050187Y-126642809D01*
X171935093Y-126556649D01*
X171935086Y-126556645D01*
X171800379Y-126506403D01*
X171800372Y-126506401D01*
X171740844Y-126500000D01*
X170943000Y-126500000D01*
X170943000Y-127566988D01*
X170885993Y-127534075D01*
X170758826Y-127500000D01*
X170627174Y-127500000D01*
X170500007Y-127534075D01*
X170443000Y-127566988D01*
X170443000Y-126500000D01*
X169645155Y-126500000D01*
X169585627Y-126506401D01*
X169585620Y-126506403D01*
X169450913Y-126556645D01*
X169450906Y-126556649D01*
X169335812Y-126642809D01*
X169335809Y-126642812D01*
X169249649Y-126757906D01*
X169249645Y-126757913D01*
X169199403Y-126892620D01*
X169199401Y-126892627D01*
X169193000Y-126952155D01*
X121499999Y-126952155D01*
X121493598Y-126892627D01*
X121493596Y-126892620D01*
X121443354Y-126757913D01*
X121443350Y-126757906D01*
X121357190Y-126642812D01*
X121357187Y-126642809D01*
X121242093Y-126556649D01*
X121242086Y-126556645D01*
X121107379Y-126506403D01*
X121107372Y-126506401D01*
X121047844Y-126500000D01*
X120250000Y-126500000D01*
X120250000Y-127566988D01*
X120192993Y-127534075D01*
X120065826Y-127500000D01*
X119934174Y-127500000D01*
X119807007Y-127534075D01*
X119750000Y-127566988D01*
X119750000Y-126500000D01*
X118952155Y-126500000D01*
X118892627Y-126506401D01*
X118892620Y-126506403D01*
X118757913Y-126556645D01*
X118757906Y-126556649D01*
X118642812Y-126642809D01*
X118642809Y-126642812D01*
X118556649Y-126757906D01*
X118556645Y-126757913D01*
X118506403Y-126892620D01*
X118506401Y-126892627D01*
X118500000Y-126952155D01*
X115500500Y-126952155D01*
X115500500Y-120952135D01*
X118499500Y-120952135D01*
X118499500Y-123047870D01*
X118499501Y-123047876D01*
X118505908Y-123107483D01*
X118556202Y-123242328D01*
X118556206Y-123242335D01*
X118642452Y-123357544D01*
X118642455Y-123357547D01*
X118757664Y-123443793D01*
X118757671Y-123443797D01*
X118892517Y-123494091D01*
X118892516Y-123494091D01*
X118899444Y-123494835D01*
X118952127Y-123500500D01*
X121047872Y-123500499D01*
X121107483Y-123494091D01*
X121242331Y-123443796D01*
X121357546Y-123357546D01*
X121443796Y-123242331D01*
X121494091Y-123107483D01*
X121500500Y-123047873D01*
X121500499Y-120952128D01*
X121494091Y-120892517D01*
X121443796Y-120757669D01*
X121443795Y-120757668D01*
X121443793Y-120757664D01*
X121357547Y-120642455D01*
X121357544Y-120642452D01*
X121242335Y-120556206D01*
X121242328Y-120556202D01*
X121107482Y-120505908D01*
X121107483Y-120505908D01*
X121047883Y-120499501D01*
X121047881Y-120499500D01*
X121047873Y-120499500D01*
X121047864Y-120499500D01*
X118952129Y-120499500D01*
X118952123Y-120499501D01*
X118892516Y-120505908D01*
X118757671Y-120556202D01*
X118757664Y-120556206D01*
X118642455Y-120642452D01*
X118642452Y-120642455D01*
X118556206Y-120757664D01*
X118556202Y-120757671D01*
X118505908Y-120892517D01*
X118499501Y-120952116D01*
X118499501Y-120952123D01*
X118499500Y-120952135D01*
X115500500Y-120952135D01*
X115500500Y-117900000D01*
X123294314Y-117900000D01*
X142717057Y-117900000D01*
X142717057Y-117899999D01*
X142400000Y-110000000D01*
X123400000Y-110000000D01*
X123294314Y-117900000D01*
X115500500Y-117900000D01*
X115500500Y-85749097D01*
X115520185Y-85682058D01*
X115572989Y-85636303D01*
X115642147Y-85626359D01*
X115705703Y-85655384D01*
X115712181Y-85661416D01*
X117060139Y-87009374D01*
X117060149Y-87009385D01*
X117064479Y-87013715D01*
X117064480Y-87013716D01*
X117176284Y-87125520D01*
X117263095Y-87175639D01*
X117263097Y-87175641D01*
X117301151Y-87197611D01*
X117313215Y-87204577D01*
X117465943Y-87245501D01*
X117465946Y-87245501D01*
X117631653Y-87245501D01*
X117631669Y-87245500D01*
X118845932Y-87245500D01*
X118912971Y-87265185D01*
X118956416Y-87313203D01*
X119016657Y-87431433D01*
X119155483Y-87622510D01*
X119322490Y-87789517D01*
X119357127Y-87814683D01*
X119399792Y-87870013D01*
X119405771Y-87939626D01*
X119373165Y-88001421D01*
X119357130Y-88015315D01*
X119339365Y-88028222D01*
X119322488Y-88040484D01*
X119155485Y-88207487D01*
X119155485Y-88207488D01*
X119155483Y-88207490D01*
X119095862Y-88289550D01*
X119016657Y-88398566D01*
X118909433Y-88609003D01*
X118836446Y-88833631D01*
X118799500Y-89066902D01*
X118799500Y-89303097D01*
X118836446Y-89536368D01*
X118909433Y-89760996D01*
X119016657Y-89971433D01*
X119155483Y-90162510D01*
X119322490Y-90329517D01*
X119357127Y-90354683D01*
X119399792Y-90410013D01*
X119405771Y-90479626D01*
X119373165Y-90541421D01*
X119357130Y-90555315D01*
X119339365Y-90568222D01*
X119322488Y-90580484D01*
X119155485Y-90747487D01*
X119155485Y-90747488D01*
X119155483Y-90747490D01*
X119095862Y-90829550D01*
X119016657Y-90938566D01*
X118909433Y-91149003D01*
X118836446Y-91373631D01*
X118799500Y-91606902D01*
X118799500Y-91843097D01*
X118836446Y-92076368D01*
X118909433Y-92300996D01*
X118993029Y-92465061D01*
X119016657Y-92511433D01*
X119155483Y-92702510D01*
X119322490Y-92869517D01*
X119357127Y-92894683D01*
X119399792Y-92950013D01*
X119405771Y-93019626D01*
X119373165Y-93081421D01*
X119357130Y-93095315D01*
X119339365Y-93108222D01*
X119322488Y-93120484D01*
X119155485Y-93287487D01*
X119155485Y-93287488D01*
X119155483Y-93287490D01*
X119095862Y-93369550D01*
X119016657Y-93478566D01*
X118909433Y-93689003D01*
X118836446Y-93913631D01*
X118799500Y-94146902D01*
X118799500Y-94383097D01*
X118836446Y-94616368D01*
X118909433Y-94840996D01*
X119016657Y-95051433D01*
X119155483Y-95242510D01*
X119322490Y-95409517D01*
X119357127Y-95434683D01*
X119399792Y-95490013D01*
X119405771Y-95559626D01*
X119373165Y-95621421D01*
X119357130Y-95635315D01*
X119339365Y-95648222D01*
X119322488Y-95660484D01*
X119155485Y-95827487D01*
X119155485Y-95827488D01*
X119155483Y-95827490D01*
X119095862Y-95909550D01*
X119016657Y-96018566D01*
X118909433Y-96229003D01*
X118836446Y-96453631D01*
X118799500Y-96686902D01*
X118799500Y-96923097D01*
X118836446Y-97156368D01*
X118909433Y-97380996D01*
X119016657Y-97591433D01*
X119155483Y-97782510D01*
X119322490Y-97949517D01*
X119357127Y-97974683D01*
X119399792Y-98030013D01*
X119405771Y-98099626D01*
X119373165Y-98161421D01*
X119357130Y-98175315D01*
X119339365Y-98188222D01*
X119322488Y-98200484D01*
X119155485Y-98367487D01*
X119155485Y-98367488D01*
X119155483Y-98367490D01*
X119095862Y-98449550D01*
X119016657Y-98558566D01*
X118909433Y-98769003D01*
X118836446Y-98993631D01*
X118799500Y-99226902D01*
X118799500Y-99463097D01*
X118836447Y-99696369D01*
X118836447Y-99696372D01*
X118877450Y-99822564D01*
X118877884Y-99837776D01*
X118883203Y-99852036D01*
X118878861Y-99871991D01*
X118879445Y-99892405D01*
X118871356Y-99906492D01*
X118868351Y-99920308D01*
X118847201Y-99948563D01*
X118704286Y-100091478D01*
X118704285Y-100091478D01*
X118704284Y-100091479D01*
X118592481Y-100203282D01*
X118592477Y-100203287D01*
X118574956Y-100233637D01*
X118570998Y-100240493D01*
X118513423Y-100340215D01*
X118472499Y-100492943D01*
X118472499Y-100492945D01*
X118472499Y-100661046D01*
X118472500Y-100661059D01*
X118472500Y-102306571D01*
X118472499Y-102306589D01*
X118472499Y-102472295D01*
X118472498Y-102472295D01*
X118513424Y-102625030D01*
X118517147Y-102631478D01*
X118517151Y-102631483D01*
X118592477Y-102761953D01*
X118592481Y-102761958D01*
X118711349Y-102880826D01*
X118711355Y-102880831D01*
X119132158Y-103301634D01*
X119165643Y-103362957D01*
X119160659Y-103432649D01*
X119144795Y-103462201D01*
X119016657Y-103638566D01*
X118909433Y-103849003D01*
X118836446Y-104073631D01*
X118799500Y-104306902D01*
X118799500Y-104543097D01*
X118836446Y-104776368D01*
X118909433Y-105000996D01*
X119016657Y-105211433D01*
X119155483Y-105402510D01*
X119322490Y-105569517D01*
X119357127Y-105594683D01*
X119399792Y-105650013D01*
X119405771Y-105719626D01*
X119373165Y-105781421D01*
X119357130Y-105795315D01*
X119339365Y-105808222D01*
X119322488Y-105820484D01*
X119155485Y-105987487D01*
X119155485Y-105987488D01*
X119155483Y-105987490D01*
X119095862Y-106069550D01*
X119016657Y-106178566D01*
X118909433Y-106389003D01*
X118836446Y-106613631D01*
X118799500Y-106846902D01*
X118799500Y-107083097D01*
X118836446Y-107316368D01*
X118909433Y-107540996D01*
X119016657Y-107751433D01*
X119155483Y-107942510D01*
X119322490Y-108109517D01*
X119357127Y-108134683D01*
X119399792Y-108190013D01*
X119405771Y-108259626D01*
X119373165Y-108321421D01*
X119357130Y-108335315D01*
X119339365Y-108348222D01*
X119322488Y-108360484D01*
X119155485Y-108527487D01*
X119155485Y-108527488D01*
X119155483Y-108527490D01*
X119095862Y-108609550D01*
X119016657Y-108718566D01*
X118909433Y-108929003D01*
X118836446Y-109153631D01*
X118799500Y-109386902D01*
X118799500Y-109623097D01*
X118836446Y-109856368D01*
X118909433Y-110080996D01*
X119016657Y-110291433D01*
X119155483Y-110482510D01*
X119322490Y-110649517D01*
X119357127Y-110674683D01*
X119399792Y-110730013D01*
X119405771Y-110799626D01*
X119373165Y-110861421D01*
X119357130Y-110875315D01*
X119339365Y-110888222D01*
X119322488Y-110900484D01*
X119155485Y-111067487D01*
X119155485Y-111067488D01*
X119155483Y-111067490D01*
X119095862Y-111149550D01*
X119016657Y-111258566D01*
X118909433Y-111469003D01*
X118836446Y-111693631D01*
X118799500Y-111926902D01*
X118799500Y-112163097D01*
X118836446Y-112396368D01*
X118909433Y-112620996D01*
X119016657Y-112831433D01*
X119155483Y-113022510D01*
X119322490Y-113189517D01*
X119513567Y-113328343D01*
X119612991Y-113379002D01*
X119724003Y-113435566D01*
X119724005Y-113435566D01*
X119724008Y-113435568D01*
X119844412Y-113474689D01*
X119948631Y-113508553D01*
X120181903Y-113545500D01*
X120215708Y-113545500D01*
X120282747Y-113565185D01*
X120328502Y-113617989D01*
X120338446Y-113687147D01*
X120309421Y-113750703D01*
X120250643Y-113788477D01*
X120247835Y-113789265D01*
X120190418Y-113804649D01*
X120156112Y-113813842D01*
X119944123Y-113901650D01*
X119944109Y-113901657D01*
X119745382Y-114016392D01*
X119563338Y-114156081D01*
X119401081Y-114318338D01*
X119261392Y-114500382D01*
X119146657Y-114699109D01*
X119146650Y-114699123D01*
X119058842Y-114911112D01*
X118999453Y-115132759D01*
X118999451Y-115132770D01*
X118969500Y-115360258D01*
X118969500Y-115589741D01*
X118994446Y-115779215D01*
X118999452Y-115817238D01*
X118999453Y-115817240D01*
X119058842Y-116038887D01*
X119146650Y-116250876D01*
X119146657Y-116250890D01*
X119261392Y-116449617D01*
X119401081Y-116631661D01*
X119401089Y-116631670D01*
X119563330Y-116793911D01*
X119563338Y-116793918D01*
X119745382Y-116933607D01*
X119745385Y-116933608D01*
X119745388Y-116933611D01*
X119944112Y-117048344D01*
X119944117Y-117048346D01*
X119944123Y-117048349D01*
X120035480Y-117086190D01*
X120156113Y-117136158D01*
X120377762Y-117195548D01*
X120605266Y-117225500D01*
X120605273Y-117225500D01*
X120834727Y-117225500D01*
X120834734Y-117225500D01*
X121062238Y-117195548D01*
X121283887Y-117136158D01*
X121495888Y-117048344D01*
X121694612Y-116933611D01*
X121876661Y-116793919D01*
X121876665Y-116793914D01*
X121876670Y-116793911D01*
X122038911Y-116631670D01*
X122038914Y-116631665D01*
X122038919Y-116631661D01*
X122178611Y-116449612D01*
X122293344Y-116250888D01*
X122381158Y-116038887D01*
X122440548Y-115817238D01*
X122470500Y-115589734D01*
X122470500Y-115360266D01*
X122440548Y-115132762D01*
X122381158Y-114911113D01*
X122293344Y-114699112D01*
X122178611Y-114500388D01*
X122178608Y-114500385D01*
X122178607Y-114500382D01*
X122038918Y-114318338D01*
X122038911Y-114318330D01*
X121876670Y-114156089D01*
X121876661Y-114156081D01*
X121694617Y-114016392D01*
X121495890Y-113901657D01*
X121495876Y-113901650D01*
X121283887Y-113813842D01*
X121062238Y-113754452D01*
X121024215Y-113749446D01*
X120834741Y-113724500D01*
X120834734Y-113724500D01*
X120769657Y-113724500D01*
X120702618Y-113704815D01*
X120656863Y-113652011D01*
X120646919Y-113582853D01*
X120675944Y-113519297D01*
X120731338Y-113482569D01*
X120875992Y-113435568D01*
X121086433Y-113328343D01*
X121277510Y-113189517D01*
X121444517Y-113022510D01*
X121583343Y-112831433D01*
X121690568Y-112620992D01*
X121763553Y-112396368D01*
X121800500Y-112163097D01*
X121800500Y-111926902D01*
X121763553Y-111693631D01*
X121690566Y-111469003D01*
X121583342Y-111258566D01*
X121444517Y-111067490D01*
X121277510Y-110900483D01*
X121242872Y-110875317D01*
X121200207Y-110819989D01*
X121194228Y-110750375D01*
X121226833Y-110688580D01*
X121242873Y-110674682D01*
X121277510Y-110649517D01*
X121444517Y-110482510D01*
X121583343Y-110291433D01*
X121690568Y-110080992D01*
X121763553Y-109856368D01*
X121800500Y-109623097D01*
X121800500Y-109386902D01*
X121763553Y-109153631D01*
X121690566Y-108929003D01*
X121583342Y-108718566D01*
X121444517Y-108527490D01*
X121277510Y-108360483D01*
X121242872Y-108335317D01*
X121200207Y-108279989D01*
X121194228Y-108210375D01*
X121226833Y-108148580D01*
X121242873Y-108134682D01*
X121277510Y-108109517D01*
X121444517Y-107942510D01*
X121583343Y-107751433D01*
X121690568Y-107540992D01*
X121763553Y-107316368D01*
X121800500Y-107083097D01*
X121800500Y-106846902D01*
X121763553Y-106613631D01*
X121690566Y-106389003D01*
X121583342Y-106178566D01*
X121444517Y-105987490D01*
X121277510Y-105820483D01*
X121242872Y-105795317D01*
X121200207Y-105739989D01*
X121194228Y-105670375D01*
X121226833Y-105608580D01*
X121242873Y-105594682D01*
X121277510Y-105569517D01*
X121444517Y-105402510D01*
X121583343Y-105211433D01*
X121690568Y-105000992D01*
X121763553Y-104776368D01*
X121800500Y-104543097D01*
X121800500Y-104306902D01*
X121763553Y-104073631D01*
X121738991Y-103998039D01*
X121698953Y-103874817D01*
X121696959Y-103804977D01*
X121733039Y-103745144D01*
X121795740Y-103714316D01*
X121816885Y-103712500D01*
X144183115Y-103712500D01*
X144250154Y-103732185D01*
X144295909Y-103784989D01*
X144305853Y-103854147D01*
X144301047Y-103874813D01*
X144282596Y-103931597D01*
X144236446Y-104073631D01*
X144199500Y-104306902D01*
X144199500Y-104543097D01*
X144236446Y-104776368D01*
X144309433Y-105000996D01*
X144416657Y-105211433D01*
X144555483Y-105402510D01*
X144722490Y-105569517D01*
X144757127Y-105594683D01*
X144799792Y-105650013D01*
X144805771Y-105719626D01*
X144773165Y-105781421D01*
X144757130Y-105795315D01*
X144739365Y-105808222D01*
X144722488Y-105820484D01*
X144555485Y-105987487D01*
X144555485Y-105987488D01*
X144555483Y-105987490D01*
X144495862Y-106069550D01*
X144416657Y-106178566D01*
X144309433Y-106389003D01*
X144236446Y-106613631D01*
X144199500Y-106846902D01*
X144199500Y-107083097D01*
X144236446Y-107316368D01*
X144309433Y-107540996D01*
X144416657Y-107751433D01*
X144555483Y-107942510D01*
X144722490Y-108109517D01*
X144757127Y-108134683D01*
X144799792Y-108190013D01*
X144805771Y-108259626D01*
X144773165Y-108321421D01*
X144757130Y-108335315D01*
X144739365Y-108348222D01*
X144722488Y-108360484D01*
X144555485Y-108527487D01*
X144555485Y-108527488D01*
X144555483Y-108527490D01*
X144495862Y-108609550D01*
X144416657Y-108718566D01*
X144309433Y-108929003D01*
X144236446Y-109153631D01*
X144199500Y-109386902D01*
X144199500Y-109623097D01*
X144236446Y-109856368D01*
X144309433Y-110080996D01*
X144416657Y-110291433D01*
X144555483Y-110482510D01*
X144722490Y-110649517D01*
X144757127Y-110674683D01*
X144799792Y-110730013D01*
X144805771Y-110799626D01*
X144773165Y-110861421D01*
X144757130Y-110875315D01*
X144739365Y-110888222D01*
X144722488Y-110900484D01*
X144555485Y-111067487D01*
X144555485Y-111067488D01*
X144555483Y-111067490D01*
X144495862Y-111149550D01*
X144416657Y-111258566D01*
X144309433Y-111469003D01*
X144236446Y-111693631D01*
X144199500Y-111926902D01*
X144199500Y-112163097D01*
X144236446Y-112396368D01*
X144309433Y-112620996D01*
X144416657Y-112831433D01*
X144555483Y-113022510D01*
X144722490Y-113189517D01*
X144913567Y-113328343D01*
X145012991Y-113379002D01*
X145124003Y-113435566D01*
X145124005Y-113435566D01*
X145124008Y-113435568D01*
X145268662Y-113482569D01*
X145326337Y-113522007D01*
X145353535Y-113586366D01*
X145341620Y-113655212D01*
X145294376Y-113706688D01*
X145230343Y-113724500D01*
X145115258Y-113724500D01*
X144899474Y-113752910D01*
X144887762Y-113754452D01*
X144794076Y-113779554D01*
X144666112Y-113813842D01*
X144454123Y-113901650D01*
X144454109Y-113901657D01*
X144255382Y-114016392D01*
X144073338Y-114156081D01*
X143911081Y-114318338D01*
X143771392Y-114500382D01*
X143656657Y-114699109D01*
X143656650Y-114699123D01*
X143568842Y-114911112D01*
X143509453Y-115132759D01*
X143509451Y-115132770D01*
X143479500Y-115360258D01*
X143479500Y-115589741D01*
X143504446Y-115779215D01*
X143509452Y-115817238D01*
X143509453Y-115817240D01*
X143568842Y-116038887D01*
X143656650Y-116250876D01*
X143656657Y-116250890D01*
X143771392Y-116449617D01*
X143911081Y-116631661D01*
X143911089Y-116631670D01*
X144073330Y-116793911D01*
X144073338Y-116793918D01*
X144255382Y-116933607D01*
X144255385Y-116933608D01*
X144255388Y-116933611D01*
X144454112Y-117048344D01*
X144454117Y-117048346D01*
X144454123Y-117048349D01*
X144545480Y-117086190D01*
X144666113Y-117136158D01*
X144887762Y-117195548D01*
X145115266Y-117225500D01*
X145115273Y-117225500D01*
X145344727Y-117225500D01*
X145344734Y-117225500D01*
X145572238Y-117195548D01*
X145793887Y-117136158D01*
X146005888Y-117048344D01*
X146204612Y-116933611D01*
X146386661Y-116793919D01*
X146386665Y-116793914D01*
X146386670Y-116793911D01*
X146548911Y-116631670D01*
X146548914Y-116631665D01*
X146548919Y-116631661D01*
X146688611Y-116449612D01*
X146803344Y-116250888D01*
X146891158Y-116038887D01*
X146950548Y-115817238D01*
X146980500Y-115589734D01*
X146980500Y-115360266D01*
X146950548Y-115132762D01*
X146891158Y-114911113D01*
X146803344Y-114699112D01*
X146688611Y-114500388D01*
X146688608Y-114500385D01*
X146688607Y-114500382D01*
X146548918Y-114318338D01*
X146548911Y-114318330D01*
X146386670Y-114156089D01*
X146386661Y-114156081D01*
X146204617Y-114016392D01*
X146005890Y-113901657D01*
X146005876Y-113901650D01*
X145793887Y-113813842D01*
X145702197Y-113789274D01*
X145642538Y-113752910D01*
X145612009Y-113690063D01*
X145620304Y-113620688D01*
X145664789Y-113566810D01*
X145731341Y-113545535D01*
X145734292Y-113545500D01*
X145818097Y-113545500D01*
X146051368Y-113508553D01*
X146131338Y-113482569D01*
X146275992Y-113435568D01*
X146486433Y-113328343D01*
X146677510Y-113189517D01*
X146844517Y-113022510D01*
X146983343Y-112831433D01*
X147090568Y-112620992D01*
X147163553Y-112396368D01*
X147200500Y-112163097D01*
X147200500Y-111926902D01*
X147163553Y-111693631D01*
X147090566Y-111469003D01*
X146983342Y-111258566D01*
X146844517Y-111067490D01*
X146677510Y-110900483D01*
X146642872Y-110875317D01*
X146600207Y-110819989D01*
X146594228Y-110750375D01*
X146626833Y-110688580D01*
X146642873Y-110674682D01*
X146677510Y-110649517D01*
X146844517Y-110482510D01*
X146983343Y-110291433D01*
X147090568Y-110080992D01*
X147163553Y-109856368D01*
X147200500Y-109623097D01*
X147200500Y-109386902D01*
X147163553Y-109153631D01*
X147090566Y-108929003D01*
X146983342Y-108718566D01*
X146844517Y-108527490D01*
X146677510Y-108360483D01*
X146642872Y-108335317D01*
X146600207Y-108279989D01*
X146594228Y-108210375D01*
X146626833Y-108148580D01*
X146642873Y-108134682D01*
X146677510Y-108109517D01*
X146844517Y-107942510D01*
X146983343Y-107751433D01*
X147090568Y-107540992D01*
X147163553Y-107316368D01*
X147200500Y-107083097D01*
X147200500Y-106846902D01*
X147163553Y-106613631D01*
X147090566Y-106389003D01*
X146983342Y-106178566D01*
X146844517Y-105987490D01*
X146677510Y-105820483D01*
X146642872Y-105795317D01*
X146600207Y-105739989D01*
X146594228Y-105670375D01*
X146626833Y-105608580D01*
X146642873Y-105594682D01*
X146677510Y-105569517D01*
X146844517Y-105402510D01*
X146983343Y-105211433D01*
X147090568Y-105000992D01*
X147163553Y-104776368D01*
X147200500Y-104543097D01*
X147200500Y-104306902D01*
X147163553Y-104073631D01*
X147138991Y-103998039D01*
X147098953Y-103874817D01*
X147096959Y-103804977D01*
X147133039Y-103745144D01*
X147195740Y-103714316D01*
X147216885Y-103712500D01*
X150504903Y-103712500D01*
X150571942Y-103732185D01*
X150592584Y-103748819D01*
X169156181Y-122312416D01*
X169189666Y-122373739D01*
X169192500Y-122400097D01*
X169192500Y-124047870D01*
X169192501Y-124047876D01*
X169198908Y-124107483D01*
X169249202Y-124242328D01*
X169249206Y-124242335D01*
X169335452Y-124357544D01*
X169335455Y-124357547D01*
X169450664Y-124443793D01*
X169450671Y-124443797D01*
X169585517Y-124494091D01*
X169585516Y-124494091D01*
X169592444Y-124494835D01*
X169645127Y-124500500D01*
X171740872Y-124500499D01*
X171800483Y-124494091D01*
X171935331Y-124443796D01*
X172050546Y-124357546D01*
X172136796Y-124242331D01*
X172187091Y-124107483D01*
X172193500Y-124047873D01*
X172193499Y-121952128D01*
X172187091Y-121892517D01*
X172136796Y-121757669D01*
X172136795Y-121757668D01*
X172136793Y-121757664D01*
X172050547Y-121642455D01*
X172050544Y-121642452D01*
X171935335Y-121556206D01*
X171935328Y-121556202D01*
X171800482Y-121505908D01*
X171800483Y-121505908D01*
X171740883Y-121499501D01*
X171740881Y-121499500D01*
X171740873Y-121499500D01*
X171740865Y-121499500D01*
X170093097Y-121499500D01*
X170026058Y-121479815D01*
X170005416Y-121463181D01*
X151292590Y-102750355D01*
X151292588Y-102750352D01*
X151173717Y-102631481D01*
X151173716Y-102631480D01*
X151086904Y-102581360D01*
X151086904Y-102581359D01*
X151086900Y-102581358D01*
X151036785Y-102552423D01*
X150884057Y-102511499D01*
X150725943Y-102511499D01*
X150718347Y-102511499D01*
X150718331Y-102511500D01*
X147244829Y-102511500D01*
X147177790Y-102491815D01*
X147132035Y-102439011D01*
X147122091Y-102369853D01*
X147126898Y-102349182D01*
X147163552Y-102236372D01*
X147163552Y-102236371D01*
X147163553Y-102236368D01*
X147182588Y-102116184D01*
X147200500Y-102003097D01*
X147200500Y-101766902D01*
X147163553Y-101533631D01*
X147112972Y-101377961D01*
X147098953Y-101334817D01*
X147096959Y-101264977D01*
X147133039Y-101205144D01*
X147195740Y-101174316D01*
X147216885Y-101172500D01*
X148137331Y-101172500D01*
X148137347Y-101172501D01*
X148144943Y-101172501D01*
X148303054Y-101172501D01*
X148303057Y-101172501D01*
X148455785Y-101131577D01*
X148510315Y-101100094D01*
X148510316Y-101100094D01*
X148592709Y-101052524D01*
X148592708Y-101052524D01*
X148592716Y-101052520D01*
X148704520Y-100940716D01*
X148704520Y-100940714D01*
X148714724Y-100930511D01*
X148714727Y-100930506D01*
X151610416Y-98034819D01*
X151671739Y-98001334D01*
X151698097Y-97998500D01*
X155590270Y-97998500D01*
X155657309Y-98018185D01*
X155694191Y-98055866D01*
X155694349Y-98055752D01*
X155695127Y-98056823D01*
X155696000Y-98057715D01*
X155697210Y-98059690D01*
X155697213Y-98059694D01*
X155814019Y-98220464D01*
X155954536Y-98360981D01*
X156115306Y-98477787D01*
X156233832Y-98538179D01*
X156271780Y-98557515D01*
X156322576Y-98605490D01*
X156339371Y-98673311D01*
X156316833Y-98739446D01*
X156271780Y-98778485D01*
X156115305Y-98858213D01*
X155954533Y-98975021D01*
X155814021Y-99115533D01*
X155697213Y-99276305D01*
X155606994Y-99453367D01*
X155606993Y-99453370D01*
X155545587Y-99642362D01*
X155517046Y-99822564D01*
X155514500Y-99838639D01*
X155514500Y-100037361D01*
X155523072Y-100091480D01*
X155545587Y-100233637D01*
X155606993Y-100422629D01*
X155606994Y-100422632D01*
X155642820Y-100492943D01*
X155697213Y-100599694D01*
X155814019Y-100760464D01*
X155954536Y-100900981D01*
X156115306Y-101017787D01*
X156183469Y-101052518D01*
X156292367Y-101108005D01*
X156292370Y-101108006D01*
X156364916Y-101131577D01*
X156481364Y-101169413D01*
X156677639Y-101200500D01*
X156677640Y-101200500D01*
X156876360Y-101200500D01*
X156876361Y-101200500D01*
X157072636Y-101169413D01*
X157261632Y-101108005D01*
X157438694Y-101017787D01*
X157599464Y-100900981D01*
X157739981Y-100760464D01*
X157856787Y-100599694D01*
X157947005Y-100422632D01*
X158008413Y-100233636D01*
X158039500Y-100037361D01*
X158039500Y-99838639D01*
X158008413Y-99642364D01*
X157950166Y-99463097D01*
X157947006Y-99453370D01*
X157947005Y-99453367D01*
X157856786Y-99276305D01*
X157820893Y-99226902D01*
X157739981Y-99115536D01*
X157599464Y-98975019D01*
X157438694Y-98858213D01*
X157282218Y-98778484D01*
X157231423Y-98730510D01*
X157214628Y-98662689D01*
X157237165Y-98596554D01*
X157282218Y-98557515D01*
X157438694Y-98477787D01*
X157599464Y-98360981D01*
X157739981Y-98220464D01*
X157856787Y-98059694D01*
X157947005Y-97882632D01*
X158008413Y-97693636D01*
X158039500Y-97497361D01*
X158039500Y-97298639D01*
X158008413Y-97102364D01*
X157950166Y-96923097D01*
X157947006Y-96913370D01*
X157947005Y-96913367D01*
X157877937Y-96777815D01*
X157856787Y-96736306D01*
X157739981Y-96575536D01*
X157599464Y-96435019D01*
X157438694Y-96318213D01*
X157282218Y-96238484D01*
X157231423Y-96190510D01*
X157214628Y-96122689D01*
X157237165Y-96056554D01*
X157282218Y-96017515D01*
X157438694Y-95937787D01*
X157599464Y-95820981D01*
X157739981Y-95680464D01*
X157856787Y-95519694D01*
X157947005Y-95342632D01*
X158008413Y-95153636D01*
X158039500Y-94957361D01*
X158039500Y-94758639D01*
X158008413Y-94562364D01*
X157950166Y-94383097D01*
X157947006Y-94373370D01*
X157947005Y-94373367D01*
X157856786Y-94196305D01*
X157739981Y-94035536D01*
X157599464Y-93895019D01*
X157438694Y-93778213D01*
X157281667Y-93698203D01*
X157230872Y-93650229D01*
X157214077Y-93582408D01*
X157236614Y-93516273D01*
X157281669Y-93477234D01*
X157438422Y-93397364D01*
X157475716Y-93370268D01*
X156804448Y-92699000D01*
X156827160Y-92699000D01*
X156924061Y-92673036D01*
X157010940Y-92622876D01*
X157081876Y-92551940D01*
X157132036Y-92465061D01*
X157158000Y-92368160D01*
X157158000Y-92345447D01*
X157829268Y-93016715D01*
X157856362Y-92979425D01*
X157946542Y-92802437D01*
X158007924Y-92613523D01*
X158007924Y-92613520D01*
X158039000Y-92417321D01*
X158039000Y-92218678D01*
X158007924Y-92022479D01*
X158007924Y-92022476D01*
X157946542Y-91833562D01*
X157856358Y-91656567D01*
X157829268Y-91619283D01*
X157158000Y-92290551D01*
X157158000Y-92267840D01*
X157132036Y-92170939D01*
X157081876Y-92084060D01*
X157010940Y-92013124D01*
X156924061Y-91962964D01*
X156827160Y-91937000D01*
X156804447Y-91937000D01*
X157475716Y-91265731D01*
X157475715Y-91265730D01*
X157438432Y-91238641D01*
X157281668Y-91158765D01*
X157230872Y-91110790D01*
X157214077Y-91042969D01*
X157236615Y-90976834D01*
X157281667Y-90937796D01*
X157438694Y-90857787D01*
X157599464Y-90740981D01*
X157739981Y-90600464D01*
X157856787Y-90439694D01*
X157947005Y-90262632D01*
X158008413Y-90073636D01*
X158039500Y-89877361D01*
X158039500Y-89678639D01*
X158008413Y-89482364D01*
X157950166Y-89303097D01*
X157947006Y-89293370D01*
X157947005Y-89293367D01*
X157856786Y-89116305D01*
X157820893Y-89066902D01*
X157739981Y-88955536D01*
X157599464Y-88815019D01*
X157438694Y-88698213D01*
X157261632Y-88607994D01*
X157261629Y-88607993D01*
X157072637Y-88546587D01*
X156974498Y-88531043D01*
X156876361Y-88515500D01*
X156677639Y-88515500D01*
X156612214Y-88525862D01*
X156481362Y-88546587D01*
X156292370Y-88607993D01*
X156292367Y-88607994D01*
X156115305Y-88698213D01*
X155954533Y-88815021D01*
X155814021Y-88955533D01*
X155697213Y-89116305D01*
X155606994Y-89293367D01*
X155606993Y-89293370D01*
X155545587Y-89482362D01*
X155514500Y-89678639D01*
X155514500Y-89877360D01*
X155545587Y-90073637D01*
X155606993Y-90262629D01*
X155606994Y-90262632D01*
X155653897Y-90354682D01*
X155697213Y-90439694D01*
X155814019Y-90600464D01*
X155954536Y-90740981D01*
X156115306Y-90857787D01*
X156272332Y-90937796D01*
X156323127Y-90985769D01*
X156339922Y-91053590D01*
X156317385Y-91119725D01*
X156272332Y-91158764D01*
X156115566Y-91238641D01*
X156078283Y-91265729D01*
X156078282Y-91265730D01*
X156749554Y-91937000D01*
X156726840Y-91937000D01*
X156629939Y-91962964D01*
X156543060Y-92013124D01*
X156472124Y-92084060D01*
X156421964Y-92170939D01*
X156396000Y-92267840D01*
X156396000Y-92290552D01*
X155724730Y-91619282D01*
X155724729Y-91619283D01*
X155697643Y-91656564D01*
X155607457Y-91833562D01*
X155546075Y-92022476D01*
X155546075Y-92022479D01*
X155515000Y-92218678D01*
X155515000Y-92417321D01*
X155546075Y-92613520D01*
X155546075Y-92613523D01*
X155607457Y-92802437D01*
X155697641Y-92979432D01*
X155724730Y-93016715D01*
X155724731Y-93016716D01*
X156396000Y-92345447D01*
X156396000Y-92368160D01*
X156421964Y-92465061D01*
X156472124Y-92551940D01*
X156543060Y-92622876D01*
X156629939Y-92673036D01*
X156726840Y-92699000D01*
X156749553Y-92699000D01*
X156078283Y-93370268D01*
X156078283Y-93370269D01*
X156115567Y-93397358D01*
X156272331Y-93477234D01*
X156323127Y-93525209D01*
X156339922Y-93593030D01*
X156317384Y-93659165D01*
X156272331Y-93698204D01*
X156115305Y-93778213D01*
X155954533Y-93895021D01*
X155814021Y-94035533D01*
X155697213Y-94196305D01*
X155606994Y-94373367D01*
X155606993Y-94373370D01*
X155545587Y-94562362D01*
X155514500Y-94758639D01*
X155514500Y-94957360D01*
X155545587Y-95153637D01*
X155606993Y-95342629D01*
X155606994Y-95342632D01*
X155653897Y-95434682D01*
X155697213Y-95519694D01*
X155814019Y-95680464D01*
X155954536Y-95820981D01*
X156115306Y-95937787D01*
X156233832Y-95998179D01*
X156271780Y-96017515D01*
X156322576Y-96065490D01*
X156339371Y-96133311D01*
X156316833Y-96199446D01*
X156271780Y-96238485D01*
X156115305Y-96318213D01*
X155954533Y-96435021D01*
X155814021Y-96575533D01*
X155697210Y-96736309D01*
X155696000Y-96738285D01*
X155695343Y-96738878D01*
X155694349Y-96740248D01*
X155694061Y-96740039D01*
X155644190Y-96785163D01*
X155590270Y-96797500D01*
X152024500Y-96797500D01*
X151957461Y-96777815D01*
X151911706Y-96725011D01*
X151900500Y-96673500D01*
X151900500Y-80977096D01*
X151920185Y-80910057D01*
X151936814Y-80889420D01*
X155052544Y-77773689D01*
X155113865Y-77740206D01*
X155183557Y-77745190D01*
X155239490Y-77787062D01*
X155263907Y-77852526D01*
X155262697Y-77880765D01*
X155260500Y-77894639D01*
X155260500Y-78093360D01*
X155291587Y-78289637D01*
X155352993Y-78478629D01*
X155352994Y-78478632D01*
X155389234Y-78549755D01*
X155443213Y-78655694D01*
X155560019Y-78816464D01*
X155700536Y-78956981D01*
X155861306Y-79073787D01*
X155897332Y-79092143D01*
X156017780Y-79153515D01*
X156068576Y-79201490D01*
X156085371Y-79269311D01*
X156062833Y-79335446D01*
X156017780Y-79374485D01*
X155861305Y-79454213D01*
X155700533Y-79571021D01*
X155560021Y-79711533D01*
X155443213Y-79872305D01*
X155352994Y-80049367D01*
X155352993Y-80049370D01*
X155291587Y-80238362D01*
X155260500Y-80434639D01*
X155260500Y-80633360D01*
X155291587Y-80829637D01*
X155352993Y-81018629D01*
X155352994Y-81018632D01*
X155443213Y-81195694D01*
X155560019Y-81356464D01*
X155700536Y-81496981D01*
X155861306Y-81613787D01*
X155979832Y-81674179D01*
X156017780Y-81693515D01*
X156068576Y-81741490D01*
X156085371Y-81809311D01*
X156062833Y-81875446D01*
X156017780Y-81914485D01*
X155861305Y-81994213D01*
X155700533Y-82111021D01*
X155560021Y-82251533D01*
X155443213Y-82412305D01*
X155352994Y-82589367D01*
X155352993Y-82589370D01*
X155291587Y-82778362D01*
X155260500Y-82974639D01*
X155260500Y-83173360D01*
X155291587Y-83369637D01*
X155352993Y-83558629D01*
X155352994Y-83558632D01*
X155443213Y-83735694D01*
X155560019Y-83896464D01*
X155700536Y-84036981D01*
X155861306Y-84153787D01*
X155979832Y-84214179D01*
X156017780Y-84233515D01*
X156068576Y-84281490D01*
X156085371Y-84349311D01*
X156062833Y-84415446D01*
X156017780Y-84454485D01*
X155861305Y-84534213D01*
X155700533Y-84651021D01*
X155560021Y-84791533D01*
X155443213Y-84952305D01*
X155352994Y-85129367D01*
X155352993Y-85129370D01*
X155291587Y-85318362D01*
X155260500Y-85514639D01*
X155260500Y-85713360D01*
X155291587Y-85909637D01*
X155352993Y-86098629D01*
X155352994Y-86098632D01*
X155443213Y-86275694D01*
X155560019Y-86436464D01*
X155700536Y-86576981D01*
X155861306Y-86693787D01*
X155948149Y-86738035D01*
X156038367Y-86784005D01*
X156038370Y-86784006D01*
X156132866Y-86814709D01*
X156227364Y-86845413D01*
X156423639Y-86876500D01*
X156423640Y-86876500D01*
X156622360Y-86876500D01*
X156622361Y-86876500D01*
X156818636Y-86845413D01*
X157007632Y-86784005D01*
X157184694Y-86693787D01*
X157345464Y-86576981D01*
X157485981Y-86436464D01*
X157602787Y-86275694D01*
X157693005Y-86098632D01*
X157754413Y-85909636D01*
X157785500Y-85713361D01*
X157785500Y-85514639D01*
X157754413Y-85318364D01*
X157693005Y-85129368D01*
X157693005Y-85129367D01*
X157602786Y-84952305D01*
X157558560Y-84891433D01*
X157485981Y-84791536D01*
X157345464Y-84651019D01*
X157184694Y-84534213D01*
X157028218Y-84454484D01*
X156977423Y-84406510D01*
X156960628Y-84338689D01*
X156983165Y-84272554D01*
X157028218Y-84233515D01*
X157184694Y-84153787D01*
X157345464Y-84036981D01*
X157485981Y-83896464D01*
X157602787Y-83735694D01*
X157693005Y-83558632D01*
X157754413Y-83369636D01*
X157785500Y-83173361D01*
X157785500Y-82974639D01*
X157754413Y-82778364D01*
X157693005Y-82589368D01*
X157693005Y-82589367D01*
X157602786Y-82412305D01*
X157558560Y-82351433D01*
X157485981Y-82251536D01*
X157345464Y-82111019D01*
X157184694Y-81994213D01*
X157028218Y-81914484D01*
X156977423Y-81866510D01*
X156960628Y-81798689D01*
X156983165Y-81732554D01*
X157028218Y-81693515D01*
X157184694Y-81613787D01*
X157345464Y-81496981D01*
X157485981Y-81356464D01*
X157602787Y-81195694D01*
X157693005Y-81018632D01*
X157754413Y-80829636D01*
X157785500Y-80633361D01*
X157785500Y-80434639D01*
X157754413Y-80238364D01*
X157723709Y-80143866D01*
X157693006Y-80049370D01*
X157693005Y-80049367D01*
X157613894Y-79894105D01*
X157602787Y-79872306D01*
X157485981Y-79711536D01*
X157345464Y-79571019D01*
X157184694Y-79454213D01*
X157028218Y-79374484D01*
X156977423Y-79326510D01*
X156960628Y-79258689D01*
X156983165Y-79192554D01*
X157028218Y-79153515D01*
X157184694Y-79073787D01*
X157345464Y-78956981D01*
X157485981Y-78816464D01*
X157602787Y-78655694D01*
X157693005Y-78478632D01*
X157754413Y-78289636D01*
X157785500Y-78093361D01*
X157785500Y-77894639D01*
X157754413Y-77698364D01*
X157723709Y-77603866D01*
X157693006Y-77509370D01*
X157693005Y-77509367D01*
X157602786Y-77332305D01*
X157558560Y-77271433D01*
X157485981Y-77171536D01*
X157345464Y-77031019D01*
X157184694Y-76914213D01*
X157028218Y-76834484D01*
X156977423Y-76786510D01*
X156960628Y-76718689D01*
X156983165Y-76652554D01*
X157028218Y-76613515D01*
X157184694Y-76533787D01*
X157345464Y-76416981D01*
X157485981Y-76276464D01*
X157602787Y-76115694D01*
X157693005Y-75938632D01*
X157754413Y-75749636D01*
X157785500Y-75553361D01*
X157785500Y-75354639D01*
X157754413Y-75158364D01*
X157737303Y-75105703D01*
X157723369Y-75062818D01*
X157721374Y-74992976D01*
X157757455Y-74933144D01*
X157820156Y-74902316D01*
X157841300Y-74900500D01*
X158306331Y-74900500D01*
X158306347Y-74900501D01*
X158313943Y-74900501D01*
X158472054Y-74900501D01*
X158472057Y-74900501D01*
X158624785Y-74859577D01*
X158674904Y-74830639D01*
X158761716Y-74780520D01*
X158873520Y-74668716D01*
X158873520Y-74668714D01*
X158883728Y-74658507D01*
X158883730Y-74658504D01*
X170005416Y-63536818D01*
X170066739Y-63503333D01*
X170093097Y-63500499D01*
X171740871Y-63500499D01*
X171740872Y-63500499D01*
X171800483Y-63494091D01*
X171935331Y-63443796D01*
X172050546Y-63357546D01*
X172136796Y-63242331D01*
X172187091Y-63107483D01*
X172193500Y-63047873D01*
X172193499Y-60952128D01*
X172187091Y-60892517D01*
X172136884Y-60757906D01*
X172136797Y-60757671D01*
X172136793Y-60757664D01*
X172050547Y-60642455D01*
X172050544Y-60642452D01*
X171935335Y-60556206D01*
X171935328Y-60556202D01*
X171800482Y-60505908D01*
X171800483Y-60505908D01*
X171740883Y-60499501D01*
X171740881Y-60499500D01*
X171740873Y-60499500D01*
X171740864Y-60499500D01*
X169645129Y-60499500D01*
X169645123Y-60499501D01*
X169585516Y-60505908D01*
X169450671Y-60556202D01*
X169450664Y-60556206D01*
X169335455Y-60642452D01*
X169335452Y-60642455D01*
X169249206Y-60757664D01*
X169249202Y-60757671D01*
X169198908Y-60892517D01*
X169192501Y-60952116D01*
X169192501Y-60952123D01*
X169192500Y-60952135D01*
X169192500Y-62599902D01*
X169172815Y-62666941D01*
X169156181Y-62687583D01*
X158180584Y-73663181D01*
X158119261Y-73696666D01*
X158092903Y-73699500D01*
X157742055Y-73699500D01*
X157675016Y-73679815D01*
X157629261Y-73627011D01*
X157619317Y-73557853D01*
X157631570Y-73519205D01*
X157693005Y-73398632D01*
X157693006Y-73398629D01*
X157695219Y-73391815D01*
X157754413Y-73209636D01*
X157785500Y-73013361D01*
X157785500Y-72814639D01*
X157754413Y-72618364D01*
X157693005Y-72429368D01*
X157693005Y-72429367D01*
X157602786Y-72252305D01*
X157485981Y-72091536D01*
X157345464Y-71951019D01*
X157184694Y-71834213D01*
X157027667Y-71754203D01*
X156976872Y-71706229D01*
X156960077Y-71638408D01*
X156982614Y-71572273D01*
X157027669Y-71533234D01*
X157184422Y-71453364D01*
X157221716Y-71426268D01*
X156550448Y-70755000D01*
X156573160Y-70755000D01*
X156670061Y-70729036D01*
X156756940Y-70678876D01*
X156827876Y-70607940D01*
X156878036Y-70521061D01*
X156904000Y-70424160D01*
X156904000Y-70401447D01*
X157575268Y-71072715D01*
X157602362Y-71035425D01*
X157692542Y-70858437D01*
X157753924Y-70669523D01*
X157753924Y-70669520D01*
X157785000Y-70473321D01*
X157785000Y-70274678D01*
X157753924Y-70078479D01*
X157753924Y-70078476D01*
X157692542Y-69889562D01*
X157602358Y-69712567D01*
X157575268Y-69675283D01*
X156904000Y-70346551D01*
X156904000Y-70323840D01*
X156878036Y-70226939D01*
X156827876Y-70140060D01*
X156756940Y-70069124D01*
X156670061Y-70018964D01*
X156573160Y-69993000D01*
X156550447Y-69993000D01*
X157221716Y-69321731D01*
X157221715Y-69321730D01*
X157184432Y-69294641D01*
X157027668Y-69214765D01*
X156976872Y-69166790D01*
X156960077Y-69098969D01*
X156982615Y-69032834D01*
X157027667Y-68993796D01*
X157184694Y-68913787D01*
X157345464Y-68796981D01*
X157485981Y-68656464D01*
X157602787Y-68495694D01*
X157693005Y-68318632D01*
X157754413Y-68129636D01*
X157785500Y-67933361D01*
X157785500Y-67734639D01*
X157754413Y-67538364D01*
X157693005Y-67349368D01*
X157693005Y-67349367D01*
X157602786Y-67172305D01*
X157525836Y-67066392D01*
X157485981Y-67011536D01*
X157345464Y-66871019D01*
X157184694Y-66754213D01*
X157007632Y-66663994D01*
X157007629Y-66663993D01*
X156818637Y-66602587D01*
X156720498Y-66587043D01*
X156622361Y-66571500D01*
X156423639Y-66571500D01*
X156358214Y-66581862D01*
X156227362Y-66602587D01*
X156038370Y-66663993D01*
X156038367Y-66663994D01*
X155861305Y-66754213D01*
X155700533Y-66871021D01*
X155560021Y-67011533D01*
X155443213Y-67172305D01*
X155352994Y-67349367D01*
X155352993Y-67349370D01*
X155291587Y-67538362D01*
X155260500Y-67734639D01*
X155260500Y-67933361D01*
X155276043Y-68031498D01*
X155291587Y-68129637D01*
X155352993Y-68318629D01*
X155352994Y-68318632D01*
X155399681Y-68410258D01*
X155443213Y-68495694D01*
X155560019Y-68656464D01*
X155700536Y-68796981D01*
X155861306Y-68913787D01*
X156018332Y-68993796D01*
X156069127Y-69041769D01*
X156085922Y-69109590D01*
X156063385Y-69175725D01*
X156018332Y-69214764D01*
X155861566Y-69294641D01*
X155824283Y-69321729D01*
X155824282Y-69321730D01*
X156495554Y-69993000D01*
X156472840Y-69993000D01*
X156375939Y-70018964D01*
X156289060Y-70069124D01*
X156218124Y-70140060D01*
X156167964Y-70226939D01*
X156142000Y-70323840D01*
X156142000Y-70346552D01*
X155470730Y-69675282D01*
X155470729Y-69675283D01*
X155443643Y-69712564D01*
X155353457Y-69889562D01*
X155292075Y-70078476D01*
X155292075Y-70078479D01*
X155261000Y-70274678D01*
X155261000Y-70473321D01*
X155292075Y-70669520D01*
X155292075Y-70669523D01*
X155353457Y-70858437D01*
X155443641Y-71035432D01*
X155470730Y-71072715D01*
X155470731Y-71072716D01*
X156142000Y-70401447D01*
X156142000Y-70424160D01*
X156167964Y-70521061D01*
X156218124Y-70607940D01*
X156289060Y-70678876D01*
X156375939Y-70729036D01*
X156472840Y-70755000D01*
X156495553Y-70755000D01*
X155824283Y-71426268D01*
X155824283Y-71426269D01*
X155861567Y-71453358D01*
X156018331Y-71533234D01*
X156069127Y-71581209D01*
X156085922Y-71649030D01*
X156063384Y-71715165D01*
X156018331Y-71754204D01*
X155861305Y-71834213D01*
X155700533Y-71951021D01*
X155560021Y-72091533D01*
X155443213Y-72252305D01*
X155352994Y-72429367D01*
X155352993Y-72429370D01*
X155291587Y-72618362D01*
X155260500Y-72814639D01*
X155260500Y-73013360D01*
X155291587Y-73209637D01*
X155352993Y-73398629D01*
X155352994Y-73398632D01*
X155414430Y-73519205D01*
X155427326Y-73587874D01*
X155401050Y-73652615D01*
X155343943Y-73692872D01*
X155303945Y-73699500D01*
X142884057Y-73699500D01*
X142725942Y-73699500D01*
X142573215Y-73740423D01*
X142573214Y-73740423D01*
X142573212Y-73740424D01*
X142573209Y-73740425D01*
X142536495Y-73761623D01*
X142536494Y-73761624D01*
X142436287Y-73819477D01*
X142436282Y-73819481D01*
X122012181Y-94243583D01*
X121950858Y-94277068D01*
X121881166Y-94272084D01*
X121825233Y-94230212D01*
X121800816Y-94164748D01*
X121800500Y-94155902D01*
X121800500Y-94146902D01*
X121763553Y-93913631D01*
X121729689Y-93809412D01*
X121690568Y-93689008D01*
X121690566Y-93689005D01*
X121690566Y-93689003D01*
X121583342Y-93478566D01*
X121444517Y-93287490D01*
X121277510Y-93120483D01*
X121242872Y-93095317D01*
X121200207Y-93039989D01*
X121194228Y-92970375D01*
X121226833Y-92908580D01*
X121242873Y-92894682D01*
X121277510Y-92869517D01*
X121444517Y-92702510D01*
X121583343Y-92511433D01*
X121690568Y-92300992D01*
X121763553Y-92076368D01*
X121781280Y-91964446D01*
X121800500Y-91843097D01*
X121800500Y-91606902D01*
X121763553Y-91373631D01*
X121690566Y-91149003D01*
X121619441Y-91009413D01*
X121583343Y-90938567D01*
X121444517Y-90747490D01*
X121277510Y-90580483D01*
X121242872Y-90555317D01*
X121200207Y-90499989D01*
X121194228Y-90430375D01*
X121226833Y-90368580D01*
X121242873Y-90354682D01*
X121277510Y-90329517D01*
X121444517Y-90162510D01*
X121583343Y-89971433D01*
X121690568Y-89760992D01*
X121763553Y-89536368D01*
X121800500Y-89303097D01*
X121800500Y-89066902D01*
X121763553Y-88833631D01*
X121729689Y-88729412D01*
X121690568Y-88609008D01*
X121690566Y-88609005D01*
X121690566Y-88609003D01*
X121583342Y-88398566D01*
X121444517Y-88207490D01*
X121277510Y-88040483D01*
X121242872Y-88015317D01*
X121200207Y-87959989D01*
X121194228Y-87890375D01*
X121226833Y-87828580D01*
X121242873Y-87814682D01*
X121277510Y-87789517D01*
X121444517Y-87622510D01*
X121583343Y-87431433D01*
X121690568Y-87220992D01*
X121763553Y-86996368D01*
X121797188Y-86784005D01*
X121800500Y-86763097D01*
X121800500Y-86526902D01*
X121763553Y-86293631D01*
X121690566Y-86069003D01*
X121583342Y-85858566D01*
X121444517Y-85667490D01*
X121277510Y-85500483D01*
X121242872Y-85475317D01*
X121200207Y-85419989D01*
X121194228Y-85350375D01*
X121226833Y-85288580D01*
X121242873Y-85274682D01*
X121277510Y-85249517D01*
X121444517Y-85082510D01*
X121583343Y-84891433D01*
X121690568Y-84680992D01*
X121763553Y-84456368D01*
X121775239Y-84382587D01*
X121800500Y-84223097D01*
X121800500Y-83986902D01*
X121763553Y-83753631D01*
X121690566Y-83529003D01*
X121583342Y-83318566D01*
X121444517Y-83127490D01*
X121277510Y-82960483D01*
X121242872Y-82935317D01*
X121200207Y-82879989D01*
X121194228Y-82810375D01*
X121226833Y-82748580D01*
X121242873Y-82734682D01*
X121277510Y-82709517D01*
X121444517Y-82542510D01*
X121583343Y-82351433D01*
X121690568Y-82140992D01*
X121763553Y-81916368D01*
X121775239Y-81842587D01*
X121800500Y-81683097D01*
X121800500Y-81446902D01*
X121763553Y-81213631D01*
X121690566Y-80989003D01*
X121583342Y-80778566D01*
X121574246Y-80766046D01*
X121444517Y-80587490D01*
X121277510Y-80420483D01*
X121218282Y-80377451D01*
X121175617Y-80322122D01*
X121167550Y-80267404D01*
X121169104Y-80247657D01*
X120437574Y-79516128D01*
X120496853Y-79500245D01*
X120613147Y-79433102D01*
X120708102Y-79338147D01*
X120775245Y-79221853D01*
X120791128Y-79162575D01*
X121522658Y-79894105D01*
X121522658Y-79894104D01*
X121582914Y-79811169D01*
X121582918Y-79811163D01*
X121690102Y-79600802D01*
X121763065Y-79376247D01*
X121800000Y-79143052D01*
X121800000Y-78906947D01*
X121763065Y-78673752D01*
X121690102Y-78449197D01*
X121582914Y-78238828D01*
X121492964Y-78115023D01*
X121469484Y-78049216D01*
X121485309Y-77981162D01*
X121534640Y-77933220D01*
X121534546Y-77933047D01*
X121535169Y-77932706D01*
X121535415Y-77932468D01*
X121536480Y-77931990D01*
X121542326Y-77928797D01*
X121542331Y-77928796D01*
X121657546Y-77842546D01*
X121743796Y-77727331D01*
X121794091Y-77592483D01*
X121800500Y-77532873D01*
X121800499Y-75437128D01*
X121794091Y-75377517D01*
X121780278Y-75340483D01*
X121743797Y-75242671D01*
X121743793Y-75242664D01*
X121657547Y-75127455D01*
X121657544Y-75127452D01*
X121542335Y-75041206D01*
X121542328Y-75041202D01*
X121407482Y-74990908D01*
X121407483Y-74990908D01*
X121347883Y-74984501D01*
X121347881Y-74984500D01*
X121347873Y-74984500D01*
X121347864Y-74984500D01*
X119252129Y-74984500D01*
X119252123Y-74984501D01*
X119192516Y-74990908D01*
X119057671Y-75041202D01*
X119057664Y-75041206D01*
X118942455Y-75127452D01*
X118942452Y-75127455D01*
X118856206Y-75242664D01*
X118856202Y-75242671D01*
X118805908Y-75377517D01*
X118799501Y-75437116D01*
X118799501Y-75437123D01*
X118799500Y-75437135D01*
X118799500Y-77532870D01*
X118799501Y-77532876D01*
X118805908Y-77592483D01*
X118856202Y-77727328D01*
X118856206Y-77727335D01*
X118942452Y-77842544D01*
X118942455Y-77842547D01*
X119057664Y-77928793D01*
X119065454Y-77933047D01*
X119063725Y-77936211D01*
X119105915Y-77967734D01*
X119130393Y-78033175D01*
X119115604Y-78101462D01*
X119107036Y-78115021D01*
X119017084Y-78238829D01*
X118909897Y-78449197D01*
X118836934Y-78673752D01*
X118800000Y-78906947D01*
X118800000Y-79143052D01*
X118836934Y-79376247D01*
X118909897Y-79600802D01*
X119017087Y-79811174D01*
X119077338Y-79894104D01*
X119077340Y-79894105D01*
X119808871Y-79162574D01*
X119824755Y-79221853D01*
X119891898Y-79338147D01*
X119986853Y-79433102D01*
X120103147Y-79500245D01*
X120162425Y-79516128D01*
X119430893Y-80247658D01*
X119432448Y-80267405D01*
X119418084Y-80335783D01*
X119381717Y-80377451D01*
X119322490Y-80420482D01*
X119155485Y-80587487D01*
X119155485Y-80587488D01*
X119155483Y-80587490D01*
X119122156Y-80633361D01*
X119016657Y-80778566D01*
X118909433Y-80989003D01*
X118836446Y-81213631D01*
X118799500Y-81446902D01*
X118799500Y-81683097D01*
X118836446Y-81916368D01*
X118909433Y-82140996D01*
X119016657Y-82351433D01*
X119155483Y-82542510D01*
X119322490Y-82709517D01*
X119357127Y-82734683D01*
X119399792Y-82790013D01*
X119405771Y-82859626D01*
X119373165Y-82921421D01*
X119357130Y-82935315D01*
X119339365Y-82948222D01*
X119322488Y-82960484D01*
X119155485Y-83127487D01*
X119155485Y-83127488D01*
X119155483Y-83127490D01*
X119122156Y-83173361D01*
X119016657Y-83318566D01*
X118909433Y-83529003D01*
X118836446Y-83753631D01*
X118799500Y-83986902D01*
X118799500Y-84223097D01*
X118836446Y-84456368D01*
X118909433Y-84680996D01*
X118970020Y-84799903D01*
X119016657Y-84891433D01*
X119155483Y-85082510D01*
X119322490Y-85249517D01*
X119357127Y-85274683D01*
X119399792Y-85330013D01*
X119405771Y-85399626D01*
X119373165Y-85461421D01*
X119357130Y-85475315D01*
X119339365Y-85488222D01*
X119322488Y-85500484D01*
X119155485Y-85667487D01*
X119155485Y-85667488D01*
X119155483Y-85667490D01*
X119122156Y-85713361D01*
X119016657Y-85858566D01*
X118956417Y-85976795D01*
X118908442Y-86027591D01*
X118845932Y-86044500D01*
X117845097Y-86044500D01*
X117778058Y-86024815D01*
X117757416Y-86008181D01*
X116636819Y-84887584D01*
X116603334Y-84826261D01*
X116600500Y-84799903D01*
X116600500Y-68410258D01*
X118969500Y-68410258D01*
X118969500Y-68639741D01*
X118990202Y-68796978D01*
X118999452Y-68867238D01*
X119036098Y-69004005D01*
X119058842Y-69088887D01*
X119146650Y-69300876D01*
X119146657Y-69300890D01*
X119261392Y-69499617D01*
X119401081Y-69681661D01*
X119401089Y-69681670D01*
X119563330Y-69843911D01*
X119563338Y-69843918D01*
X119745382Y-69983607D01*
X119745385Y-69983608D01*
X119745388Y-69983611D01*
X119944112Y-70098344D01*
X119944117Y-70098346D01*
X119944123Y-70098349D01*
X120035480Y-70136190D01*
X120156113Y-70186158D01*
X120377762Y-70245548D01*
X120605266Y-70275500D01*
X120605273Y-70275500D01*
X120834727Y-70275500D01*
X120834734Y-70275500D01*
X121062238Y-70245548D01*
X121283887Y-70186158D01*
X121495888Y-70098344D01*
X121694612Y-69983611D01*
X121876661Y-69843919D01*
X121876665Y-69843914D01*
X121876670Y-69843911D01*
X122038911Y-69681670D01*
X122038914Y-69681665D01*
X122038919Y-69681661D01*
X122178611Y-69499612D01*
X122293344Y-69300888D01*
X122381158Y-69088887D01*
X122440548Y-68867238D01*
X122470500Y-68639734D01*
X122470500Y-68410266D01*
X122470499Y-68410258D01*
X143479500Y-68410258D01*
X143479500Y-68639741D01*
X143500202Y-68796978D01*
X143509452Y-68867238D01*
X143546098Y-69004005D01*
X143568842Y-69088887D01*
X143656650Y-69300876D01*
X143656657Y-69300890D01*
X143771392Y-69499617D01*
X143911081Y-69681661D01*
X143911089Y-69681670D01*
X144073330Y-69843911D01*
X144073338Y-69843918D01*
X144255382Y-69983607D01*
X144255385Y-69983608D01*
X144255388Y-69983611D01*
X144454112Y-70098344D01*
X144454117Y-70098346D01*
X144454123Y-70098349D01*
X144545480Y-70136190D01*
X144666113Y-70186158D01*
X144887762Y-70245548D01*
X145115266Y-70275500D01*
X145115273Y-70275500D01*
X145344727Y-70275500D01*
X145344734Y-70275500D01*
X145572238Y-70245548D01*
X145793887Y-70186158D01*
X146005888Y-70098344D01*
X146204612Y-69983611D01*
X146386661Y-69843919D01*
X146386665Y-69843914D01*
X146386670Y-69843911D01*
X146548911Y-69681670D01*
X146548914Y-69681665D01*
X146548919Y-69681661D01*
X146688611Y-69499612D01*
X146803344Y-69300888D01*
X146891158Y-69088887D01*
X146950548Y-68867238D01*
X146980500Y-68639734D01*
X146980500Y-68410266D01*
X146950548Y-68182762D01*
X146891158Y-67961113D01*
X146855289Y-67874519D01*
X146814987Y-67777219D01*
X146808286Y-67761043D01*
X146803344Y-67749112D01*
X146688611Y-67550388D01*
X146688608Y-67550385D01*
X146688607Y-67550382D01*
X146548918Y-67368338D01*
X146548911Y-67368330D01*
X146386670Y-67206089D01*
X146386661Y-67206081D01*
X146204617Y-67066392D01*
X146005890Y-66951657D01*
X146005876Y-66951650D01*
X145793887Y-66863842D01*
X145572238Y-66804452D01*
X145534215Y-66799446D01*
X145344741Y-66774500D01*
X145344734Y-66774500D01*
X145115266Y-66774500D01*
X145115258Y-66774500D01*
X144898715Y-66803009D01*
X144887762Y-66804452D01*
X144794076Y-66829554D01*
X144666112Y-66863842D01*
X144454123Y-66951650D01*
X144454109Y-66951657D01*
X144255382Y-67066392D01*
X144073338Y-67206081D01*
X143911081Y-67368338D01*
X143771392Y-67550382D01*
X143656657Y-67749109D01*
X143656650Y-67749123D01*
X143568842Y-67961112D01*
X143509453Y-68182759D01*
X143509451Y-68182770D01*
X143479500Y-68410258D01*
X122470499Y-68410258D01*
X122440548Y-68182762D01*
X122381158Y-67961113D01*
X122331190Y-67840480D01*
X122293349Y-67749123D01*
X122293346Y-67749117D01*
X122293344Y-67749112D01*
X122178611Y-67550388D01*
X122178608Y-67550385D01*
X122178607Y-67550382D01*
X122038918Y-67368338D01*
X122038911Y-67368330D01*
X121876670Y-67206089D01*
X121876661Y-67206081D01*
X121694617Y-67066392D01*
X121495890Y-66951657D01*
X121495876Y-66951650D01*
X121283887Y-66863842D01*
X121062238Y-66804452D01*
X121024215Y-66799446D01*
X120834741Y-66774500D01*
X120834734Y-66774500D01*
X120605266Y-66774500D01*
X120605258Y-66774500D01*
X120388715Y-66803009D01*
X120377762Y-66804452D01*
X120284076Y-66829554D01*
X120156112Y-66863842D01*
X119944123Y-66951650D01*
X119944109Y-66951657D01*
X119745382Y-67066392D01*
X119563338Y-67206081D01*
X119401081Y-67368338D01*
X119261392Y-67550382D01*
X119146657Y-67749109D01*
X119146650Y-67749123D01*
X119058842Y-67961112D01*
X118999453Y-68182759D01*
X118999451Y-68182770D01*
X118969500Y-68410258D01*
X116600500Y-68410258D01*
X116600500Y-66300096D01*
X116620185Y-66233057D01*
X116636814Y-66212420D01*
X119312416Y-63536817D01*
X119373739Y-63503333D01*
X119400097Y-63500499D01*
X121047871Y-63500499D01*
X121047872Y-63500499D01*
X121107483Y-63494091D01*
X121242331Y-63443796D01*
X121357546Y-63357546D01*
X121443796Y-63242331D01*
X121494091Y-63107483D01*
X121500500Y-63047873D01*
X121500499Y-61934174D01*
X121500499Y-60952155D01*
X122500000Y-60952155D01*
X122500000Y-61750000D01*
X123566988Y-61750000D01*
X123534075Y-61807007D01*
X123500000Y-61934174D01*
X123500000Y-62065826D01*
X123534075Y-62192993D01*
X123566988Y-62250000D01*
X122500000Y-62250000D01*
X122500000Y-63047844D01*
X122506401Y-63107372D01*
X122506403Y-63107379D01*
X122556645Y-63242086D01*
X122556649Y-63242093D01*
X122642809Y-63357187D01*
X122642812Y-63357190D01*
X122757906Y-63443350D01*
X122757913Y-63443354D01*
X122892620Y-63493596D01*
X122892627Y-63493598D01*
X122952155Y-63499999D01*
X122952172Y-63500000D01*
X123750000Y-63500000D01*
X123750000Y-62433012D01*
X123807007Y-62465925D01*
X123934174Y-62500000D01*
X124065826Y-62500000D01*
X124192993Y-62465925D01*
X124250000Y-62433012D01*
X124250000Y-63500000D01*
X125047828Y-63500000D01*
X125047844Y-63499999D01*
X125107372Y-63493598D01*
X125107379Y-63493596D01*
X125242086Y-63443354D01*
X125242093Y-63443350D01*
X125357187Y-63357190D01*
X125357190Y-63357187D01*
X125443350Y-63242093D01*
X125443354Y-63242086D01*
X125493596Y-63107379D01*
X125493598Y-63107372D01*
X125499999Y-63047844D01*
X125500000Y-63047827D01*
X125500000Y-62250000D01*
X124433012Y-62250000D01*
X124465925Y-62192993D01*
X124500000Y-62065826D01*
X124500000Y-61934174D01*
X124465925Y-61807007D01*
X124433012Y-61750000D01*
X125500000Y-61750000D01*
X125500000Y-60952172D01*
X125499999Y-60952155D01*
X165193000Y-60952155D01*
X165193000Y-61750000D01*
X166259988Y-61750000D01*
X166227075Y-61807007D01*
X166193000Y-61934174D01*
X166193000Y-62065826D01*
X166227075Y-62192993D01*
X166259988Y-62250000D01*
X165193000Y-62250000D01*
X165193000Y-63047844D01*
X165199401Y-63107372D01*
X165199403Y-63107379D01*
X165249645Y-63242086D01*
X165249649Y-63242093D01*
X165335809Y-63357187D01*
X165335812Y-63357190D01*
X165450906Y-63443350D01*
X165450913Y-63443354D01*
X165585620Y-63493596D01*
X165585627Y-63493598D01*
X165645155Y-63499999D01*
X165645172Y-63500000D01*
X166443000Y-63500000D01*
X166443000Y-62433012D01*
X166500007Y-62465925D01*
X166627174Y-62500000D01*
X166758826Y-62500000D01*
X166885993Y-62465925D01*
X166943000Y-62433012D01*
X166943000Y-63500000D01*
X167740828Y-63500000D01*
X167740844Y-63499999D01*
X167800372Y-63493598D01*
X167800379Y-63493596D01*
X167935086Y-63443354D01*
X167935093Y-63443350D01*
X168050187Y-63357190D01*
X168050190Y-63357187D01*
X168136350Y-63242093D01*
X168136354Y-63242086D01*
X168186596Y-63107379D01*
X168186598Y-63107372D01*
X168192999Y-63047844D01*
X168193000Y-63047827D01*
X168193000Y-62250000D01*
X167126012Y-62250000D01*
X167158925Y-62192993D01*
X167193000Y-62065826D01*
X167193000Y-61934174D01*
X167158925Y-61807007D01*
X167126012Y-61750000D01*
X168193000Y-61750000D01*
X168193000Y-60952172D01*
X168192999Y-60952155D01*
X168186598Y-60892627D01*
X168186596Y-60892620D01*
X168136354Y-60757913D01*
X168136350Y-60757906D01*
X168050190Y-60642812D01*
X168050187Y-60642809D01*
X167935093Y-60556649D01*
X167935086Y-60556645D01*
X167800379Y-60506403D01*
X167800372Y-60506401D01*
X167740844Y-60500000D01*
X166943000Y-60500000D01*
X166943000Y-61566988D01*
X166885993Y-61534075D01*
X166758826Y-61500000D01*
X166627174Y-61500000D01*
X166500007Y-61534075D01*
X166443000Y-61566988D01*
X166443000Y-60500000D01*
X165645155Y-60500000D01*
X165585627Y-60506401D01*
X165585620Y-60506403D01*
X165450913Y-60556645D01*
X165450906Y-60556649D01*
X165335812Y-60642809D01*
X165335809Y-60642812D01*
X165249649Y-60757906D01*
X165249645Y-60757913D01*
X165199403Y-60892620D01*
X165199401Y-60892627D01*
X165193000Y-60952155D01*
X125499999Y-60952155D01*
X125493598Y-60892627D01*
X125493596Y-60892620D01*
X125443354Y-60757913D01*
X125443350Y-60757906D01*
X125357190Y-60642812D01*
X125357187Y-60642809D01*
X125242093Y-60556649D01*
X125242086Y-60556645D01*
X125107379Y-60506403D01*
X125107372Y-60506401D01*
X125047844Y-60500000D01*
X124250000Y-60500000D01*
X124250000Y-61566988D01*
X124192993Y-61534075D01*
X124065826Y-61500000D01*
X123934174Y-61500000D01*
X123807007Y-61534075D01*
X123750000Y-61566988D01*
X123750000Y-60500000D01*
X122952155Y-60500000D01*
X122892627Y-60506401D01*
X122892620Y-60506403D01*
X122757913Y-60556645D01*
X122757906Y-60556649D01*
X122642812Y-60642809D01*
X122642809Y-60642812D01*
X122556649Y-60757906D01*
X122556645Y-60757913D01*
X122506403Y-60892620D01*
X122506401Y-60892627D01*
X122500000Y-60952155D01*
X121500499Y-60952155D01*
X121500499Y-60952129D01*
X121500498Y-60952123D01*
X121500497Y-60952116D01*
X121494091Y-60892517D01*
X121443884Y-60757906D01*
X121443797Y-60757671D01*
X121443793Y-60757664D01*
X121357547Y-60642455D01*
X121357544Y-60642452D01*
X121242335Y-60556206D01*
X121242328Y-60556202D01*
X121107482Y-60505908D01*
X121107483Y-60505908D01*
X121047883Y-60499501D01*
X121047881Y-60499500D01*
X121047873Y-60499500D01*
X121047864Y-60499500D01*
X118952129Y-60499500D01*
X118952123Y-60499501D01*
X118892516Y-60505908D01*
X118757671Y-60556202D01*
X118757664Y-60556206D01*
X118642455Y-60642452D01*
X118642452Y-60642455D01*
X118556206Y-60757664D01*
X118556202Y-60757671D01*
X118505908Y-60892517D01*
X118499501Y-60952116D01*
X118499501Y-60952123D01*
X118499500Y-60952135D01*
X118499500Y-62599902D01*
X118479815Y-62666941D01*
X118463181Y-62687583D01*
X115712181Y-65438583D01*
X115650858Y-65472068D01*
X115581166Y-65467084D01*
X115525233Y-65425212D01*
X115500816Y-65359748D01*
X115500500Y-65350902D01*
X115500500Y-54868872D01*
X117999500Y-54868872D01*
X117999500Y-55131127D01*
X118026123Y-55333339D01*
X118033730Y-55391116D01*
X118101602Y-55644418D01*
X118101605Y-55644428D01*
X118201953Y-55886690D01*
X118201958Y-55886700D01*
X118333075Y-56113803D01*
X118492718Y-56321851D01*
X118492726Y-56321860D01*
X118678140Y-56507274D01*
X118678148Y-56507281D01*
X118886196Y-56666924D01*
X119113299Y-56798041D01*
X119113309Y-56798046D01*
X119355571Y-56898394D01*
X119355581Y-56898398D01*
X119608884Y-56966270D01*
X119868880Y-57000500D01*
X119868887Y-57000500D01*
X120131113Y-57000500D01*
X120131120Y-57000500D01*
X120391116Y-56966270D01*
X120644419Y-56898398D01*
X120886697Y-56798043D01*
X121113803Y-56666924D01*
X121321851Y-56507282D01*
X121321855Y-56507277D01*
X121321860Y-56507274D01*
X121507274Y-56321860D01*
X121507277Y-56321855D01*
X121507282Y-56321851D01*
X121666924Y-56113803D01*
X121798043Y-55886697D01*
X121898398Y-55644419D01*
X121966270Y-55391116D01*
X122000500Y-55131120D01*
X122000500Y-54868880D01*
X122000499Y-54868872D01*
X167999500Y-54868872D01*
X167999500Y-55131127D01*
X168026123Y-55333339D01*
X168033730Y-55391116D01*
X168101602Y-55644418D01*
X168101605Y-55644428D01*
X168201953Y-55886690D01*
X168201958Y-55886700D01*
X168333075Y-56113803D01*
X168492718Y-56321851D01*
X168492726Y-56321860D01*
X168678140Y-56507274D01*
X168678148Y-56507281D01*
X168886196Y-56666924D01*
X169113299Y-56798041D01*
X169113309Y-56798046D01*
X169355571Y-56898394D01*
X169355581Y-56898398D01*
X169608884Y-56966270D01*
X169868880Y-57000500D01*
X169868887Y-57000500D01*
X170131113Y-57000500D01*
X170131120Y-57000500D01*
X170391116Y-56966270D01*
X170644419Y-56898398D01*
X170886697Y-56798043D01*
X171113803Y-56666924D01*
X171321851Y-56507282D01*
X171321855Y-56507277D01*
X171321860Y-56507274D01*
X171507274Y-56321860D01*
X171507277Y-56321855D01*
X171507282Y-56321851D01*
X171666924Y-56113803D01*
X171798043Y-55886697D01*
X171898398Y-55644419D01*
X171966270Y-55391116D01*
X172000500Y-55131120D01*
X172000500Y-54868880D01*
X171966270Y-54608884D01*
X171898398Y-54355581D01*
X171898394Y-54355571D01*
X171798046Y-54113309D01*
X171798041Y-54113299D01*
X171666924Y-53886196D01*
X171507281Y-53678148D01*
X171507274Y-53678140D01*
X171321860Y-53492726D01*
X171321851Y-53492718D01*
X171113803Y-53333075D01*
X170886700Y-53201958D01*
X170886690Y-53201953D01*
X170644428Y-53101605D01*
X170644421Y-53101603D01*
X170644419Y-53101602D01*
X170391116Y-53033730D01*
X170333339Y-53026123D01*
X170131127Y-52999500D01*
X170131120Y-52999500D01*
X169868880Y-52999500D01*
X169868872Y-52999500D01*
X169637772Y-53029926D01*
X169608884Y-53033730D01*
X169355581Y-53101602D01*
X169355571Y-53101605D01*
X169113309Y-53201953D01*
X169113299Y-53201958D01*
X168886196Y-53333075D01*
X168678148Y-53492718D01*
X168492718Y-53678148D01*
X168333075Y-53886196D01*
X168201958Y-54113299D01*
X168201953Y-54113309D01*
X168101605Y-54355571D01*
X168101602Y-54355581D01*
X168033730Y-54608885D01*
X167999500Y-54868872D01*
X122000499Y-54868872D01*
X121966270Y-54608884D01*
X121898398Y-54355581D01*
X121898394Y-54355571D01*
X121798046Y-54113309D01*
X121798041Y-54113299D01*
X121666924Y-53886196D01*
X121507281Y-53678148D01*
X121507274Y-53678140D01*
X121321860Y-53492726D01*
X121321851Y-53492718D01*
X121113803Y-53333075D01*
X120886700Y-53201958D01*
X120886690Y-53201953D01*
X120644428Y-53101605D01*
X120644421Y-53101603D01*
X120644419Y-53101602D01*
X120391116Y-53033730D01*
X120333339Y-53026123D01*
X120131127Y-52999500D01*
X120131120Y-52999500D01*
X119868880Y-52999500D01*
X119868872Y-52999500D01*
X119637772Y-53029926D01*
X119608884Y-53033730D01*
X119355581Y-53101602D01*
X119355571Y-53101605D01*
X119113309Y-53201953D01*
X119113299Y-53201958D01*
X118886196Y-53333075D01*
X118678148Y-53492718D01*
X118492718Y-53678148D01*
X118333075Y-53886196D01*
X118201958Y-54113299D01*
X118201953Y-54113309D01*
X118101605Y-54355571D01*
X118101602Y-54355581D01*
X118033730Y-54608885D01*
X117999500Y-54868872D01*
X115500500Y-54868872D01*
X115500500Y-50624500D01*
X115520185Y-50557461D01*
X115572989Y-50511706D01*
X115624500Y-50500500D01*
X174375500Y-50500500D01*
X174442539Y-50520185D01*
G37*
G04 #@! TD.AperFunction*
G04 #@! TA.AperFunction,Conductor*
G36*
X145055162Y-74920185D02*
G01*
X145100917Y-74972989D01*
X145110861Y-75042147D01*
X145081836Y-75105703D01*
X145044418Y-75134985D01*
X144913566Y-75201657D01*
X144857119Y-75242669D01*
X144722490Y-75340483D01*
X144722488Y-75340485D01*
X144722487Y-75340485D01*
X144555485Y-75507487D01*
X144555485Y-75507488D01*
X144555483Y-75507490D01*
X144522156Y-75553361D01*
X144416657Y-75698566D01*
X144309433Y-75909003D01*
X144236446Y-76133631D01*
X144199500Y-76366902D01*
X144199500Y-76603097D01*
X144236446Y-76836368D01*
X144309433Y-77060996D01*
X144416657Y-77271433D01*
X144555483Y-77462510D01*
X144722490Y-77629517D01*
X144781716Y-77672547D01*
X144824381Y-77727875D01*
X144832448Y-77782593D01*
X144830893Y-77802340D01*
X145562425Y-78533871D01*
X145503147Y-78549755D01*
X145386853Y-78616898D01*
X145291898Y-78711853D01*
X145224755Y-78828147D01*
X145208871Y-78887425D01*
X144477340Y-78155894D01*
X144417084Y-78238830D01*
X144309897Y-78449197D01*
X144236934Y-78673752D01*
X144200000Y-78906947D01*
X144200000Y-79143052D01*
X144236934Y-79376247D01*
X144309897Y-79600802D01*
X144417087Y-79811174D01*
X144477338Y-79894104D01*
X144477340Y-79894105D01*
X145208871Y-79162574D01*
X145224755Y-79221853D01*
X145291898Y-79338147D01*
X145386853Y-79433102D01*
X145503147Y-79500245D01*
X145562425Y-79516128D01*
X144830893Y-80247658D01*
X144832448Y-80267405D01*
X144818084Y-80335783D01*
X144781717Y-80377451D01*
X144722490Y-80420482D01*
X144555485Y-80587487D01*
X144555485Y-80587488D01*
X144555483Y-80587490D01*
X144522156Y-80633361D01*
X144416657Y-80778566D01*
X144309433Y-80989003D01*
X144236446Y-81213631D01*
X144199500Y-81446902D01*
X144199500Y-81683097D01*
X144236446Y-81916368D01*
X144309433Y-82140996D01*
X144416657Y-82351433D01*
X144555483Y-82542510D01*
X144722490Y-82709517D01*
X144757127Y-82734683D01*
X144799792Y-82790013D01*
X144805771Y-82859626D01*
X144773165Y-82921421D01*
X144757130Y-82935315D01*
X144739365Y-82948222D01*
X144722488Y-82960484D01*
X144555485Y-83127487D01*
X144555485Y-83127488D01*
X144555483Y-83127490D01*
X144522156Y-83173361D01*
X144416657Y-83318566D01*
X144309433Y-83529003D01*
X144236446Y-83753631D01*
X144199500Y-83986902D01*
X144199500Y-84223097D01*
X144236446Y-84456368D01*
X144309433Y-84680996D01*
X144370020Y-84799903D01*
X144416657Y-84891433D01*
X144555483Y-85082510D01*
X144722490Y-85249517D01*
X144757127Y-85274683D01*
X144799792Y-85330013D01*
X144805771Y-85399626D01*
X144773165Y-85461421D01*
X144757130Y-85475315D01*
X144739365Y-85488222D01*
X144722488Y-85500484D01*
X144555485Y-85667487D01*
X144555485Y-85667488D01*
X144555483Y-85667490D01*
X144522156Y-85713361D01*
X144416657Y-85858566D01*
X144309433Y-86069003D01*
X144236446Y-86293631D01*
X144199500Y-86526902D01*
X144199500Y-86763097D01*
X144236446Y-86996368D01*
X144309433Y-87220996D01*
X144416657Y-87431433D01*
X144555483Y-87622510D01*
X144722490Y-87789517D01*
X144757127Y-87814683D01*
X144799792Y-87870013D01*
X144805771Y-87939626D01*
X144773165Y-88001421D01*
X144757130Y-88015315D01*
X144739365Y-88028222D01*
X144722488Y-88040484D01*
X144555485Y-88207487D01*
X144555485Y-88207488D01*
X144555483Y-88207490D01*
X144495862Y-88289550D01*
X144416657Y-88398566D01*
X144309433Y-88609003D01*
X144236446Y-88833631D01*
X144199500Y-89066902D01*
X144199500Y-89303097D01*
X144236446Y-89536368D01*
X144309433Y-89760996D01*
X144416657Y-89971433D01*
X144555483Y-90162510D01*
X144722490Y-90329517D01*
X144757127Y-90354683D01*
X144799792Y-90410013D01*
X144805771Y-90479626D01*
X144773165Y-90541421D01*
X144757130Y-90555315D01*
X144739365Y-90568222D01*
X144722488Y-90580484D01*
X144555485Y-90747487D01*
X144555485Y-90747488D01*
X144555483Y-90747490D01*
X144495862Y-90829550D01*
X144416657Y-90938566D01*
X144309433Y-91149003D01*
X144236446Y-91373631D01*
X144199500Y-91606902D01*
X144199500Y-91843097D01*
X144236446Y-92076368D01*
X144309433Y-92300996D01*
X144393029Y-92465061D01*
X144416657Y-92511433D01*
X144555483Y-92702510D01*
X144722490Y-92869517D01*
X144757127Y-92894683D01*
X144799792Y-92950013D01*
X144805771Y-93019626D01*
X144773165Y-93081421D01*
X144757130Y-93095315D01*
X144739365Y-93108222D01*
X144722488Y-93120484D01*
X144555485Y-93287487D01*
X144555485Y-93287488D01*
X144555483Y-93287490D01*
X144495862Y-93369550D01*
X144416657Y-93478566D01*
X144309433Y-93689003D01*
X144236446Y-93913631D01*
X144199500Y-94146902D01*
X144199500Y-94383097D01*
X144236446Y-94616368D01*
X144309433Y-94840996D01*
X144416657Y-95051433D01*
X144555483Y-95242510D01*
X144722490Y-95409517D01*
X144757127Y-95434683D01*
X144799792Y-95490013D01*
X144805771Y-95559626D01*
X144773165Y-95621421D01*
X144757130Y-95635315D01*
X144739365Y-95648222D01*
X144722488Y-95660484D01*
X144555485Y-95827487D01*
X144555485Y-95827488D01*
X144555483Y-95827490D01*
X144495862Y-95909550D01*
X144416657Y-96018566D01*
X144309433Y-96229003D01*
X144236446Y-96453631D01*
X144199500Y-96686902D01*
X144199500Y-96923097D01*
X144236446Y-97156368D01*
X144309433Y-97380996D01*
X144416657Y-97591433D01*
X144555483Y-97782510D01*
X144722490Y-97949517D01*
X144757127Y-97974683D01*
X144799792Y-98030013D01*
X144805771Y-98099626D01*
X144773165Y-98161421D01*
X144757130Y-98175315D01*
X144739365Y-98188222D01*
X144722488Y-98200484D01*
X144555485Y-98367487D01*
X144555485Y-98367488D01*
X144555483Y-98367490D01*
X144495862Y-98449550D01*
X144416657Y-98558566D01*
X144309433Y-98769003D01*
X144236446Y-98993631D01*
X144199500Y-99226902D01*
X144199500Y-99463097D01*
X144236447Y-99696369D01*
X144236447Y-99696372D01*
X144273102Y-99809182D01*
X144275097Y-99879023D01*
X144239017Y-99938856D01*
X144176316Y-99969684D01*
X144155171Y-99971500D01*
X121844829Y-99971500D01*
X121777790Y-99951815D01*
X121732035Y-99899011D01*
X121722091Y-99829853D01*
X121726898Y-99809182D01*
X121763552Y-99696372D01*
X121763552Y-99696371D01*
X121763553Y-99696368D01*
X121782588Y-99576184D01*
X121800500Y-99463097D01*
X121800500Y-99226902D01*
X121763553Y-98993631D01*
X121729689Y-98889412D01*
X121690568Y-98769008D01*
X121690566Y-98769005D01*
X121690566Y-98769003D01*
X121602698Y-98596554D01*
X121583343Y-98558567D01*
X121444517Y-98367490D01*
X121277510Y-98200483D01*
X121242872Y-98175317D01*
X121200207Y-98119989D01*
X121194228Y-98050375D01*
X121226833Y-97988580D01*
X121242873Y-97974682D01*
X121277510Y-97949517D01*
X121444517Y-97782510D01*
X121583343Y-97591433D01*
X121690568Y-97380992D01*
X121763553Y-97156368D01*
X121800500Y-96923097D01*
X121800500Y-96686902D01*
X121763553Y-96453635D01*
X121763553Y-96453632D01*
X121722547Y-96327433D01*
X121720553Y-96257593D01*
X121752796Y-96201437D01*
X143017416Y-74936819D01*
X143078739Y-74903334D01*
X143105097Y-74900500D01*
X144988123Y-74900500D01*
X145055162Y-74920185D01*
G37*
G04 #@! TD.AperFunction*
G04 #@! TA.AperFunction,Conductor*
G36*
X155271739Y-74920185D02*
G01*
X155317494Y-74972989D01*
X155327438Y-75042147D01*
X155322631Y-75062818D01*
X155291587Y-75158362D01*
X155260500Y-75354639D01*
X155260500Y-75553360D01*
X155291586Y-75749636D01*
X155292131Y-75751903D01*
X155292086Y-75752790D01*
X155292349Y-75754448D01*
X155292000Y-75754503D01*
X155288638Y-75821685D01*
X155259237Y-75868526D01*
X150931286Y-80196478D01*
X150819481Y-80308282D01*
X150819479Y-80308285D01*
X150769361Y-80395094D01*
X150769359Y-80395096D01*
X150740425Y-80445209D01*
X150740424Y-80445210D01*
X150740423Y-80445215D01*
X150699499Y-80597943D01*
X150699499Y-80597945D01*
X150699499Y-80766046D01*
X150699500Y-80766059D01*
X150699500Y-97195903D01*
X150679815Y-97262942D01*
X150663181Y-97283584D01*
X148011584Y-99935181D01*
X147950261Y-99968666D01*
X147923903Y-99971500D01*
X147244829Y-99971500D01*
X147177790Y-99951815D01*
X147132035Y-99899011D01*
X147122091Y-99829853D01*
X147126898Y-99809182D01*
X147163552Y-99696372D01*
X147163552Y-99696371D01*
X147163553Y-99696368D01*
X147182588Y-99576184D01*
X147200500Y-99463097D01*
X147200500Y-99226902D01*
X147163553Y-98993631D01*
X147129689Y-98889412D01*
X147090568Y-98769008D01*
X147090566Y-98769005D01*
X147090566Y-98769003D01*
X147002698Y-98596554D01*
X146983343Y-98558567D01*
X146844517Y-98367490D01*
X146677510Y-98200483D01*
X146642872Y-98175317D01*
X146600207Y-98119989D01*
X146594228Y-98050375D01*
X146626833Y-97988580D01*
X146642873Y-97974682D01*
X146677510Y-97949517D01*
X146844517Y-97782510D01*
X146983343Y-97591433D01*
X147090568Y-97380992D01*
X147163553Y-97156368D01*
X147200500Y-96923097D01*
X147200500Y-96686902D01*
X147163553Y-96453631D01*
X147122549Y-96327434D01*
X147090568Y-96229008D01*
X147090566Y-96229005D01*
X147090566Y-96229003D01*
X147002698Y-96056554D01*
X146983343Y-96018567D01*
X146844517Y-95827490D01*
X146677510Y-95660483D01*
X146642872Y-95635317D01*
X146600207Y-95579989D01*
X146594228Y-95510375D01*
X146626833Y-95448580D01*
X146642873Y-95434682D01*
X146677510Y-95409517D01*
X146844517Y-95242510D01*
X146983343Y-95051433D01*
X147090568Y-94840992D01*
X147163553Y-94616368D01*
X147200500Y-94383097D01*
X147200500Y-94146902D01*
X147163553Y-93913631D01*
X147129689Y-93809412D01*
X147090568Y-93689008D01*
X147090566Y-93689005D01*
X147090566Y-93689003D01*
X146983342Y-93478566D01*
X146844517Y-93287490D01*
X146677510Y-93120483D01*
X146642872Y-93095317D01*
X146600207Y-93039989D01*
X146594228Y-92970375D01*
X146626833Y-92908580D01*
X146642873Y-92894682D01*
X146677510Y-92869517D01*
X146844517Y-92702510D01*
X146983343Y-92511433D01*
X147090568Y-92300992D01*
X147163553Y-92076368D01*
X147181280Y-91964446D01*
X147200500Y-91843097D01*
X147200500Y-91606902D01*
X147163553Y-91373631D01*
X147090566Y-91149003D01*
X147019441Y-91009413D01*
X146983343Y-90938567D01*
X146844517Y-90747490D01*
X146677510Y-90580483D01*
X146642872Y-90555317D01*
X146600207Y-90499989D01*
X146594228Y-90430375D01*
X146626833Y-90368580D01*
X146642873Y-90354682D01*
X146677510Y-90329517D01*
X146844517Y-90162510D01*
X146983343Y-89971433D01*
X147090568Y-89760992D01*
X147163553Y-89536368D01*
X147200500Y-89303097D01*
X147200500Y-89066902D01*
X147163553Y-88833631D01*
X147129689Y-88729412D01*
X147090568Y-88609008D01*
X147090566Y-88609005D01*
X147090566Y-88609003D01*
X146983342Y-88398566D01*
X146844517Y-88207490D01*
X146677510Y-88040483D01*
X146642872Y-88015317D01*
X146600207Y-87959989D01*
X146594228Y-87890375D01*
X146626833Y-87828580D01*
X146642873Y-87814682D01*
X146677510Y-87789517D01*
X146844517Y-87622510D01*
X146983343Y-87431433D01*
X147090568Y-87220992D01*
X147163553Y-86996368D01*
X147197188Y-86784005D01*
X147200500Y-86763097D01*
X147200500Y-86526902D01*
X147163553Y-86293631D01*
X147090566Y-86069003D01*
X146983342Y-85858566D01*
X146844517Y-85667490D01*
X146677510Y-85500483D01*
X146642872Y-85475317D01*
X146600207Y-85419989D01*
X146594228Y-85350375D01*
X146626833Y-85288580D01*
X146642873Y-85274682D01*
X146677510Y-85249517D01*
X146844517Y-85082510D01*
X146983343Y-84891433D01*
X147090568Y-84680992D01*
X147163553Y-84456368D01*
X147175239Y-84382587D01*
X147200500Y-84223097D01*
X147200500Y-83986902D01*
X147163553Y-83753631D01*
X147090566Y-83529003D01*
X146983342Y-83318566D01*
X146844517Y-83127490D01*
X146677510Y-82960483D01*
X146642872Y-82935317D01*
X146600207Y-82879989D01*
X146594228Y-82810375D01*
X146626833Y-82748580D01*
X146642873Y-82734682D01*
X146677510Y-82709517D01*
X146844517Y-82542510D01*
X146983343Y-82351433D01*
X147090568Y-82140992D01*
X147163553Y-81916368D01*
X147175239Y-81842587D01*
X147200500Y-81683097D01*
X147200500Y-81446902D01*
X147163553Y-81213631D01*
X147090566Y-80989003D01*
X146983342Y-80778566D01*
X146974246Y-80766046D01*
X146844517Y-80587490D01*
X146677510Y-80420483D01*
X146618282Y-80377451D01*
X146575617Y-80322122D01*
X146567550Y-80267404D01*
X146569104Y-80247657D01*
X145837574Y-79516128D01*
X145896853Y-79500245D01*
X146013147Y-79433102D01*
X146108102Y-79338147D01*
X146175245Y-79221853D01*
X146191128Y-79162575D01*
X146922658Y-79894105D01*
X146922658Y-79894104D01*
X146982914Y-79811169D01*
X146982918Y-79811163D01*
X147090102Y-79600802D01*
X147163065Y-79376247D01*
X147200000Y-79143052D01*
X147200000Y-78906947D01*
X147163065Y-78673752D01*
X147090102Y-78449197D01*
X146982914Y-78238828D01*
X146922658Y-78155894D01*
X146922658Y-78155893D01*
X146191128Y-78887424D01*
X146175245Y-78828147D01*
X146108102Y-78711853D01*
X146013147Y-78616898D01*
X145896853Y-78549755D01*
X145837574Y-78533871D01*
X146569105Y-77802340D01*
X146567551Y-77782594D01*
X146581915Y-77714216D01*
X146618284Y-77672547D01*
X146677510Y-77629517D01*
X146844517Y-77462510D01*
X146983343Y-77271433D01*
X147090568Y-77060992D01*
X147163553Y-76836368D01*
X147175239Y-76762587D01*
X147200500Y-76603097D01*
X147200500Y-76366902D01*
X147163553Y-76133631D01*
X147090566Y-75909003D01*
X146983342Y-75698566D01*
X146844517Y-75507490D01*
X146677510Y-75340483D01*
X146486433Y-75201657D01*
X146355582Y-75134985D01*
X146304786Y-75087010D01*
X146287991Y-75019189D01*
X146310528Y-74953054D01*
X146365244Y-74909603D01*
X146411877Y-74900500D01*
X155204700Y-74900500D01*
X155271739Y-74920185D01*
G37*
G04 #@! TD.AperFunction*
M02*
